<svg width="552" height="151" viewBox="0 0 552 151" fill="none" xmlns="http://www.w3.org/2000/svg">
<path d="M0 139.943V17.912C0 12.6233 4.50514 8.11816 9.79381 8.11816C15.0825 8.11816 19.5877 12.6233 19.5877 17.912V66.2935L73.8454 11.0563C75.6083 9.29344 78.3506 8.11816 80.897 8.11816C86.1857 8.11816 90.6908 12.6233 90.6908 17.912C90.6908 20.4584 89.5156 23.0048 87.7527 24.7677L37.4124 76.2832L92.2579 133.087C94.0207 135.046 95.196 137.397 95.196 139.943C95.196 145.232 90.6908 149.737 85.4022 149.737C82.8558 149.737 80.3094 148.758 78.3506 146.799L19.5877 86.077V139.943C19.5877 145.232 15.0825 149.737 9.79381 149.737C4.50514 149.737 0 145.232 0 139.943Z" fill="white"/>
<path d="M118.046 140.531V52.5821C118.046 47.2935 122.551 42.9842 127.84 42.9842C133.129 42.9842 137.634 47.2935 137.634 52.5821V54.345C145.861 47.0976 156.438 42.2007 169.758 42.2007C199.139 42.2007 210.5 62.5718 210.5 91.7574V140.531C210.5 145.819 205.799 150.325 200.706 150.325C195.417 150.325 190.912 146.015 190.912 140.531V91.7574C190.912 74.1285 187.582 61.7883 169.758 61.7883C153.108 61.7883 142.531 75.6956 137.634 88.2317V140.531C137.634 145.819 133.129 150.325 127.84 150.325C122.551 150.325 118.046 145.819 118.046 140.531Z" fill="white"/>
<path d="M239.295 96.2626C239.295 65.3141 256.337 41.2213 288.265 41.2213C319.213 41.2213 337.234 65.3141 337.234 96.2626C337.234 126.819 319.605 150.912 288.265 150.912C256.728 150.912 239.295 127.211 239.295 96.2626ZM258.883 96.2626C258.883 115.654 268.089 131.325 288.265 131.325C308.44 131.325 317.646 115.654 317.646 96.2626C317.646 76.675 308.048 60.809 288.265 60.809C268.285 60.809 258.883 76.8708 258.883 96.2626Z" fill="white"/>
<path d="M355.785 54.345C355.785 49.0564 360.29 44.5512 365.578 44.5512H380.661L381.053 24.7677C381.053 19.0873 385.362 14.9738 390.846 14.9738C396.331 14.9738 400.64 19.479 400.64 24.7677L400.249 44.5512H429.434C434.723 44.5512 439.228 49.0564 439.228 54.345C439.228 59.6337 434.723 64.1389 429.434 64.1389H399.857L399.269 108.799C399.269 121.922 399.269 130.737 412.785 130.737C417.094 130.541 421.403 129.562 425.125 127.799C426.496 127.211 427.867 126.819 429.434 126.819C434.723 126.819 439.228 131.325 439.228 136.613C439.228 146.603 426.104 150.325 413.96 150.325C408.084 150.325 402.207 149.345 398.486 147.974C384.187 142.489 379.682 129.366 379.682 110.757V108.407L380.269 64.1389H365.578C360.29 64.1389 355.785 59.6337 355.785 54.345Z" fill="white"/>
<path d="M468.557 128.778C468.557 123.294 473.062 118.984 478.35 118.984C485.402 118.984 487.165 126.232 491.866 128.778C496.763 131.129 503.031 131.325 509.691 131.325C519.68 130.737 532.412 129.366 532.412 118.593C532.412 111.345 524.186 109.386 518.309 107.819C496.763 102.139 469.732 98.809 469.732 71.5822C469.732 49.644 488.732 41.2213 509.691 41.2213H515.763C530.062 42.0048 544.165 49.0564 547.691 62.376C547.887 63.3554 548.082 64.1389 548.082 64.9224C548.082 70.211 543.577 74.7162 538.289 74.7162C533.588 74.7162 529.67 71.5822 528.691 67.4688C527.32 61.9842 520.66 61.2007 514.783 60.809H509.691C500.68 60.809 489.319 61.5925 489.319 71.5822C489.319 79.0255 495.392 81.5719 501.268 83.1389C523.01 88.8193 552 91.3657 552 118.593C552 141.706 532.216 150.325 509.691 150.912H507.732C489.515 150.912 476.979 145.624 469.732 133.871C468.752 132.304 468.557 130.541 468.557 128.778Z" fill="white"/>
</svg>
