<svg width="552" height="152" viewBox="0 0 552 152" fill="none" xmlns="http://www.w3.org/2000/svg">
<path d="M0 140.265V18.2338C0 12.9451 4.50514 8.43994 9.79381 8.43994C15.0825 8.43994 19.5877 12.9451 19.5877 18.2338V66.6153L73.8454 11.3781C75.6083 9.61521 78.3506 8.43994 80.897 8.43994C86.1857 8.43994 90.6908 12.9451 90.6908 18.2338C90.6908 20.7802 89.5156 23.3266 87.7527 25.0895L37.4124 76.605L92.2579 133.409C94.0207 135.368 95.196 137.718 95.196 140.265C95.196 145.554 90.6908 150.059 85.4022 150.059C82.8558 150.059 80.3094 149.079 78.3506 147.121L19.5877 86.3988V140.265C19.5877 145.554 15.0825 150.059 9.79381 150.059C4.50514 150.059 0 145.554 0 140.265Z" fill="#171717"/>
<path d="M118.046 140.853V52.9039C118.046 47.6152 122.551 43.306 127.84 43.306C133.129 43.306 137.634 47.6152 137.634 52.9039V54.6668C145.861 47.4194 156.438 42.5225 169.758 42.5225C199.139 42.5225 210.5 62.8936 210.5 92.0792V140.853C210.5 146.141 205.799 150.646 200.706 150.646C195.417 150.646 190.912 146.337 190.912 140.853V92.0792C190.912 74.4503 187.582 62.1101 169.758 62.1101C153.108 62.1101 142.531 76.0173 137.634 88.5534V140.853C137.634 146.141 133.129 150.646 127.84 150.646C122.551 150.646 118.046 146.141 118.046 140.853Z" fill="#171717"/>
<path d="M239.295 96.5844C239.295 65.6359 256.337 41.5431 288.265 41.5431C319.213 41.5431 337.234 65.6359 337.234 96.5844C337.234 127.141 319.605 151.234 288.265 151.234C256.728 151.234 239.295 127.533 239.295 96.5844ZM258.883 96.5844C258.883 115.976 268.089 131.646 288.265 131.646C308.44 131.646 317.646 115.976 317.646 96.5844C317.646 76.9967 308.048 61.1307 288.265 61.1307C268.285 61.1307 258.883 77.1926 258.883 96.5844Z" fill="#171717"/>
<path d="M355.785 54.6668C355.785 49.3781 360.29 44.873 365.578 44.873H380.661L381.053 25.0895C381.053 19.409 385.362 15.2956 390.846 15.2956C396.331 15.2956 400.64 19.8008 400.64 25.0895L400.249 44.873H429.434C434.723 44.873 439.228 49.3781 439.228 54.6668C439.228 59.9555 434.723 64.4606 429.434 64.4606H399.857L399.269 109.121C399.269 122.244 399.269 131.059 412.785 131.059C417.094 130.863 421.403 129.883 425.125 128.12C426.496 127.533 427.867 127.141 429.434 127.141C434.723 127.141 439.228 131.646 439.228 136.935C439.228 146.925 426.104 150.646 413.96 150.646C408.084 150.646 402.207 149.667 398.486 148.296C384.187 142.811 379.682 129.688 379.682 111.079V108.729L380.269 64.4606H365.578C360.29 64.4606 355.785 59.9555 355.785 54.6668Z" fill="#171717"/>
<path d="M468.557 129.1C468.557 123.615 473.062 119.306 478.35 119.306C485.402 119.306 487.165 126.554 491.866 129.1C496.763 131.45 503.031 131.646 509.691 131.646C519.68 131.059 532.412 129.688 532.412 118.914C532.412 111.667 524.186 109.708 518.309 108.141C496.763 102.461 469.732 99.1308 469.732 71.9039C469.732 49.9658 488.732 41.5431 509.691 41.5431H515.763C530.062 42.3266 544.165 49.3782 547.691 62.6978C547.887 63.6771 548.082 64.4606 548.082 65.2441C548.082 70.5328 543.577 75.038 538.289 75.038C533.588 75.038 529.67 71.904 528.691 67.7905C527.32 62.306 520.66 61.5225 514.783 61.1307H509.691C500.68 61.1307 489.319 61.9142 489.319 71.9039C489.319 79.3473 495.392 81.8936 501.268 83.4607C523.01 89.1411 552 91.6875 552 118.914C552 142.028 532.216 150.646 509.691 151.234H507.732C489.515 151.234 476.979 145.945 469.732 134.193C468.752 132.626 468.557 130.863 468.557 129.1Z" fill="#171717"/>
</svg>
