<svg version="1.1" xmlns="http://www.w3.org/2000/svg" xmlns:xlink="http://www.w3.org/1999/xlink" viewBox="0,0,556,556">
	<g>
		<path d="M0,0M445,126 C450,147,469,163,494,163 C521,163,543,142,543,115 C543,115,543,111,543,103 C524,27,432,-15,344,-15 C311,-15,275,-7,242,10 C162,55,127,143,125,263 C127,383,162,471,242,516 C275,533,311,541,344,541 C432,541,523,485,542,409 C542,409,542,397,542,397 C542,370,520,347,493,347 C468,347,451,366,444,386 C435,427,375,441,338,441 C251,441,227,352,225,263 C227,174,251,85,338,85 C375,85,434,86,445,126Z "/>
	</g>
</svg>