<svg version="1.1" xmlns="http://www.w3.org/2000/svg" xmlns:xlink="http://www.w3.org/1999/xlink" viewBox="0,0,715,715">
	<g>
		<path d="M0,0M139,183 C139,210,161,233,189,233 C202,233,215,228,224,219 C224,219,282,162,282,162 C282,162,282,654,282,654 C282,682,305,704,332,704 C359,704,382,681,382,654 C382,654,382,162,382,162 C382,162,439,219,439,219 C449,228,461,233,475,233 C503,233,525,210,525,183 C525,170,519,158,510,148 C510,148,367,5,367,5 C358,-4,345,-11,332,-11 C317,-11,305,-4,296,5 C296,5,154,148,154,148 C144,158,139,170,139,183Z "/>
	</g>
</svg>