<svg version="1.1" xmlns="http://www.w3.org/2000/svg" xmlns:xlink="http://www.w3.org/1999/xlink" viewBox="0,0,956,956">
	<g>
		<path d="M0,0M382,66 C382,66,236,66,236,66 C208,66,186,89,186,116 C186,143,209,166,236,166 C236,166,332,166,332,166 C332,166,332,533,332,533 C332,565,332,605,322,626 C316,640,298,663,279,668 C269,671,241,672,230,672 C213,671,200,671,184,669 C184,669,179,669,179,669 C151,669,129,691,129,719 C129,763,172,773,218,773 C242,773,267,771,288,769 C345,763,391,713,413,669 C432,628,432,579,432,533 C432,533,432,116,432,116 C432,89,410,66,382,66 C382,66,382,66,382,66Z M345,-183 C318,-183,295,-161,295,-133 C295,-133,295,-87,295,-87 C295,-59,318,-37,345,-37 C345,-37,390,-37,390,-37 C417,-37,440,-59,440,-87 C440,-87,440,-133,440,-133 C440,-161,417,-183,390,-183 C390,-183,345,-183,345,-183Z "/>
	</g>
</svg>