<svg version="1.1" xmlns="http://www.w3.org/2000/svg" xmlns:xlink="http://www.w3.org/1999/xlink" viewBox="0,0,714,714">
	<g>
		<path d="M0,0M141,516 C141,529,146,542,156,552 C156,552,298,694,298,694 C308,704,321,710,334,710 C347,710,360,704,369,694 C369,694,512,552,512,552 C521,542,527,529,527,516 C527,489,504,466,477,466 C463,466,451,471,441,481 C441,481,384,538,384,538 C384,538,384,46,384,46 C384,19,362,-4,334,-4 C306,-4,284,18,284,46 C284,46,284,538,284,538 C284,538,226,481,226,481 C217,471,204,466,191,466 C164,466,141,489,141,516Z "/>
	</g>
</svg>