<svg version="1.1" xmlns="http://www.w3.org/2000/svg" xmlns:xlink="http://www.w3.org/1999/xlink" viewBox="0,0,552,552">
	<g>
		<path d="M0,0M408,-13 C348,-13,286,7,249,40 C249,12,227,-9,199,-9 C172,-9,148,13,148,40 C148,40,149,489,149,489 C149,516,172,539,199,539 C226,539,249,517,249,489 C249,489,249,265,249,265 C249,242,253,218,261,196 C268,173,287,152,302,134 C317,117,339,102,361,95 C366,93,370,92,376,90 C383,88,396,87,403,87 C423,87,441,93,448,102 C453,109,459,117,460,126 C460,154,483,176,510,176 C537,176,560,153,560,126 C559,50,496,-13,408,-13 C408,-13,408,-13,408,-13Z "/>
	</g>
</svg>