<svg version="1.1" xmlns="http://www.w3.org/2000/svg" xmlns:xlink="http://www.w3.org/1999/xlink" viewBox="0,0,786,786">
	<g>
		<path d="M0,0M582,38 C582,11,559,-13,532,-13 C519,-13,505,-9,495,1 C495,1,89,696,89,696 C84,703,82,712,82,721 C82,749,105,773,132,773 C149,773,167,761,176,748 C176,748,575,63,575,63 C579,56,582,47,582,38 C582,38,582,38,582,38Z M222,278 C270,278,311,237,311,188 C311,188,311,105,311,105 C311,56,270,15,222,15 C222,15,140,15,140,15 C92,15,51,56,51,105 C51,105,51,188,51,188 C51,237,92,278,140,278 C140,278,222,278,222,278Z M165,96 C165,96,197,96,197,96 C215,96,231,112,231,131 C231,131,231,162,231,162 C231,181,215,197,197,197 C197,197,165,197,165,197 C147,197,131,181,131,162 C131,162,131,131,131,131 C131,112,147,96,165,96Z M432,493 C384,493,343,534,343,583 C343,583,343,666,343,666 C343,715,384,756,432,756 C432,756,514,756,514,756 C562,756,603,715,603,666 C603,666,603,583,603,583 C603,534,562,493,514,493 C514,493,432,493,432,493Z M489,675 C489,675,457,675,457,675 C439,675,423,659,423,640 C423,640,423,609,423,609 C423,590,439,574,457,574 C457,574,489,574,489,574 C507,574,523,590,523,609 C523,609,523,640,523,640 C523,659,507,675,489,675Z "/>
	</g>
</svg>