<svg version="1.1" xmlns="http://www.w3.org/2000/svg" xmlns:xlink="http://www.w3.org/1999/xlink" viewBox="0,0,785,785">
	<g>
		<path d="M0,0M486,226 C486,226,364,226,364,226 C364,226,364,216,364,216 C364,194,364,163,368,150 C380,107,440,87,493,87 C520,87,543,64,543,37 C543,10,520,-13,493,-13 C345,-13,264,67,264,216 C264,216,264,226,264,226 C264,226,154,226,154,226 C127,226,104,249,104,276 C104,303,126,326,154,326 C154,326,264,326,264,326 C264,326,270,722,270,722 C270,750,293,772,320,772 C347,772,370,749,370,722 C370,722,364,326,364,326 C364,326,486,326,486,326 C513,326,536,303,536,276 C536,249,512,226,486,226 C486,226,486,226,486,226Z "/>
	</g>
</svg>