<svg version="1.1" xmlns="http://www.w3.org/2000/svg" xmlns:xlink="http://www.w3.org/1999/xlink" viewBox="0,0,549,549">
	<g>
		<path d="M0,0M265,257 C265,257,111,457,111,457 C105,466,102,476,102,486 C102,513,125,536,152,536 C165,536,179,532,188,522 C188,522,332,337,332,337 C332,337,475,522,475,522 C484,534,498,536,512,536 C538,536,562,513,562,486 C562,476,558,466,552,457 C552,457,398,257,398,257 C398,257,542,65,542,65 C547,57,550,47,550,37 C550,10,527,-13,500,-13 C487,-13,473,-8,464,1 C464,1,332,176,332,176 C332,176,200,1,200,1 C193,-9,177,-13,164,-13 C137,-13,114,9,114,37 C114,47,117,57,122,65 C122,65,265,257,265,257Z "/>
	</g>
</svg>