<svg version="1.1" xmlns="http://www.w3.org/2000/svg" xmlns:xlink="http://www.w3.org/1999/xlink" viewBox="0,0,827,827">
	<g>
		<path d="M0,0M512,353 C512,353,512,353,512,353 C553,387,576,436,577,489 C577,547,550,601,506,634 C475,658,467,659,435,671 C435,671,435,736,435,736 C435,763,412,786,385,786 C358,786,335,764,335,736 C335,736,335,679,335,679 C335,679,277,679,277,679 C277,679,277,736,277,736 C277,763,254,786,227,786 C200,786,177,764,177,736 C177,736,177,679,177,679 C177,679,150,679,150,679 C122,679,100,657,100,630 C100,630,100,104,100,104 C100,76,122,55,150,55 C150,55,177,55,177,55 C177,55,177,9,177,9 C177,-18,200,-41,227,-41 C254,-41,277,-19,277,9 C277,9,277,55,277,55 C277,55,335,55,335,55 C335,55,335,9,335,9 C335,-18,358,-41,385,-41 C412,-41,435,-19,435,9 C435,9,435,64,435,64 C456,70,456,71,475,81 C530,112,564,170,564,234 C564,281,545,323,512,353Z M465,233 C465,233,465,227,465,227 C458,165,405,154,322,154 C322,154,199,154,199,154 C199,154,199,307,199,307 C199,307,348,307,348,307 C383,307,410,300,430,290 C453,278,465,259,465,233Z M322,577 C322,577,322,577,322,577 C427,577,478,551,478,490 C476,414,396,400,348,400 C348,400,199,400,199,400 C199,400,199,577,199,577 C199,577,322,577,322,577Z "/>
	</g>
</svg>