<svg version="1.1" xmlns="http://www.w3.org/2000/svg" xmlns:xlink="http://www.w3.org/1999/xlink" viewBox="0,0,714.128054236357,714.128054236357">
	<g>
		<path d="M0,0M170,539.03278548 C197,538.03278548,220,516.03278548,220,488.03278548 C220,475.03278548,214,462.03278548,205,453.03278548 C205,453.03278548,148,396.03278548,148,396.03278548 C148,396.03278548,640,391.03278548,640,391.03278548 C668,391.03278548,690,367.03278548,689,340.03278548 C689,313.03278548,666,291.03278548,639,291.03278548 C639,291.03278548,147,296.03278548,147,296.03278548 C147,296.03278548,203,238.03278548,203,238.03278548 C212,228.03278548,217,216.03278548,217,202.03278548 C217,174.03278548,193,152.03278548,166,153.03278548 C153,153.03278548,141,159.03278548,132,168.03278548 C132,168.03278548,-10,312.03278548,-10,312.03278548 C-19,322.03278548,-26,335.03278548,-25,348.03278548 C-25,363.03278548,-18,375.03278548,-9,383.03278548 C-9,383.03278548,135,524.03278548,135,524.03278548 C145,534.03278548,157,539.03278548,170,539.03278548Z "/>
	</g>
</svg>