<svg version="1.1" xmlns="http://www.w3.org/2000/svg" xmlns:xlink="http://www.w3.org/1999/xlink" viewBox="0,0,357,357">
	<g>
		<path d="M0,0M256,451 C256,451,227,451,227,451 C200,451,177,474,177,501 C177,501,179,721,179,721 C179,747,203,771,229,771 C256,771,276,750,279,728 C279,728,304,501,304,501 C304,499,304,498,304,496 C304,473,283,451,256,451 C256,451,256,451,256,451Z M486,450 C486,450,457,450,457,450 C430,450,407,473,407,500 C407,500,404,720,404,720 C404,746,428,770,454,770 C481,770,501,749,504,727 C504,727,534,500,534,500 C534,498,534,497,534,495 C534,472,513,450,486,450 C486,450,486,450,486,450Z "/>
	</g>
</svg>