<svg version="1.1" xmlns="http://www.w3.org/2000/svg" xmlns:xlink="http://www.w3.org/1999/xlink" viewBox="0,0,725,725">
	<g>
		<path d="M0,0M209,359 C209,359,209,359,209,359 C209,359,209,344,209,344 C211,230,236,89,356,89 C392,89,441,106,447,137 C451,159,472,178,496,178 C531,178,550,144,544,113 C530,34,436,-11,356,-11 C169,-11,111,163,109,342 C109,342,109,361,109,361 C111,540,167,714,356,714 C434,714,530,669,544,590 C550,559,531,525,496,525 C472,525,451,544,447,566 C441,597,392,614,356,614 C236,614,211,473,209,359Z "/>
	</g>
</svg>