<svg version="1.1" xmlns="http://www.w3.org/2000/svg" xmlns:xlink="http://www.w3.org/1999/xlink" viewBox="0,0,843,843">
	<g>
		<path d="M0,0M259,720 C259,733,264,745,274,755 C284,765,296,770,309,770 C309,770,355,770,355,770 C368,770,380,765,390,755 C400,745,405,733,405,720 C405,720,405,674,405,674 C405,661,400,649,390,639 C380,629,368,624,355,624 C355,624,309,624,309,624 C296,624,284,629,274,639 C264,649,259,661,259,674 C259,674,259,720,259,720Z M280,368 C280,382,285,394,295,403 C304,413,318,418,332,418 C346,418,360,413,370,403 C379,393,384,381,384,368 C384,368,384,-23,384,-23 C384,-36,379,-48,369,-58 C359,-68,345,-73,332,-73 C319,-73,305,-68,295,-59 C285,-49,280,-37,280,-23 C280,-23,280,368,280,368Z "/>
	</g>
</svg>