<svg version="1.1" xmlns="http://www.w3.org/2000/svg" xmlns:xlink="http://www.w3.org/1999/xlink" viewBox="0,0,786,786">
	<g>
		<path d="M0,0M189,236 C189,236,374,236,374,236 C402,236,424,258,424,286 C424,286,424,723,424,723 C424,751,401,773,374,773 C347,773,324,750,324,723 C324,723,324,336,324,336 C324,336,189,336,189,336 C162,336,139,313,139,286 C139,259,161,236,189,236Z M332,-13 C332,-13,377,-13,377,-13 C404,-13,427,9,427,37 C427,37,427,83,427,83 C427,111,404,133,377,133 C377,133,332,133,332,133 C305,133,282,111,282,83 C282,83,282,37,282,37 C282,9,305,-13,332,-13Z "/>
	</g>
</svg>