<svg version="1.1" xmlns="http://www.w3.org/2000/svg" xmlns:xlink="http://www.w3.org/1999/xlink" viewBox="0,0,780,780">
	<g>
		<path d="M0,0M572,44 C572,15,547,-10,518,-10 C498,-10,477,3,470,19 C470,19,327,288,327,288 C327,288,183,19,183,19 C174,3,158,-10,136,-10 C107,-10,82,14,82,44 C82,54,84,62,88,70 C88,70,241,356,241,356 C241,356,127,356,127,356 C111,356,96,374,96,390 C96,406,111,424,127,424 C127,424,272,424,272,424 C272,424,273,425,273,425 C273,425,273,495,273,495 C273,495,127,495,127,495 C111,495,96,513,96,529 C96,545,111,563,127,563 C127,563,273,563,273,563 C273,563,273,716,273,716 C273,746,298,770,327,770 C356,770,381,745,381,716 C381,716,381,563,381,563 C381,563,527,563,527,563 C543,563,558,545,558,529 C558,513,543,495,527,495 C527,495,381,495,381,495 C381,495,381,425,381,425 C381,425,381,424,381,424 C381,424,527,424,527,424 C543,424,558,406,558,390 C558,374,543,356,527,356 C527,356,412,356,412,356 C412,356,565,70,565,70 C570,62,572,54,572,44 C572,44,572,44,572,44Z "/>
	</g>
</svg>