<svg version="1.1" xmlns="http://www.w3.org/2000/svg" xmlns:xlink="http://www.w3.org/1999/xlink" viewBox="0,0,714.0327854815176,714.0327854815176">
	<g>
		<path d="M0,0M495,154 C468,154,445,176,445,204 C445,217,450,230,459,239 C459,239,516,297,516,297 C516,297,24,299,24,299 C-4,300,-26,323,-25,350 C-25,377,-2,400,25,399 C25,399,517,397,517,397 C517,397,460,454,460,454 C451,464,446,476,446,490 C447,518,470,540,497,540 C510,540,522,534,532,525 C532,525,674,381,674,381 C683,372,689,359,689,346 C689,331,682,319,673,310 C673,310,530,169,530,169 C520,159,508,154,495,154Z "/>
	</g>
</svg>