<svg version="1.1" xmlns="http://www.w3.org/2000/svg" xmlns:xlink="http://www.w3.org/1999/xlink" viewBox="0,0,712.0799942578817,712.0799942578817">
	<g>
		<path d="M0,0M332,305.07999426 C332,305.07999426,222,305.07999426,222,305.07999426 C222,305.07999426,222,91.07999426,222,91.07999426 C222,91.07999426,306,89.07999426,330,91.07999426 C361,93.07999426,390,102.07999426,418,116.07999426 C432,124.07999426,450,136.07999426,451,157.07999426 C453,206.07999426,451,251.07999426,414,282.07999426 C392,301.07999426,361,305.07999426,332,305.07999426 C332,305.07999426,332,305.07999426,332,305.07999426Z M553,627.07999426 C553,627.07999426,417,393.07999426,417,393.07999426 C515,357.07999426,554,261.07999426,552,149.07999426 C549,56.07999426,430,-1.92000574,336,-7.92000574 C282,-11.92000574,172,-8.92000574,172,-8.92000574 C144,-8.92000574,122,13.07999426,122,41.07999426 C122,41.07999426,122,652.07999426,122,652.07999426 C122,680.07999426,145,702.07999426,172,702.07999426 C199,702.07999426,222,679.07999426,222,652.07999426 C222,652.07999426,222,405.07999426,222,405.07999426 C222,405.07999426,308,405.07999426,308,405.07999426 C308,405.07999426,472,688.07999426,472,688.07999426 C481,698.07999426,496,702.07999426,509,702.07999426 C536,702.07999426,559,679.07999426,559,652.07999426 C559,643.07999426,558,635.07999426,553,627.07999426 C553,627.07999426,553,627.07999426,553,627.07999426Z "/>
	</g>
</svg>