<svg version="1.1" xmlns="http://www.w3.org/2000/svg" xmlns:xlink="http://www.w3.org/1999/xlink" viewBox="0,0,383,383">
	<g>
		<path d="M0,0M272,500 C272,473,249,450,222,450 C222,450,193,450,193,450 C193,450,193,450,193,450 C166,450,145,472,145,495 C145,497,145,498,145,500 C145,500,160,727,160,727 C163,749,183,770,210,770 C236,770,260,746,260,720 C260,720,272,500,272,500Z M480,450 C480,450,451,450,451,450 C424,450,401,473,401,500 C401,500,411,720,411,720 C411,746,435,770,461,770 C488,770,508,749,511,727 C511,727,528,500,528,500 C528,498,528,497,528,495 C528,472,507,450,480,450 C480,450,480,450,480,450Z "/>
	</g>
</svg>