<svg version="1.1" xmlns="http://www.w3.org/2000/svg" xmlns:xlink="http://www.w3.org/1999/xlink" viewBox="0,0,543,543">
	<g>
		<path d="M0,0M293,353 C266,353,243,375,243,403 C243,403,243,483,243,483 C243,511,266,533,293,533 C293,533,371,533,371,533 C398,533,421,510,421,483 C421,483,421,403,421,403 C421,376,398,353,371,353 C371,353,293,353,293,353Z M293,-10 C266,-10,243,12,243,40 C243,40,243,120,243,120 C243,148,265,170,293,170 C293,170,371,170,371,170 C399,170,421,147,421,120 C421,120,421,40,421,40 C421,13,398,-10,371,-10 C371,-10,293,-10,293,-10Z "/>
	</g>
</svg>