<svg version="1.1" xmlns="http://www.w3.org/2000/svg" xmlns:xlink="http://www.w3.org/1999/xlink" viewBox="0,0,712,712">
	<g>
		<path d="M0,0M391,1 C419,1,441,-22,441,-49 C441,-49,441,-129,441,-129 C441,-156,418,-179,391,-179 C391,-179,315,-179,315,-179 C288,-179,265,-157,265,-129 C265,-129,265,-49,265,-49 C265,-21,287,1,315,1 C315,1,391,1,391,1Z M444,231 C444,204,421,181,394,181 C394,181,315,181,315,181 C293,181,276,194,270,209 C270,209,137,462,137,462 C134,468,133,476,133,483 C133,511,148,533,175,533 C175,533,205,533,205,533 C218,533,231,527,240,518 C240,518,434,262,436,259 C437,257,441,245,442,242 C443,238,444,235,444,231 C444,231,444,231,444,231Z "/>
	</g>
</svg>