<svg version="1.1" xmlns="http://www.w3.org/2000/svg" xmlns:xlink="http://www.w3.org/1999/xlink" viewBox="0,0,786,786">
	<g>
		<path d="M0,0M367,221 C306,221,256,242,221,271 C221,271,221,37,221,37 C221,10,198,-13,171,-13 C144,-13,121,9,121,37 C121,37,121,723,121,723 C121,751,144,773,171,773 C198,773,221,750,221,723 C221,723,221,432,221,432 C249,380,292,321,367,321 C369,321,372,321,372,321 C447,325,448,420,448,474 C448,474,448,723,448,723 C448,750,471,773,498,773 C525,773,548,750,548,723 C548,723,548,474,548,474 C548,431,548,384,538,347 C518,276,451,221,367,221Z "/>
	</g>
</svg>