<svg version="1.1" xmlns="http://www.w3.org/2000/svg" xmlns:xlink="http://www.w3.org/1999/xlink" viewBox="0,0,711,711">
	<g>
		<path d="M0,0M-2,364 C-2,565,111,718,315,718 C518,718,633,562,633,364 C633,164,516,7,315,7 C108,7,-2,164,-2,364Z M73,366 C73,211,150,83,314,83 C477,83,555,210,555,366 C555,522,480,647,314,647 C149,647,73,522,73,366Z M370,264 C383,283,402,289,428,284 C454,279,465,256,460,233 C460,233,459,230,459,227 C443,179,378,149,311,149 C285,149,256,154,231,167 C169,203,139,276,137,370 C139,464,169,533,231,568 C256,581,285,588,311,588 C378,588,441,548,460,496 C460,496,462,490,462,490 C466,471,453,446,428,440 C402,434,380,446,366,470 C354,489,339,499,309,498 C255,497,229,439,228,369 C229,299,259,247,311,243 C340,243,361,250,370,264Z "/>
	</g>
</svg>