<svg version="1.1" xmlns="http://www.w3.org/2000/svg" xmlns:xlink="http://www.w3.org/1999/xlink" viewBox="0,0,694,694">
	<g>
		<path d="M0,0M144,141 C144,141,144,141,144,141 C117,141,94,164,94,191 C94,218,117,241,144,241 C144,241,227,241,227,241 C227,241,224,467,224,467 C224,467,224,479,224,479 C224,574,247,641,320,669 C339,676,369,681,399,681 C461,681,536,662,536,611 C536,584,513,561,486,561 C478,561,471,563,464,566 C445,575,415,580,393,581 C324,581,324,536,324,469 C324,469,327,241,327,241 C327,241,486,241,486,241 C513,241,536,218,536,191 C536,164,513,141,486,141 C486,141,329,141,329,141 C329,141,331,37,331,37 C331,10,309,-13,281,-13 C253,-13,231,8,231,37 C231,37,229,141,229,141 C229,141,144,141,144,141Z "/>
	</g>
</svg>