<svg version="1.1" xmlns="http://www.w3.org/2000/svg" xmlns:xlink="http://www.w3.org/1999/xlink" viewBox="0,0,560.0820378727157,560.0820378727157">
	<g>
		<path d="M0,0M164,378.91796213 C164,378.91796213,164,378.91796213,164,378.91796213 C137,378.91796213,114,400.91796213,114,428.91796213 C114,437.91796213,115,446.91796213,120,454.91796213 C125,462.91796213,131,470.91796213,137,477.91796213 C159,502.91796213,188,519.91796213,219,528.91796213 C258,540.91796213,307,543.91796213,347,540.91796213 C381,538.91796213,419,532.91796213,451,519.91796213 C479,508.91796213,505,491.91796213,523,466.91796213 C542,440.91796213,550,408.91796213,550,376.91796213 C550,237.91796213,398,224.91796213,287,195.91796213 C257,187.91796213,220,174.91796213,220,136.91796213 C220,126.91796213,222,117.91796213,228,109.91796213 C239,93.91796213,265,87.91796213,283,84.91796213 C307,80.91796213,334,81.91796213,358,81.91796213 C388,83.91796213,424,87.91796213,431,115.91796213 C436,136.91796213,456,152.91796213,480,152.91796213 C507,152.91796213,530,129.91796213,530,102.91796213 C530,98.91796213,529,94.91796213,528,89.91796213 C510,21.91796213,436,-14.08203787,363,-18.08203787 C342,-18.08203787,319,-18.08203787,297,-17.08203787 C255,-13.08203787,204,-1.08203787,170,25.91796213 C136,52.91796213,120,93.91796213,120,136.91796213 C120,275.91796213,266,292.91796213,376,321.91796213 C406,329.91796213,450,339.91796213,450,376.91796213 C450,431.91796213,381,438.91796213,330,441.91796213 C296,441.91796213,258,440.91796213,233,428.91796213 C209,415.91796213,200,378.91796213,164,378.91796213Z "/>
	</g>
</svg>