<svg version="1.1" xmlns="http://www.w3.org/2000/svg" xmlns:xlink="http://www.w3.org/1999/xlink" viewBox="0,0,729.8007303864144,729.8007303864144">
	<g>
		<path d="M0,0M323,-18.54197271 C214,-21.54197271,88,27.45802729,71,146.45802729 C69,165.45802729,77,186.45802729,94,196.45802729 C111,207.45802729,134,206.45802729,150,194.45802729 C163,185.45802729,169,171.45802729,171,156.45802729 C175,135.45802729,203,110.45802729,220,98.45802729 C247,78.45802729,295,74.45802729,330,75.45802729 C520,63.45802729,487,321.45802729,490,463.45802729 C490,500.45802729,488,567.45802729,485,576.45802729 C479,594.45802729,472,610.45802729,455,611.45802729 C437,612.45802729,428,598.45802729,425,584.45802729 C424,579.45802729,424,573.45802729,423,568.45802729 C423,568.45802729,423,566.45802729,423,566.45802729 C423,563.45802729,424,325.45802729,423,323.45802729 C421,273.45802729,358,254.45802729,331,298.45802729 C308,285.45802729,272,270.45802729,242,271.45802729 C242,271.45802729,242,271.45802729,242,271.45802729 C122,269.45802729,100,400.45802729,101,497.45802729 C101,561.45802729,110,634.45802729,155,675.45802729 C202,725.45802729,311,721.45802729,359,672.45802729 C359,672.45802729,361,671.45802729,361,671.45802729 C379,694.45802729,406,706.45802729,434,708.45802729 C498,714.45802729,557,674.45802729,577,613.45802729 C593,564.45802729,589,516.45802729,590,462.45802729 C595,249.45802729,592,-19.54197271,337,-18.54197271 C337,-18.54197271,323,-18.54197271,323,-18.54197271Z M324,556.45802729 C311,586.45802729,290,614.45802729,250,611.45802729 C250,611.45802729,250,611.45802729,250,611.45802729 C191,607.45802729,202,523.45802729,201,480.45802729 C201,447.45802729,199,371.45802729,242,371.45802729 C270,371.45802729,294,388.45802729,310,408.45802729 C316,415.45802729,320,421.45802729,324,429.45802729 C324,429.45802729,324,431.45802729,324,435.45802729 C324,468.45802729,324,553.45802729,324,556.45802729 C324,556.45802729,324,556.45802729,324,556.45802729Z "/>
	</g>
</svg>