<svg version="1.1" xmlns="http://www.w3.org/2000/svg" xmlns:xlink="http://www.w3.org/1999/xlink" viewBox="0,0,358,358">
	<g>
		<path d="M0,0M482,501 C482,474,459,451,432,451 C432,451,403,451,403,451 C403,451,403,451,403,451 C376,451,355,473,355,496 C355,498,355,499,355,501 C355,501,380,728,380,728 C383,750,403,771,430,771 C456,771,480,747,480,721 C480,721,482,501,482,501Z M251,500 C251,473,228,450,201,450 C201,450,172,450,172,450 C172,450,172,450,172,450 C145,450,124,472,124,495 C124,497,124,498,124,500 C124,500,154,727,154,727 C157,749,177,770,204,770 C230,770,254,746,254,720 C254,720,251,500,251,500Z "/>
	</g>
</svg>