<svg width="1000" height="1000" viewBox="0 0 1000 1000" fill="none" xmlns="http://www.w3.org/2000/svg">
<g clip-path="url(#clip0_129_917)">
<path d="M522.396 685.953C522.396 685.953 537.288 685.953 547.431 685.249C557.574 684.545 563.772 684.702 571.339 683.606C545.177 581.741 519.659 578.69 480.215 525.723C447.372 465.558 474.017 420.65 474.017 420.65C471.36 418.224 448.499 398.196 442.703 391.232C399.959 442.4 412.355 513.987 444.877 555.688C477.478 596.606 508.792 605.917 522.396 685.953Z" fill="white"/>
<path d="M548.395 456.014C548.395 456.014 580.192 442.322 597.499 433.325C536.159 407.584 469.265 349.454 446.645 293.984C429.821 293.592 412.836 293.201 401.566 293.123C405.672 310.179 417.183 341.083 452.361 378.95H452.28C509.675 439.114 548.556 456.014 548.556 456.014H548.395Z" fill="white"/>
<path d="M483.441 838.745C438.926 799.783 435.545 743.061 445.607 685.322C449.954 647.533 463.8 623.045 473.54 609.04C467.342 601.373 451.001 586.273 442.629 577.745C366.719 696.979 382.738 829.826 482.797 890.695C482.797 890.695 543.171 859.4 569.655 786.561L519.343 786.874C510.408 814.648 483.361 838.745 483.361 838.745H483.441Z" fill="white"/>
<path d="M446.965 207.921C455.498 179.678 482.786 155.894 482.786 155.894C528.348 190.553 543.16 287.02 493.01 335.214C495.666 342.334 515.227 362.128 524.082 369.325C622.128 268.086 563.445 158.084 482.786 108.325C482.786 108.325 424.586 142.984 400.92 207.921C408.889 207.921 417.824 207.921 427.082 207.921C433.602 207.921 440.283 207.921 446.965 207.921Z" fill="white"/>
<path d="M609.826 445.213C548.164 476.195 526.993 480.499 491.574 517.27C498.417 526.111 513.47 543.636 524.095 554.902C552.028 517.505 618.439 491.843 674.144 467.276C846.731 391.229 749.651 220.202 600.327 220.202C597.188 220.202 594.129 220.202 590.989 220.437C592.197 227.948 593.163 227.4 594.451 251.497C595.256 266.049 591.955 279.115 590.909 286.235C701.191 311.271 709.482 395.063 609.987 445.213H609.826Z" fill="white"/>
<path d="M702.944 473.307C683.061 482.93 652.391 492.475 636.694 502.02C719.044 543.329 737.8 666.788 614.074 691.433C585.739 699.492 532.932 700.587 491.154 700.587C479.965 700.587 469.661 700.587 460.726 700.43C456.862 712.635 457.264 762.081 461.611 772.487H575.516C577.77 772.487 580.024 772.487 582.197 772.487C787.064 772.487 891.631 580.414 703.025 473.229L702.944 473.307Z" fill="white"/>
<path d="M380.072 698.863C369.366 696.829 361.236 691.978 361.236 676.957V301.729C362.926 281.387 373.471 278.728 405.107 278.728C416.296 278.728 430.142 279.041 447.127 279.041C479.407 279.041 481.5 279.745 496.231 279.745C498.324 279.745 500.739 279.745 503.476 279.745C507.259 270.2 507.259 232.254 503.476 222.083H479.97C464.193 222.083 436.662 222.083 405.027 222.083C341.755 222.083 261.982 222.083 226.562 222.083C226.562 222.083 292.007 244.147 292.007 278.65V713.65C292.007 740.172 230.104 773.032 230.104 773.032L381.682 772.719C376.289 746.51 377.094 724.134 379.911 698.941L380.072 698.863Z" fill="white"/>
</g>
<defs>
<clipPath id="clip0_129_917">
<rect width="575.194" height="782.373" fill="white" transform="translate(226.562 108.325)"/>
</clipPath>
</defs>
</svg>
