<svg width="1024" height="1024" viewBox="0 0 1024 1024" fill="none" xmlns="http://www.w3.org/2000/svg">
<rect width="1024" height="1024" fill="#FC7E08"/>
<path d="M463.556 400.86C435.098 369.615 423.78 343.48 419.135 327.145H460.367C481.501 374.694 535.862 423.496 587.545 447.743C579.811 453.246 571.585 458.025 562.973 462.018C554.504 466.152 549.472 468.552 546.546 469.915C536.219 464.372 505.345 445.653 463.525 400.922L463.556 400.86ZM594.203 288.592C594.176 297.915 593.206 307.21 591.308 316.338C688.216 340.104 694.812 416.235 605.784 461.879C552.987 488.959 533.014 493.913 503.843 523.238C507.001 528.568 510.745 533.528 515.007 538.025C519.652 543.15 526.851 551.851 532.038 558.153C559.041 526.227 615.848 503.699 663.799 482.162C822.253 410.939 728.828 249.466 590.115 255.087C592.939 266.028 594.313 277.293 594.203 288.592ZM564.135 675.298C566.116 675.019 567.82 674.756 569.275 674.493C555.573 601.629 523.461 583.499 488.763 535.966C465.151 491.901 475.587 456.769 480.836 444.259C476.764 440.497 471.112 435.186 465.724 429.813C460.057 424.147 455.505 419.347 452.192 415.786C416.952 462.576 428.255 526.134 456.914 563.51C485.527 600.128 513.04 609.247 525.814 677.404C534.19 677.28 552.847 676.846 564.135 675.298ZM263.22 763.304L395.384 763.01C393.304 751.727 392.237 740.281 392.195 728.808C391.959 717.232 392.736 705.658 394.517 694.218C386.776 691.88 381.372 686.895 381.372 675.019V329.87C383.431 304.54 400.091 309.014 458.942 309.014C489.909 309.014 490.11 309.788 506.027 309.68C507.809 300.775 508.691 291.713 508.659 282.631C508.648 273.885 507.703 265.165 505.841 256.619H488.655C445.983 256.759 307.874 256.619 260 256.619C260 256.619 319.084 276.964 319.084 308.643V708.726C319.084 733.127 263.22 763.304 263.22 763.304ZM693.651 489.919C688.247 492.799 677.13 498.14 655.206 506.95C645.916 510.697 638.903 514.041 634.32 516.379C705.031 556.403 719.213 666.178 609.67 688.242C578.828 697.191 515.58 696.866 476.655 696.603C475.68 700.086 473.682 709.825 474.038 730.031C474.395 749.849 477.352 760.3 478.172 762.855H574.787C762.226 766.803 860.404 590.002 693.573 489.919H693.651ZM460.522 238.659C469.61 214.923 491.163 195.771 491.163 195.771C531.419 227 544.982 312.637 503.085 357.817C507.728 364.183 512.836 370.196 518.367 375.808C522.771 380.091 527.457 384.074 532.394 387.73C615.306 295.761 562.788 197.04 491.163 152C491.163 152 441.493 182.146 419.135 238.705L460.522 238.659ZM522.284 781.249C512.901 804.582 491.705 823.843 491.705 823.843C451.542 787.984 448.46 735.822 457.564 682.745C461.064 651.516 471.499 630.196 479.999 616.834C477.095 613.215 473.955 609.791 470.601 606.584C465.693 601.815 458.013 593.718 452.44 587.772C386.822 696.386 401.98 816.287 491.147 871.624C491.147 871.624 542.737 844.389 567.541 781.249H522.284Z" fill="white"/>
</svg>
