<svg width="534" height="720" viewBox="0 0 534 720" fill="none" xmlns="http://www.w3.org/2000/svg">
<path d="M218.556 248.86C190.098 217.615 178.78 191.48 174.135 175.145H215.367C236.501 222.694 290.862 271.496 342.545 295.743C334.811 301.246 326.585 306.025 317.973 310.018C309.504 314.152 304.472 316.552 301.546 317.915C291.219 312.372 260.345 293.653 218.525 248.922L218.556 248.86ZM349.203 136.592C349.176 145.915 348.206 155.21 346.308 164.338C443.216 188.104 449.812 264.235 360.784 309.879C307.987 336.959 288.014 341.913 258.843 371.238C262.001 376.568 265.745 381.528 270.007 386.025C274.652 391.15 281.851 399.851 287.038 406.153C314.041 374.227 370.848 351.699 418.799 330.162C577.253 258.939 483.828 97.4662 345.115 103.087C347.939 114.028 349.313 125.293 349.203 136.592ZM319.135 523.298C321.116 523.019 322.82 522.756 324.275 522.493C310.573 449.629 278.461 431.499 243.763 383.966C220.151 339.901 230.587 304.769 235.836 292.259C231.764 288.497 226.112 283.186 220.724 277.813C215.057 272.147 210.505 267.347 207.192 263.786C171.952 310.576 183.255 374.134 211.914 411.51C240.527 448.128 268.04 457.247 280.814 525.404C289.19 525.28 307.847 524.846 319.135 523.298ZM18.2205 611.304L150.384 611.01C148.304 599.727 147.237 588.281 147.195 576.808C146.959 565.232 147.736 553.658 149.517 542.218C141.776 539.88 136.372 534.895 136.372 523.019V177.87C138.431 152.54 155.091 157.014 213.942 157.014C244.909 157.014 245.11 157.788 261.027 157.68C262.809 148.775 263.691 139.713 263.659 130.631C263.648 121.885 262.703 113.165 260.841 104.619H243.655C200.983 104.759 62.8738 104.619 15 104.619C15 104.619 74.0835 124.964 74.0835 156.643V556.726C74.0835 581.127 18.2205 611.304 18.2205 611.304ZM448.651 337.919C443.247 340.799 432.13 346.14 410.206 354.95C400.916 358.697 393.903 362.041 389.32 364.379C460.031 404.403 474.213 514.178 364.67 536.242C333.828 545.191 270.58 544.866 231.655 544.603C230.68 548.086 228.682 557.825 229.038 578.031C229.395 597.849 232.352 608.3 233.172 610.855H329.787C517.226 614.803 615.404 438.002 448.573 337.919H448.651ZM215.522 86.6589C224.61 62.9233 246.163 43.7707 246.163 43.7707C286.419 75.0002 299.982 160.637 258.085 205.817C262.728 212.183 267.836 218.196 273.367 223.808C277.771 228.091 282.457 232.074 287.394 235.73C370.306 143.761 317.788 45.0404 246.163 0C246.163 0 196.493 30.1456 174.135 86.7054L215.522 86.6589ZM277.284 629.249C267.901 652.582 246.705 671.843 246.705 671.843C206.542 635.984 203.46 583.822 212.564 530.745C216.064 499.516 226.499 478.196 234.999 464.834C232.095 461.215 228.955 457.791 225.601 454.584C220.693 449.815 213.013 441.718 207.44 435.772C141.822 544.386 156.98 664.287 246.147 719.624C246.147 719.624 297.737 692.389 322.541 629.249H277.284Z" fill="white"/>
</svg>
