<svg width="1024" height="397" viewBox="0 0 1024 397" fill="none" xmlns="http://www.w3.org/2000/svg">
<path d="M212.504 255.614C209.052 242.63 193.518 233.236 185.864 222.563C174.802 207.14 175.114 186.191 188.51 169.836C192.404 174.197 193.339 175.057 198.634 179.96C189.417 191.532 188.705 202.66 195.152 212.855C204.531 227.685 223.459 235.592 226.544 255.351C226.544 255.351 219.535 255.507 212.504 255.614Z" fill="white"/>
<path d="M242.588 206.285C252.713 214.385 263.21 222.549 262.827 235.41C262.264 254.324 247.518 261.58 227.479 261.893C225.062 261.931 197.884 262.049 197.884 262.049C196.663 269.242 197.027 275.506 199.127 280.97C199.127 280.97 232.831 281.065 232.746 281.065C263.696 281.065 288.667 266.365 288.667 235.41C288.667 216.98 276.701 205.818 260.034 195.537C253.492 199.431 248.04 202.391 242.588 206.285Z" fill="white"/>
<path d="M212.993 222.952C209.855 220.01 205.672 216.254 202.868 212.983C227.507 180.895 257.104 180.428 257.707 156.134C258.026 143.257 246.938 136.1 234.584 133.754C235.679 126.874 235.366 121.869 234.271 116.24C256.634 116.709 279.715 132.191 279.715 156.134C279.715 190.241 242.42 187.653 212.993 222.952Z" fill="white"/>
<path d="M171.758 262.224H161.395L161.402 132.505C161.402 132.505 192.903 132.505 208.311 132.505C209.875 127.031 209.583 121.42 207.818 116.149H130.126V118.056C141.072 126.561 143.067 133.461 143.067 146.295V250.733C143.067 262.261 140.134 271.369 130.126 278.961V280.868C130.126 280.868 159.12 280.837 172.008 280.868C170.831 274.004 170.714 268.905 171.758 262.224Z" fill="white"/>
<path d="M203.08 96.7684C209.975 103.642 214.596 113.381 215.264 123.109C215.899 132.342 212.273 141.846 206.905 149.393C209.962 152.923 213.626 156.03 217.07 158.775C223.846 149.985 227.946 140.076 228.592 128.938C229.779 108.476 219.847 92.4204 202.972 81.7112C191.164 88.9216 183.917 97.0799 179.226 109.672C184.138 109.672 189.137 109.661 194.082 109.672C195.802 105.137 199.582 100.163 203.08 96.7684Z" fill="white"/>
<path d="M211.89 287.498C209.659 292.055 206.632 296.858 202.991 300.392C196.095 293.519 191.474 283.469 190.806 273.74C190.172 264.508 191.787 253.674 197.416 244.447C193.834 240.709 190.563 237.749 187.136 234.634C180.412 245.424 178.124 256.773 177.478 267.911C176.342 287.498 186.652 305.052 203.098 315.138C214.055 308.447 222.556 299.683 226.682 287.53C221.769 287.53 216.856 287.53 211.911 287.52L211.89 287.498Z" fill="white"/>
<path d="M232.395 177.698C222.473 170.672 200.128 158.942 193.37 139.384H178.952C184.009 161.058 201.887 174.766 218.164 188.252C222.699 184.266 226.453 181.92 232.395 177.698Z" fill="white"/>
<path d="M347.641 262.7V140.669C347.641 135.381 352.147 130.875 357.435 130.875C362.724 130.875 367.229 135.381 367.229 140.669V189.051L421.487 133.814C423.25 132.051 425.992 130.875 428.538 130.875C433.827 130.875 438.332 135.381 438.332 140.669C438.332 143.216 437.157 145.762 435.394 147.525L385.054 199.041L439.899 255.845C441.662 257.803 442.837 260.154 442.837 262.7C442.837 267.989 438.332 272.494 433.044 272.494C430.497 272.494 427.951 271.515 425.992 269.556L367.229 208.834V262.7C367.229 267.989 362.724 272.494 357.435 272.494C352.147 272.494 347.641 267.989 347.641 262.7Z" fill="white"/>
<path d="M465.688 263.288V175.339C465.688 170.051 470.193 165.742 475.482 165.742C480.77 165.742 485.275 170.051 485.275 175.339V177.102C493.502 169.855 504.079 164.958 517.399 164.958C546.781 164.958 558.141 185.329 558.141 214.515V263.288C558.141 268.577 553.44 273.082 548.348 273.082C543.059 273.082 538.554 268.773 538.554 263.288V214.515C538.554 196.886 535.224 184.546 517.399 184.546C500.75 184.546 490.172 198.453 485.275 210.989V263.288C485.275 268.577 480.77 273.082 475.482 273.082C470.193 273.082 465.688 268.577 465.688 263.288Z" fill="white"/>
<path d="M586.937 219.02C586.937 188.071 603.978 163.979 635.906 163.979C666.855 163.979 684.875 188.071 684.875 219.02C684.875 249.577 667.246 273.67 635.906 273.67C604.37 273.67 586.937 249.968 586.937 219.02ZM606.525 219.02C606.525 238.412 615.731 254.082 635.906 254.082C656.081 254.082 665.288 238.412 665.288 219.02C665.288 199.432 655.69 183.566 635.906 183.566C615.927 183.566 606.525 199.628 606.525 219.02Z" fill="white"/>
<path d="M703.426 177.102C703.426 171.814 707.931 167.309 713.22 167.309H728.302L728.694 147.525C728.694 141.845 733.003 137.731 738.488 137.731C743.973 137.731 748.282 142.236 748.282 147.525L747.89 167.309H777.076C782.364 167.309 786.869 171.814 786.869 177.102C786.869 182.391 782.364 186.896 777.076 186.896H747.498L746.911 231.556C746.911 244.68 746.911 253.494 760.426 253.494C764.735 253.298 769.045 252.319 772.766 250.556C774.137 249.968 775.509 249.577 777.076 249.577C782.364 249.577 786.869 254.082 786.869 259.371C786.869 269.36 773.746 273.082 761.601 273.082C755.725 273.082 749.849 272.102 746.127 270.731C731.828 265.247 727.323 252.123 727.323 233.515V231.164L727.911 186.896H713.22C707.931 186.896 703.426 182.391 703.426 177.102Z" fill="white"/>
<path d="M816.198 251.535C816.198 246.051 820.703 241.742 825.992 241.742C833.043 241.742 834.806 248.989 839.507 251.535C844.404 253.886 850.672 254.082 857.332 254.082C867.322 253.494 880.054 252.123 880.054 241.35C880.054 234.102 871.827 232.144 865.951 230.577C844.404 224.896 817.373 221.566 817.373 194.339C817.373 172.401 836.373 163.979 857.332 163.979H863.404C877.703 164.762 891.806 171.814 895.332 185.133C895.528 186.113 895.724 186.896 895.724 187.68C895.724 192.968 891.219 197.474 885.93 197.474C881.229 197.474 877.312 194.339 876.332 190.226C874.961 184.742 868.301 183.958 862.425 183.566H857.332C848.322 183.566 836.961 184.35 836.961 194.339C836.961 201.783 843.033 204.329 848.909 205.896C870.652 211.577 899.641 214.123 899.641 241.35C899.641 264.463 879.858 273.082 857.332 273.67H855.373C837.157 273.67 824.621 268.381 817.373 256.628C816.394 255.061 816.198 253.298 816.198 251.535Z" fill="white"/>
</svg>
