<svg width="1024" height="476" viewBox="0 0 1024 476" fill="none" xmlns="http://www.w3.org/2000/svg">
<path d="M246.379 321.527C241.336 302.555 218.637 288.828 207.451 273.232C191.288 250.695 191.743 220.084 211.318 196.185C217.008 202.558 218.375 203.815 226.112 210.98C212.643 227.888 211.603 244.149 221.024 259.046C234.729 280.717 262.387 292.271 266.896 321.143C266.896 321.143 256.653 321.371 246.379 321.527Z" fill="#171717"/>
<path d="M290.34 249.446C305.134 261.282 320.473 273.212 319.913 292.005C319.09 319.643 297.543 330.246 268.261 330.703C264.729 330.758 225.015 330.93 225.015 330.93C223.232 341.442 223.763 350.595 226.832 358.579C226.832 358.579 276.081 358.717 275.958 358.717C321.183 358.717 357.671 337.238 357.671 292.005C357.671 265.074 340.186 248.763 315.832 233.741C306.272 239.431 298.306 243.756 290.34 249.446Z" fill="#171717"/>
<path d="M247.094 273.8C242.508 269.501 236.396 264.013 232.299 259.233C268.302 212.345 311.55 211.662 312.431 176.164C312.898 157.347 296.696 146.889 278.644 143.462C280.243 133.407 279.786 126.095 278.187 117.869C310.864 118.554 344.591 141.177 344.591 176.164C344.591 226.002 290.094 222.22 247.094 273.8Z" fill="#171717"/>
<path d="M186.839 331.186H171.697L171.707 141.636C171.707 141.636 217.738 141.636 240.252 141.636C242.538 133.638 242.11 125.439 239.531 117.737H126.005V120.523C142.001 132.951 144.916 143.033 144.916 161.787V314.396C144.916 331.241 140.63 344.55 126.005 355.644V358.43C126.005 358.43 168.373 358.384 187.205 358.43C185.485 348.399 185.315 340.948 186.839 331.186Z" fill="#171717"/>
<path d="M232.609 89.4167C242.684 99.4607 249.437 113.691 250.413 127.907C251.34 141.397 246.041 155.286 238.198 166.313C242.665 171.472 248.019 176.012 253.051 180.024C262.952 167.178 268.944 152.7 269.888 136.424C271.622 106.524 257.109 83.0632 232.451 67.4146C215.196 77.9507 204.607 89.8719 197.752 108.272C204.93 108.272 212.234 108.256 219.46 108.272C221.973 101.645 227.497 94.3773 232.609 89.4167Z" fill="#171717"/>
<path d="M245.481 368.117C242.223 374.777 237.799 381.795 232.478 386.959C222.402 376.915 215.65 362.229 214.674 348.014C213.747 334.523 216.106 318.692 224.333 305.21C219.098 299.748 214.318 295.423 209.31 290.871C199.484 306.638 196.143 323.22 195.199 339.497C193.539 368.117 208.603 393.768 232.635 408.506C248.646 398.73 261.067 385.923 267.096 368.165C259.918 368.165 252.739 368.165 245.513 368.149L245.481 368.117Z" fill="#171717"/>
<path d="M275.445 207.673C260.946 197.408 228.295 180.267 218.42 151.688H197.352C204.741 183.358 230.865 203.39 254.65 223.095C261.277 217.271 266.761 213.843 275.445 207.673Z" fill="#171717"/>
<path d="M423.382 195.495V128.801C423.382 125.688 425.827 123.243 428.94 123.243H447.948C454.395 123.243 460.953 123.354 466.622 126.467C473.402 130.357 477.293 137.805 477.293 145.363C477.293 150.921 475.181 156.479 470.624 160.481C475.848 164.593 478.849 170.929 478.96 177.71C478.96 184.602 475.959 191.271 470.401 195.495C464.176 200.386 455.951 201.053 447.948 201.053H428.94C425.938 201.053 423.382 198.607 423.382 195.495ZM434.498 189.937H447.948C457.618 189.937 467.845 187.936 467.845 177.71C467.622 169.151 460.064 166.038 451.171 166.038H434.498V189.937ZM434.498 154.923H451.171C458.73 154.923 466.288 152.922 466.288 145.141V144.363C465.399 135.581 457.618 134.359 447.948 134.359H434.498V154.923Z" fill="#171717"/>
<path d="M497.93 148.476C497.93 145.474 500.375 142.918 503.488 142.918H523.496C526.608 142.918 529.054 145.363 529.054 148.476V197.051C529.054 200.164 526.497 202.609 523.496 202.609C520.495 202.609 517.938 200.052 517.938 197.051V154.034H503.488C500.487 154.034 497.93 151.477 497.93 148.476ZM513.27 125.911V120.798C513.27 117.685 515.826 115.24 518.827 115.24H523.829C526.831 115.24 529.387 117.685 529.387 120.798V125.911C529.387 129.023 526.831 131.469 523.829 131.469H518.827C515.826 131.469 513.27 129.023 513.27 125.911Z" fill="#171717"/>
<path d="M558.917 148.142C558.917 145.141 561.473 142.584 564.475 142.584H573.034L573.256 131.358C573.256 128.134 575.702 125.8 578.814 125.8C581.926 125.8 584.372 128.356 584.372 131.358L584.149 142.584H600.712C603.713 142.584 606.27 145.141 606.27 148.142C606.27 151.143 603.713 153.7 600.712 153.7H583.927L583.594 179.044C583.594 186.491 583.594 191.493 591.264 191.493C593.709 191.382 596.154 190.826 598.266 189.826C599.044 189.493 599.823 189.27 600.712 189.27C603.713 189.27 606.27 191.827 606.27 194.828C606.27 200.497 598.822 202.609 591.93 202.609C588.596 202.609 585.261 202.053 583.149 201.275C575.035 198.163 572.478 190.715 572.478 180.155V178.821L572.811 153.7H564.475C561.473 153.7 558.917 151.143 558.917 148.142Z" fill="#171717"/>
<path d="M628.52 170.707C628.52 153.922 635.634 141.362 652.307 141.362C653.863 141.362 655.531 141.473 657.309 141.695C664.423 142.473 670.537 146.697 672.204 153.478V154.812C672.204 157.924 669.87 160.369 666.758 160.369C664.09 160.369 661.978 158.48 661.422 156.034C660.422 153.478 656.865 152.477 653.308 152.477C650.751 152.477 648.194 153.033 646.305 153.811C641.192 156.257 639.635 163.371 639.635 170.707C639.635 181.156 641.636 192.049 651.751 192.049C652.863 192.049 654.197 191.938 655.531 191.605C658.532 190.938 661.311 189.048 661.978 185.936C662.756 183.712 664.646 181.6 667.425 181.6C670.426 181.6 672.871 184.157 672.871 187.158V188.492C670.759 196.94 662.2 203.165 652.418 203.165C648.75 203.165 644.971 202.276 641.303 200.386C632.077 195.162 628.52 184.824 628.52 170.707Z" fill="#171717"/>
<path d="M692.714 171.93C692.714 154.367 702.385 140.695 720.503 140.695C738.066 140.695 748.293 154.367 748.293 171.93C748.293 189.27 738.288 202.943 720.503 202.943C702.607 202.943 692.714 189.493 692.714 171.93ZM703.83 171.93C703.83 182.934 709.054 191.827 720.503 191.827C731.952 191.827 737.177 182.934 737.177 171.93C737.177 160.814 731.73 151.81 720.503 151.81C709.165 151.81 703.83 160.925 703.83 171.93Z" fill="#171717"/>
<path d="M765.888 148.476C765.888 145.474 768.333 142.918 771.445 142.918H791.454C794.566 142.918 797.012 145.363 797.012 148.476V197.051C797.012 200.164 794.455 202.609 791.454 202.609C788.452 202.609 785.896 200.052 785.896 197.051V154.034H771.445C768.444 154.034 765.888 151.477 765.888 148.476ZM781.227 125.911V120.798C781.227 117.685 783.784 115.24 786.785 115.24H791.787C794.788 115.24 797.345 117.685 797.345 120.798V125.911C797.345 129.023 794.788 131.469 791.787 131.469H786.785C783.784 131.469 781.227 129.023 781.227 125.911Z" fill="#171717"/>
<path d="M826.874 197.051V147.142C826.874 144.141 829.431 141.695 832.432 141.695C835.434 141.695 837.99 144.141 837.99 147.142V148.142C842.659 144.029 848.661 141.25 856.22 141.25C872.893 141.25 879.341 152.811 879.341 169.373V197.051C879.341 200.052 876.673 202.609 873.783 202.609C870.781 202.609 868.225 200.164 868.225 197.051V169.373C868.225 159.369 866.335 152.366 856.22 152.366C846.772 152.366 840.769 160.258 837.99 167.372V197.051C837.99 200.052 835.434 202.609 832.432 202.609C829.431 202.609 826.874 200.052 826.874 197.051Z" fill="#171717"/>
<path d="M423.382 346.075V244.159C423.382 239.742 427.144 235.979 431.561 235.979C435.978 235.979 439.741 239.742 439.741 244.159V284.565L485.055 238.433C486.527 236.961 488.817 235.979 490.944 235.979C495.361 235.979 499.124 239.742 499.124 244.159C499.124 246.285 498.142 248.412 496.67 249.884L454.627 292.908L500.432 340.349C501.905 341.985 502.886 343.948 502.886 346.075C502.886 350.491 499.124 354.254 494.707 354.254C492.58 354.254 490.453 353.436 488.817 351.8L439.741 301.088V346.075C439.741 350.491 435.978 354.254 431.561 354.254C427.144 354.254 423.382 350.491 423.382 346.075Z" fill="#171717"/>
<path d="M521.97 346.565V273.114C521.97 268.697 525.732 265.098 530.149 265.098C534.566 265.098 538.329 268.697 538.329 273.114V274.586C545.199 268.533 554.033 264.444 565.157 264.444C589.696 264.444 599.184 281.457 599.184 305.832V346.565C599.184 350.982 595.258 354.745 591.004 354.745C586.588 354.745 582.825 351.146 582.825 346.565V305.832C582.825 291.109 580.044 280.803 565.157 280.803C551.252 280.803 542.418 292.417 538.329 302.887V346.565C538.329 350.982 534.566 354.745 530.149 354.745C525.732 354.745 521.97 350.982 521.97 346.565Z" fill="#171717"/>
<path d="M623.233 309.594C623.233 283.747 637.465 263.626 664.13 263.626C689.977 263.626 705.027 283.747 705.027 309.594C705.027 335.114 690.304 355.236 664.13 355.236C637.792 355.236 623.233 335.441 623.233 309.594ZM639.592 309.594C639.592 325.79 647.28 338.877 664.13 338.877C680.98 338.877 688.668 325.79 688.668 309.594C688.668 293.235 680.653 279.985 664.13 279.985C647.444 279.985 639.592 293.399 639.592 309.594Z" fill="#171717"/>
<path d="M720.52 274.586C720.52 270.169 724.283 266.407 728.7 266.407H741.296L741.623 249.884C741.623 245.14 745.222 241.705 749.803 241.705C754.383 241.705 757.982 245.467 757.982 249.884L757.655 266.407H782.03C786.447 266.407 790.209 270.169 790.209 274.586C790.209 279.003 786.447 282.766 782.03 282.766H757.328L756.837 320.064C756.837 331.024 756.837 338.386 768.125 338.386C771.724 338.222 775.323 337.404 778.431 335.932C779.576 335.441 780.721 335.114 782.03 335.114C786.447 335.114 790.209 338.877 790.209 343.294C790.209 351.637 779.249 354.745 769.106 354.745C764.199 354.745 759.291 353.927 756.183 352.782C744.241 348.201 740.478 337.241 740.478 321.7V319.737L740.969 282.766H728.7C724.283 282.766 720.52 279.003 720.52 274.586Z" fill="#171717"/>
<path d="M814.704 336.75C814.704 332.17 818.466 328.571 822.883 328.571C828.772 328.571 830.245 334.623 834.171 336.75C838.26 338.713 843.495 338.877 849.057 338.877C857.4 338.386 868.034 337.241 868.034 328.243C868.034 322.191 861.163 320.555 856.255 319.246C838.26 314.502 815.685 311.721 815.685 288.982C815.685 270.66 831.553 263.626 849.057 263.626H854.128C866.07 264.28 877.849 270.169 880.794 281.293C880.957 282.111 881.121 282.766 881.121 283.42C881.121 287.837 877.358 291.599 872.941 291.599C869.015 291.599 865.743 288.982 864.925 285.547C863.78 280.966 858.218 280.312 853.311 279.985H849.057C841.532 279.985 832.044 280.639 832.044 288.982C832.044 295.198 837.115 297.325 842.023 298.634C860.181 303.378 884.393 305.504 884.393 328.243C884.393 347.547 867.87 354.745 849.057 355.236H847.421C832.208 355.236 821.738 350.819 815.685 341.003C814.867 339.695 814.704 338.222 814.704 336.75Z" fill="#171717"/>
</svg>
