<svg width="1024" height="397" viewBox="0 0 1024 397" fill="none" xmlns="http://www.w3.org/2000/svg">
<rect width="1024" height="395.641" transform="translate(0 0.405273)" fill="#171717"/>
<path d="M212.504 255.568C209.052 242.584 193.518 233.19 185.864 222.517C174.802 207.094 175.114 186.145 188.51 169.79C192.404 174.151 193.339 175.011 198.634 179.914C189.417 191.486 188.705 202.614 195.152 212.809C204.531 227.639 223.459 235.546 226.544 255.305C226.544 255.305 219.535 255.461 212.504 255.568Z" fill="white"/>
<path d="M242.588 206.239C252.713 214.338 263.21 222.503 262.827 235.364C262.264 254.278 247.518 261.534 227.479 261.847C225.062 261.885 197.884 262.003 197.884 262.003C196.663 269.196 197.027 275.46 199.127 280.924C199.127 280.924 232.831 281.018 232.746 281.018C263.696 281.018 288.667 266.319 288.667 235.364C288.667 216.934 276.701 205.771 260.034 195.491C253.492 199.385 248.04 202.344 242.588 206.239Z" fill="white"/>
<path d="M212.993 222.905C209.855 219.963 205.672 216.207 202.868 212.936C227.507 180.849 257.104 180.381 257.707 156.088C258.026 143.21 246.938 136.054 234.584 133.708C235.679 126.827 235.366 121.823 234.271 116.193C256.634 116.663 279.715 132.144 279.715 156.088C279.715 190.195 242.42 187.606 212.993 222.905Z" fill="white"/>
<path d="M171.758 262.178H161.395L161.402 132.458C161.402 132.458 192.903 132.458 208.311 132.458C209.875 126.985 209.583 121.374 207.818 116.103H130.126V118.01C141.072 126.515 143.067 133.415 143.067 146.249V250.687C143.067 262.215 140.134 271.323 130.126 278.915V280.822C130.126 280.822 159.12 280.791 172.008 280.822C170.831 273.957 170.714 268.858 171.758 262.178Z" fill="white"/>
<path d="M203.08 96.7218C209.975 103.595 214.596 113.334 215.264 123.063C215.899 132.295 212.273 141.8 206.905 149.346C209.962 152.876 213.626 155.983 217.07 158.729C223.846 149.938 227.946 140.03 228.592 128.891C229.779 108.429 219.847 92.3737 202.972 81.6646C191.164 88.875 183.917 97.0333 179.226 109.625C184.138 109.625 189.137 109.615 194.082 109.625C195.802 105.09 199.582 100.117 203.08 96.7218Z" fill="white"/>
<path d="M211.89 287.451C209.659 292.009 206.632 296.812 202.991 300.346C196.095 293.472 191.474 283.422 190.806 273.693C190.172 264.461 191.787 253.627 197.416 244.401C193.834 240.662 190.563 237.703 187.136 234.588C180.412 245.378 178.124 256.726 177.478 267.865C176.342 287.451 186.652 305.005 203.098 315.091C214.055 308.401 222.556 299.636 226.682 287.484C221.769 287.484 216.856 287.484 211.911 287.473L211.89 287.451Z" fill="white"/>
<path d="M232.395 177.651C222.473 170.626 200.128 158.896 193.37 139.338H178.952C184.009 161.011 201.887 174.72 218.164 188.205C222.699 184.219 226.453 181.873 232.395 177.651Z" fill="white"/>
<path d="M347.641 262.654V140.623C347.641 135.334 352.147 130.829 357.435 130.829C362.724 130.829 367.229 135.334 367.229 140.623V189.004L421.487 133.767C423.25 132.004 425.992 130.829 428.538 130.829C433.827 130.829 438.332 135.334 438.332 140.623C438.332 143.169 437.157 145.716 435.394 147.479L385.054 198.994L439.899 255.798C441.662 257.757 442.837 260.108 442.837 262.654C442.837 267.943 438.332 272.448 433.044 272.448C430.497 272.448 427.951 271.468 425.992 269.51L367.229 208.788V262.654C367.229 267.943 362.724 272.448 357.435 272.448C352.147 272.448 347.641 267.943 347.641 262.654Z" fill="white"/>
<path d="M465.688 263.242V175.293C465.688 170.004 470.193 165.695 475.482 165.695C480.77 165.695 485.275 170.004 485.275 175.293V177.056C493.502 169.809 504.079 164.912 517.399 164.912C546.781 164.912 558.141 185.283 558.141 214.468V263.242C558.141 268.53 553.44 273.035 548.348 273.035C543.059 273.035 538.554 268.726 538.554 263.242V214.468C538.554 196.839 535.224 184.499 517.399 184.499C500.75 184.499 490.172 198.407 485.275 210.943V263.242C485.275 268.53 480.77 273.035 475.482 273.035C470.193 273.035 465.688 268.53 465.688 263.242Z" fill="white"/>
<path d="M586.937 218.974C586.937 188.025 603.978 163.932 635.906 163.932C666.855 163.932 684.875 188.025 684.875 218.974C684.875 249.53 667.246 273.623 635.906 273.623C604.37 273.623 586.937 249.922 586.937 218.974ZM606.525 218.974C606.525 238.365 615.731 254.035 635.906 254.035C656.081 254.035 665.288 238.365 665.288 218.974C665.288 199.386 655.69 183.52 635.906 183.52C615.927 183.52 606.525 199.582 606.525 218.974Z" fill="white"/>
<path d="M703.426 177.056C703.426 171.767 707.931 167.262 713.22 167.262H728.302L728.694 147.479C728.694 141.798 733.003 137.685 738.488 137.685C743.973 137.685 748.282 142.19 748.282 147.479L747.89 167.262H777.076C782.364 167.262 786.869 171.767 786.869 177.056C786.869 182.345 782.364 186.85 777.076 186.85H747.498L746.911 231.51C746.911 244.633 746.911 253.448 760.426 253.448C764.735 253.252 769.045 252.273 772.766 250.51C774.137 249.922 775.509 249.53 777.076 249.53C782.364 249.53 786.869 254.035 786.869 259.324C786.869 269.314 773.746 273.035 761.601 273.035C755.725 273.035 749.849 272.056 746.127 270.685C731.828 265.2 727.323 252.077 727.323 233.468V231.118L727.911 186.85H713.22C707.931 186.85 703.426 182.345 703.426 177.056Z" fill="white"/>
<path d="M816.198 251.489C816.198 246.005 820.703 241.695 825.992 241.695C833.043 241.695 834.806 248.943 839.507 251.489C844.404 253.84 850.672 254.035 857.332 254.035C867.322 253.448 880.054 252.077 880.054 241.303C880.054 234.056 871.827 232.097 865.951 230.53C844.404 224.85 817.373 221.52 817.373 194.293C817.373 172.355 836.373 163.932 857.332 163.932H863.404C877.703 164.716 891.806 171.767 895.332 185.087C895.528 186.066 895.724 186.85 895.724 187.633C895.724 192.922 891.219 197.427 885.93 197.427C881.229 197.427 877.312 194.293 876.332 190.18C874.961 184.695 868.301 183.912 862.425 183.52H857.332C848.322 183.52 836.961 184.303 836.961 194.293C836.961 201.736 843.033 204.283 848.909 205.85C870.652 211.53 899.641 214.077 899.641 241.303C899.641 264.417 879.858 273.035 857.332 273.623H855.373C837.157 273.623 824.621 268.334 817.373 256.582C816.394 255.015 816.198 253.252 816.198 251.489Z" fill="white"/>
</svg>
