<svg width="1024" height="457" viewBox="0 0 1024 457" fill="none" xmlns="http://www.w3.org/2000/svg">
<path d="M202.259 191.758C193.834 182.508 190.483 174.771 189.108 169.935H201.315C207.571 184.012 223.665 198.46 238.965 205.638C236.675 207.267 234.24 208.682 231.691 209.864C229.183 211.088 227.694 211.798 226.827 212.201C223.77 210.56 214.63 205.019 202.25 191.777L202.259 191.758ZM240.936 158.522C240.928 161.282 240.641 164.034 240.079 166.736C268.768 173.772 270.721 196.31 244.364 209.823C228.734 217.839 222.821 219.306 214.186 227.988C215.12 229.565 216.229 231.034 217.49 232.365C218.866 233.882 220.997 236.458 222.532 238.324C230.526 228.872 247.344 222.203 261.539 215.827C308.449 194.742 280.791 146.939 239.726 148.603C240.562 151.842 240.969 155.177 240.936 158.522ZM232.034 273.004C232.621 272.921 233.125 272.843 233.556 272.765C229.5 251.195 219.993 245.827 209.721 231.755C202.731 218.71 205.82 208.31 207.374 204.606C206.169 203.492 204.496 201.92 202.901 200.33C201.223 198.652 199.875 197.231 198.895 196.177C188.462 210.029 191.808 228.845 200.293 239.91C208.763 250.75 216.908 253.45 220.69 273.627C223.17 273.591 228.693 273.462 232.034 273.004ZM142.951 299.057L182.077 298.97C181.461 295.63 181.145 292.241 181.133 288.845C181.063 285.418 181.293 281.992 181.82 278.605C179.529 277.913 177.929 276.437 177.929 272.921V170.742C178.538 163.243 183.47 164.568 200.893 164.568C210.06 164.568 210.12 164.797 214.832 164.765C215.36 162.129 215.621 159.446 215.611 156.757C215.608 154.168 215.328 151.587 214.777 149.057H209.689C197.056 149.098 156.17 149.057 141.997 149.057C141.997 149.057 159.489 155.08 159.489 164.458V282.9C159.489 290.124 142.951 299.057 142.951 299.057ZM258.996 223.166C256.245 224.275 254.169 225.265 252.812 225.957C273.746 237.806 277.944 270.304 245.515 276.836C236.384 279.485 217.66 279.389 206.137 279.311C205.848 280.342 205.257 283.225 205.362 289.207C205.467 295.074 206.343 298.168 206.586 298.924H235.188C290.678 300.093 319.743 247.752 270.354 218.124C268.556 219.036 261.973 221.969 258.996 223.166ZM201.361 143.74C204.051 136.713 210.432 131.043 210.432 131.043C222.349 140.288 226.364 165.641 213.961 179.016C215.336 180.9 216.848 182.681 218.485 184.342C219.789 185.61 221.176 186.789 222.638 187.871C247.183 160.644 231.636 131.419 210.432 118.085C210.432 118.085 195.727 127.009 189.108 143.754L201.361 143.74ZM219.645 304.37C216.867 311.277 210.592 316.98 210.592 316.98C198.702 306.364 197.79 290.921 200.485 275.209C201.521 265.963 204.61 259.652 207.127 255.696C206.267 254.625 205.337 253.611 204.344 252.661C202.891 251.25 200.618 248.852 198.968 247.092C179.542 279.247 184.03 314.743 210.427 331.125C210.427 331.125 225.7 323.062 233.043 304.37H219.645Z" fill="#171717"/>
<path d="M343.705 286.082V169.483C343.705 164.43 348.009 160.125 353.063 160.125C358.116 160.125 362.42 164.43 362.42 169.483V215.711L414.263 162.933C415.947 161.248 418.567 160.125 421 160.125C426.053 160.125 430.358 164.43 430.358 169.483C430.358 171.916 429.235 174.349 427.551 176.034L379.452 225.256L431.855 279.531C433.54 281.403 434.663 283.648 434.663 286.082C434.663 291.135 430.358 295.439 425.305 295.439C422.872 295.439 420.439 294.504 418.567 292.632L362.42 234.614V286.082C362.42 291.135 358.116 295.439 353.063 295.439C348.009 295.439 343.705 291.135 343.705 286.082Z" fill="#171717"/>
<path d="M456.495 286.643V202.61C456.495 197.557 460.8 193.439 465.853 193.439C470.906 193.439 475.211 197.557 475.211 202.61V204.294C483.072 197.37 493.178 192.691 505.905 192.691C533.978 192.691 544.833 212.155 544.833 240.041V286.643C544.833 291.696 540.341 296.001 535.475 296.001C530.422 296.001 526.117 291.883 526.117 286.643V240.041C526.117 223.197 522.936 211.406 505.905 211.406C489.996 211.406 479.89 224.694 475.211 236.672V286.643C475.211 291.696 470.906 296.001 465.853 296.001C460.8 296.001 456.495 291.696 456.495 286.643Z" fill="#171717"/>
<path d="M572.347 244.346C572.347 214.775 588.629 191.755 619.136 191.755C648.706 191.755 665.925 214.775 665.925 244.346C665.925 273.542 649.081 296.562 619.136 296.562C589.003 296.562 572.347 273.916 572.347 244.346ZM591.062 244.346C591.062 262.874 599.859 277.847 619.136 277.847C638.413 277.847 647.209 262.874 647.209 244.346C647.209 225.63 638.038 210.47 619.136 210.47C600.046 210.47 591.062 225.817 591.062 244.346Z" fill="#171717"/>
<path d="M683.65 204.294C683.65 199.241 687.954 194.937 693.007 194.937H707.418L707.793 176.034C707.793 170.606 711.91 166.676 717.151 166.676C722.391 166.676 726.508 170.981 726.508 176.034L726.134 194.937H754.02C759.074 194.937 763.378 199.241 763.378 204.294C763.378 209.348 759.074 213.652 754.02 213.652H725.76L725.198 256.324C725.198 268.863 725.198 277.285 738.112 277.285C742.229 277.098 746.347 276.162 749.903 274.478C751.213 273.916 752.523 273.542 754.02 273.542C759.074 273.542 763.378 277.847 763.378 282.9C763.378 292.445 750.839 296.001 739.235 296.001C733.62 296.001 728.006 295.065 724.45 293.755C710.787 288.515 706.483 275.975 706.483 258.195V255.949L707.044 213.652H693.007C687.954 213.652 683.65 209.348 683.65 204.294Z" fill="#171717"/>
<path d="M791.401 275.414C791.401 270.173 795.706 266.056 800.759 266.056C807.496 266.056 809.181 272.981 813.673 275.414C818.351 277.66 824.34 277.847 830.704 277.847C840.249 277.285 852.414 275.975 852.414 265.681C852.414 258.757 844.553 256.885 838.939 255.388C818.351 249.96 792.524 246.779 792.524 220.764C792.524 199.803 810.678 191.755 830.704 191.755H836.506C850.168 192.504 863.643 199.241 867.012 211.968C867.199 212.903 867.386 213.652 867.386 214.401C867.386 219.454 863.082 223.759 858.029 223.759C853.537 223.759 849.794 220.764 848.858 216.834C847.548 211.593 841.184 210.845 835.57 210.47H830.704C822.095 210.47 811.239 211.219 811.239 220.764C811.239 227.876 817.041 230.309 822.656 231.806C843.43 237.234 871.129 239.667 871.129 265.681C871.129 287.766 852.227 296.001 830.704 296.562H828.832C811.427 296.562 799.449 291.509 792.524 280.28C791.588 278.782 791.401 277.098 791.401 275.414Z" fill="#171717"/>
</svg>
