<svg width="1024" height="457" viewBox="0 0 1024 457" fill="none" xmlns="http://www.w3.org/2000/svg">
<path d="M205.647 177.827C192.696 163.608 187.546 151.715 185.432 144.282H204.195C213.813 165.919 238.55 188.128 262.069 199.161C258.549 201.666 254.806 203.84 250.887 205.657C247.033 207.539 244.743 208.631 243.412 209.251C238.712 206.728 224.663 198.21 205.632 177.855L205.647 177.827ZM265.099 126.738C265.086 130.98 264.645 135.21 263.781 139.364C307.881 150.179 310.882 184.823 270.369 205.594C246.343 217.917 237.254 220.172 223.98 233.516C225.416 235.942 227.12 238.199 229.06 240.245C231.173 242.577 234.45 246.537 236.81 249.405C249.098 234.876 274.949 224.625 296.769 214.824C368.876 182.413 326.362 108.933 263.239 111.491C264.523 116.47 265.149 121.596 265.099 126.738ZM251.416 302.713C252.318 302.586 253.093 302.466 253.755 302.346C247.519 269.189 232.907 260.938 217.117 239.308C206.372 219.256 211.121 203.269 213.51 197.576C211.657 195.864 209.085 193.447 206.633 191.002C204.054 188.423 201.983 186.239 200.475 184.619C184.439 205.911 189.582 234.834 202.624 251.842C215.644 268.506 228.165 272.656 233.978 303.671C237.789 303.615 246.279 303.417 251.416 302.713ZM114.481 342.761L174.624 342.627C173.678 337.493 173.192 332.284 173.173 327.063C173.065 321.795 173.419 316.529 174.229 311.323C170.707 310.259 168.248 307.99 168.248 302.586V145.522C169.185 133.995 176.766 136.031 203.547 136.031C217.638 136.031 217.73 136.383 224.973 136.334C225.784 132.282 226.185 128.158 226.171 124.025C226.166 120.045 225.736 116.077 224.888 112.188H217.068C197.65 112.252 134.801 112.188 113.016 112.188C113.016 112.188 139.902 121.446 139.902 135.862V317.925C139.902 329.029 114.481 342.761 114.481 342.761ZM292.859 226.104C288.631 227.809 285.44 229.331 283.354 230.395C315.532 248.608 321.986 298.563 272.137 308.603C258.102 312.675 229.32 312.527 211.607 312.408C211.163 313.993 210.254 318.425 210.416 327.62C210.579 336.638 211.924 341.394 212.298 342.557H256.263C341.559 344.353 386.236 263.898 310.318 218.354C307.555 219.756 297.435 224.265 292.859 226.104ZM204.266 104.015C208.401 93.2141 218.209 84.4984 218.209 84.4984C236.528 98.7098 242.7 137.68 223.634 158.239C225.747 161.136 228.072 163.873 230.588 166.427C232.593 168.376 234.725 170.188 236.972 171.852C274.702 130 250.803 85.0762 218.209 64.5801C218.209 64.5801 195.606 78.2982 185.432 104.036L204.266 104.015ZM232.371 350.927C228.101 361.545 218.456 370.31 218.456 370.31C200.179 353.992 198.777 330.255 202.92 306.102C204.512 291.89 209.261 282.188 213.129 276.108C211.807 274.461 210.379 272.903 208.852 271.444C206.619 269.274 203.124 265.589 200.588 262.883C170.728 312.309 177.625 366.871 218.202 392.053C218.202 392.053 241.679 379.66 252.966 350.927H232.371Z" fill="white"/>
<path d="M410.4 185.755V121.028C410.4 118.007 412.774 115.634 415.794 115.634H434.242C440.499 115.634 446.864 115.741 452.366 118.762C458.946 122.538 462.722 129.766 462.722 137.102C462.722 142.496 460.672 147.89 456.249 151.773C461.32 155.765 464.232 161.914 464.34 168.495C464.34 175.183 461.427 181.656 456.033 185.755C449.992 190.502 442.009 191.149 434.242 191.149H415.794C412.882 191.149 410.4 188.776 410.4 185.755ZM421.188 180.361H434.242C443.627 180.361 453.552 178.42 453.552 168.495C453.336 160.188 446.001 157.167 437.37 157.167H421.188V180.361ZM421.188 146.379H437.37C444.706 146.379 452.042 144.437 452.042 136.886V136.131C451.179 127.608 443.627 126.422 434.242 126.422H421.188V146.379Z" fill="white"/>
<path d="M482.751 140.122C482.751 137.209 485.124 134.728 488.145 134.728H507.563C510.584 134.728 512.957 137.102 512.957 140.122V187.266C512.957 190.286 510.476 192.66 507.563 192.66C504.65 192.66 502.169 190.178 502.169 187.266V145.516H488.145C485.232 145.516 482.751 143.035 482.751 140.122ZM497.638 118.223V113.26C497.638 110.24 500.119 107.866 503.032 107.866H507.887C510.799 107.866 513.28 110.24 513.28 113.26V118.223C513.28 121.243 510.799 123.617 507.887 123.617H503.032C500.119 123.617 497.638 121.243 497.638 118.223Z" fill="white"/>
<path d="M541.939 139.799C541.939 136.886 544.421 134.405 547.333 134.405H555.64L555.856 123.509C555.856 120.38 558.229 118.115 561.25 118.115C564.27 118.115 566.644 120.596 566.644 123.509L566.428 134.405H582.502C585.415 134.405 587.896 136.886 587.896 139.799C587.896 142.711 585.415 145.193 582.502 145.193H566.212L565.889 169.789C565.889 177.017 565.889 181.872 573.332 181.872C575.706 181.764 578.079 181.224 580.129 180.253C580.884 179.93 581.639 179.714 582.502 179.714C585.415 179.714 587.896 182.195 587.896 185.108C587.896 190.61 580.668 192.66 573.98 192.66C570.743 192.66 567.507 192.12 565.457 191.365C557.582 188.344 555.101 181.117 555.101 170.868V169.573L555.424 145.193H547.333C544.421 145.193 541.939 142.711 541.939 139.799Z" fill="white"/>
<path d="M609.49 161.698C609.49 145.408 616.394 133.218 632.576 133.218C634.087 133.218 635.705 133.326 637.431 133.542C644.335 134.297 650.269 138.396 651.887 144.977V146.271C651.887 149.292 649.621 151.665 646.601 151.665C644.012 151.665 641.962 149.831 641.423 147.458C640.452 144.977 636.999 144.006 633.547 144.006C631.066 144.006 628.585 144.545 626.751 145.3C621.788 147.674 620.278 154.578 620.278 161.698C620.278 171.839 622.22 182.411 632.037 182.411C633.116 182.411 634.41 182.303 635.705 181.98C638.618 181.332 641.315 179.498 641.962 176.478C642.717 174.32 644.551 172.27 647.248 172.27C650.161 172.27 652.534 174.752 652.534 177.664V178.959C650.484 187.158 642.178 193.199 632.684 193.199C629.124 193.199 625.456 192.336 621.896 190.502C612.942 185.432 609.49 175.399 609.49 161.698Z" fill="white"/>
<path d="M671.792 162.885C671.792 145.84 681.177 132.571 698.762 132.571C715.807 132.571 725.732 145.84 725.732 162.885C725.732 179.714 716.023 192.983 698.762 192.983C681.393 192.983 671.792 179.93 671.792 162.885ZM682.58 162.885C682.58 173.565 687.65 182.195 698.762 182.195C709.873 182.195 714.944 173.565 714.944 162.885C714.944 152.097 709.658 143.359 698.762 143.359C687.758 143.359 682.58 152.205 682.58 162.885Z" fill="white"/>
<path d="M742.808 140.122C742.808 137.209 745.181 134.728 748.202 134.728H767.62C770.641 134.728 773.014 137.102 773.014 140.122V187.266C773.014 190.286 770.533 192.66 767.62 192.66C764.708 192.66 762.226 190.178 762.226 187.266V145.516H748.202C745.289 145.516 742.808 143.035 742.808 140.122ZM757.695 118.223V113.26C757.695 110.24 760.177 107.866 763.089 107.866H767.944C770.857 107.866 773.338 110.24 773.338 113.26V118.223C773.338 121.243 770.857 123.617 767.944 123.617H763.089C760.177 123.617 757.695 121.243 757.695 118.223Z" fill="white"/>
<path d="M801.997 187.266V138.828C801.997 135.915 804.478 133.542 807.391 133.542C810.304 133.542 812.785 135.915 812.785 138.828V139.799C817.316 135.807 823.141 133.11 830.477 133.11C846.659 133.11 852.916 144.33 852.916 160.404V187.266C852.916 190.178 850.327 192.66 847.522 192.66C844.609 192.66 842.128 190.286 842.128 187.266V160.404C842.128 150.694 840.294 143.898 830.477 143.898C821.307 143.898 815.482 151.557 812.785 158.462V187.266C812.785 190.178 810.304 192.66 807.391 192.66C804.478 192.66 801.997 190.178 801.997 187.266Z" fill="white"/>
<path d="M410.4 332.87V233.959C410.4 229.672 414.052 226.02 418.339 226.02C422.625 226.02 426.277 229.672 426.277 233.959V273.174L470.255 228.402C471.684 226.973 473.907 226.02 475.971 226.02C480.257 226.02 483.909 229.672 483.909 233.959C483.909 236.023 482.956 238.087 481.528 239.516L440.725 281.271L485.179 327.313C486.608 328.901 487.561 330.806 487.561 332.87C487.561 337.157 483.909 340.808 479.622 340.808C477.558 340.808 475.494 340.014 473.907 338.427L426.277 289.209V332.87C426.277 337.157 422.625 340.808 418.339 340.808C414.052 340.808 410.4 337.157 410.4 332.87Z" fill="white"/>
<path d="M506.082 333.346V262.06C506.082 257.774 509.733 254.281 514.02 254.281C518.307 254.281 521.958 257.774 521.958 262.06V263.489C528.626 257.615 537.2 253.646 547.996 253.646C571.811 253.646 581.019 270.157 581.019 293.813V333.346C581.019 337.633 577.209 341.285 573.081 341.285C568.794 341.285 565.143 337.792 565.143 333.346V293.813C565.143 279.525 562.444 269.522 547.996 269.522C534.501 269.522 525.927 280.795 521.958 290.956V333.346C521.958 337.633 518.307 341.285 514.02 341.285C509.733 341.285 506.082 337.633 506.082 333.346Z" fill="white"/>
<path d="M604.359 297.465C604.359 272.38 618.172 252.852 644.051 252.852C669.136 252.852 683.742 272.38 683.742 297.465C683.742 322.233 669.453 341.761 644.051 341.761C618.489 341.761 604.359 322.55 604.359 297.465ZM620.236 297.465C620.236 313.183 627.698 325.884 644.051 325.884C660.404 325.884 667.866 313.183 667.866 297.465C667.866 281.589 660.086 268.728 644.051 268.728C627.857 268.728 620.236 281.747 620.236 297.465Z" fill="white"/>
<path d="M698.778 263.489C698.778 259.202 702.43 255.551 706.717 255.551H718.942L719.259 239.516C719.259 234.911 722.752 231.577 727.198 231.577C731.643 231.577 735.136 235.229 735.136 239.516L734.818 255.551H758.475C762.761 255.551 766.413 259.202 766.413 263.489C766.413 267.776 762.761 271.427 758.475 271.427H734.501L734.025 307.626C734.025 318.263 734.024 325.408 744.979 325.408C748.472 325.249 751.965 324.455 754.982 323.026C756.093 322.55 757.204 322.233 758.475 322.233C762.761 322.233 766.413 325.884 766.413 330.171C766.413 338.268 755.775 341.285 745.932 341.285C741.169 341.285 736.406 340.491 733.389 339.379C721.8 334.934 718.148 324.297 718.148 309.214V307.309L718.624 271.427H706.717C702.43 271.427 698.778 267.776 698.778 263.489Z" fill="white"/>
<path d="M790.185 323.82C790.185 319.375 793.836 315.882 798.123 315.882C803.839 315.882 805.268 321.756 809.078 323.82C813.047 325.725 818.128 325.884 823.526 325.884C831.623 325.408 841.943 324.297 841.943 315.564C841.943 309.69 835.274 308.102 830.511 306.832C813.047 302.228 791.137 299.529 791.137 277.461C791.137 259.679 806.538 252.852 823.526 252.852H828.447C840.037 253.487 851.469 259.202 854.326 269.999C854.485 270.792 854.644 271.427 854.644 272.063C854.644 276.349 850.992 280.001 846.706 280.001C842.895 280.001 839.72 277.461 838.926 274.126C837.815 269.681 832.417 269.046 827.654 268.728H823.526C816.222 268.728 807.014 269.364 807.014 277.461C807.014 283.494 811.936 285.558 816.699 286.828C834.322 291.432 857.819 293.496 857.819 315.564C857.819 334.299 841.784 341.285 823.526 341.761H821.938C807.173 341.761 797.012 337.474 791.137 327.948C790.344 326.678 790.185 325.249 790.185 323.82Z" fill="white"/>
</svg>
