<svg width="1024" height="476" viewBox="0 0 1024 476" fill="none" xmlns="http://www.w3.org/2000/svg">
<path d="M246.379 321.55C241.336 302.578 218.637 288.85 207.451 273.255C191.288 250.718 191.743 220.107 211.318 196.208C217.008 202.581 218.375 203.838 226.112 211.003C212.643 227.911 211.603 244.172 221.024 259.069C234.729 280.74 262.387 292.294 266.896 321.166C266.896 321.166 256.653 321.394 246.379 321.55Z" fill="white"/>
<path d="M290.34 249.469C305.134 261.304 320.473 273.235 319.913 292.028C319.09 319.665 297.543 330.269 268.261 330.726C264.729 330.781 225.015 330.953 225.015 330.953C223.232 341.465 223.763 350.617 226.832 358.602C226.832 358.602 276.081 358.74 275.958 358.74C321.183 358.74 357.671 337.261 357.671 292.028C357.671 265.097 340.186 248.786 315.832 233.764C306.272 239.454 298.306 243.779 290.34 249.469Z" fill="white"/>
<path d="M247.094 273.823C242.508 269.524 236.396 264.036 232.299 259.256C268.302 212.368 311.55 211.686 312.431 176.187C312.898 157.37 296.696 146.913 278.644 143.485C280.243 133.43 279.786 126.118 278.187 117.892C310.864 118.577 344.591 141.2 344.591 176.187C344.591 226.025 290.094 222.243 247.094 273.823Z" fill="white"/>
<path d="M186.839 331.209H171.697L171.707 141.659C171.707 141.659 217.738 141.659 240.252 141.659C242.538 133.661 242.11 125.461 239.531 117.76H126.005V120.546C142.001 132.973 144.916 143.056 144.916 161.81V314.419C144.916 331.264 140.63 344.573 126.005 355.667V358.453C126.005 358.453 168.373 358.407 187.205 358.453C185.485 348.422 185.315 340.971 186.839 331.209Z" fill="white"/>
<path d="M232.609 89.4394C242.684 99.4834 249.437 113.714 250.413 127.929C251.34 141.42 246.041 155.309 238.198 166.336C242.665 171.494 248.019 176.034 253.051 180.046C262.952 167.201 268.944 152.723 269.888 136.446C271.622 106.547 257.109 83.0859 232.451 67.4373C215.196 77.9734 204.607 89.8946 197.752 108.294C204.93 108.294 212.234 108.279 219.46 108.294C221.973 101.668 227.497 94.4 232.609 89.4394Z" fill="white"/>
<path d="M245.481 368.14C242.223 374.8 237.799 381.818 232.478 386.982C222.402 376.938 215.65 362.252 214.674 348.037C213.747 334.546 216.106 318.715 224.333 305.233C219.098 299.771 214.318 295.446 209.31 290.894C199.484 306.661 196.143 323.243 195.199 339.52C193.539 368.14 208.603 393.791 232.635 408.529C248.646 398.752 261.067 385.946 267.096 368.187C259.918 368.187 252.739 368.188 245.513 368.172L245.481 368.14Z" fill="white"/>
<path d="M275.445 207.696C260.946 197.431 228.295 180.29 218.42 151.711H197.352C204.741 183.381 230.865 203.413 254.65 223.118C261.277 217.294 266.761 213.866 275.445 207.696Z" fill="white"/>
<path d="M423.382 195.518V128.824C423.382 125.711 425.827 123.266 428.94 123.266H447.948C454.395 123.266 460.953 123.377 466.622 126.49C473.402 130.38 477.293 137.828 477.293 145.386C477.293 150.944 475.181 156.502 470.624 160.504C475.848 164.616 478.849 170.952 478.96 177.733C478.96 184.625 475.959 191.294 470.401 195.518C464.176 200.409 455.951 201.076 447.948 201.076H428.94C425.938 201.076 423.382 198.63 423.382 195.518ZM434.498 189.96H447.948C457.618 189.96 467.845 187.959 467.845 177.733C467.622 169.174 460.064 166.061 451.171 166.061H434.498V189.96ZM434.498 154.946H451.171C458.73 154.946 466.288 152.945 466.288 145.164V144.386C465.399 135.604 457.618 134.382 447.948 134.382H434.498V154.946Z" fill="white"/>
<path d="M497.93 148.499C497.93 145.497 500.375 142.941 503.488 142.941H523.496C526.608 142.941 529.054 145.386 529.054 148.499V197.074C529.054 200.187 526.497 202.632 523.496 202.632C520.495 202.632 517.938 200.075 517.938 197.074V154.056H503.488C500.487 154.056 497.93 151.5 497.93 148.499ZM513.27 125.934V120.821C513.27 117.708 515.826 115.263 518.827 115.263H523.829C526.831 115.263 529.387 117.708 529.387 120.821V125.934C529.387 129.046 526.831 131.492 523.829 131.492H518.827C515.826 131.492 513.27 129.046 513.27 125.934Z" fill="white"/>
<path d="M558.917 148.165C558.917 145.164 561.473 142.607 564.475 142.607H573.034L573.256 131.38C573.256 128.157 575.702 125.823 578.814 125.823C581.926 125.823 584.372 128.379 584.372 131.38L584.149 142.607H600.712C603.713 142.607 606.27 145.164 606.27 148.165C606.27 151.166 603.713 153.723 600.712 153.723H583.927L583.594 179.067C583.594 186.514 583.594 191.516 591.264 191.516C593.709 191.405 596.154 190.849 598.266 189.849C599.044 189.516 599.823 189.293 600.712 189.293C603.713 189.293 606.27 191.85 606.27 194.851C606.27 200.52 598.822 202.632 591.93 202.632C588.596 202.632 585.261 202.076 583.149 201.298C575.035 198.186 572.478 190.738 572.478 180.178V178.844L572.811 153.723H564.475C561.473 153.723 558.917 151.166 558.917 148.165Z" fill="white"/>
<path d="M628.52 170.73C628.52 153.945 635.634 141.385 652.307 141.385C653.863 141.385 655.531 141.496 657.309 141.718C664.423 142.496 670.537 146.72 672.204 153.501V154.835C672.204 157.947 669.87 160.392 666.758 160.392C664.09 160.392 661.978 158.503 661.422 156.057C660.422 153.501 656.865 152.5 653.308 152.5C650.751 152.5 648.194 153.056 646.305 153.834C641.192 156.28 639.635 163.394 639.635 170.73C639.635 181.179 641.636 192.072 651.751 192.072C652.863 192.072 654.197 191.961 655.531 191.628C658.532 190.961 661.311 189.071 661.978 185.958C662.756 183.735 664.646 181.623 667.425 181.623C670.426 181.623 672.871 184.18 672.871 187.181V188.515C670.759 196.963 662.2 203.188 652.418 203.188C648.75 203.188 644.971 202.299 641.303 200.409C632.077 195.185 628.52 184.847 628.52 170.73Z" fill="white"/>
<path d="M692.714 171.953C692.714 154.39 702.385 140.718 720.503 140.718C738.066 140.718 748.293 154.39 748.293 171.953C748.293 189.293 738.288 202.966 720.503 202.966C702.607 202.966 692.714 189.516 692.714 171.953ZM703.83 171.953C703.83 182.957 709.054 191.85 720.503 191.85C731.952 191.85 737.177 182.957 737.177 171.953C737.177 160.837 731.73 151.833 720.503 151.833C709.165 151.833 703.83 160.948 703.83 171.953Z" fill="white"/>
<path d="M765.888 148.499C765.888 145.497 768.333 142.941 771.445 142.941H791.454C794.566 142.941 797.012 145.386 797.012 148.499V197.074C797.012 200.187 794.455 202.632 791.454 202.632C788.452 202.632 785.896 200.075 785.896 197.074V154.056H771.445C768.444 154.056 765.888 151.5 765.888 148.499ZM781.227 125.934V120.821C781.227 117.708 783.784 115.263 786.785 115.263H791.787C794.788 115.263 797.345 117.708 797.345 120.821V125.934C797.345 129.046 794.788 131.492 791.787 131.492H786.785C783.784 131.492 781.227 129.046 781.227 125.934Z" fill="white"/>
<path d="M826.874 197.074V147.165C826.874 144.164 829.431 141.718 832.432 141.718C835.434 141.718 837.99 144.164 837.99 147.165V148.165C842.659 144.052 848.661 141.273 856.22 141.273C872.893 141.273 879.341 152.834 879.341 169.396V197.074C879.341 200.075 876.673 202.632 873.783 202.632C870.781 202.632 868.225 200.187 868.225 197.074V169.396C868.225 159.392 866.335 152.389 856.22 152.389C846.772 152.389 840.769 160.281 837.99 167.395V197.074C837.99 200.075 835.434 202.632 832.432 202.632C829.431 202.632 826.874 200.075 826.874 197.074Z" fill="white"/>
<path d="M423.382 346.098V244.182C423.382 239.765 427.144 236.002 431.561 236.002C435.978 236.002 439.741 239.765 439.741 244.182V284.588L485.055 238.456C486.527 236.984 488.817 236.002 490.944 236.002C495.361 236.002 499.124 239.765 499.124 244.182C499.124 246.308 498.142 248.435 496.67 249.907L454.627 292.931L500.432 340.372C501.905 342.008 502.886 343.971 502.886 346.098C502.886 350.514 499.124 354.277 494.707 354.277C492.58 354.277 490.453 353.459 488.817 351.823L439.741 301.111V346.098C439.741 350.514 435.978 354.277 431.561 354.277C427.144 354.277 423.382 350.514 423.382 346.098Z" fill="white"/>
<path d="M521.97 346.588V273.137C521.97 268.72 525.732 265.121 530.149 265.121C534.566 265.121 538.329 268.72 538.329 273.137V274.609C545.199 268.556 554.033 264.467 565.157 264.467C589.696 264.467 599.184 281.48 599.184 305.855V346.588C599.184 351.005 595.258 354.768 591.004 354.768C586.588 354.768 582.825 351.169 582.825 346.588V305.855C582.825 291.132 580.044 280.825 565.157 280.825C551.252 280.825 542.418 292.44 538.329 302.91V346.588C538.329 351.005 534.566 354.768 530.149 354.768C525.732 354.768 521.97 351.005 521.97 346.588Z" fill="white"/>
<path d="M623.233 309.617C623.233 283.77 637.465 263.649 664.13 263.649C689.977 263.649 705.027 283.77 705.027 309.617C705.027 335.137 690.304 355.259 664.13 355.259C637.792 355.259 623.233 335.464 623.233 309.617ZM639.592 309.617C639.592 325.812 647.28 338.9 664.13 338.9C680.98 338.9 688.668 325.812 688.668 309.617C688.668 293.258 680.653 280.008 664.13 280.008C647.444 280.008 639.592 293.422 639.592 309.617Z" fill="white"/>
<path d="M720.52 274.609C720.52 270.192 724.283 266.43 728.7 266.43H741.296L741.623 249.907C741.623 245.163 745.222 241.728 749.803 241.728C754.383 241.728 757.982 245.49 757.982 249.907L757.655 266.43H782.03C786.447 266.43 790.209 270.192 790.209 274.609C790.209 279.026 786.447 282.789 782.03 282.789H757.328L756.837 320.087C756.837 331.047 756.837 338.409 768.125 338.409C771.724 338.245 775.323 337.427 778.431 335.955C779.576 335.464 780.721 335.137 782.03 335.137C786.447 335.137 790.209 338.9 790.209 343.317C790.209 351.66 779.249 354.768 769.106 354.768C764.199 354.768 759.291 353.95 756.183 352.805C744.241 348.224 740.478 337.264 740.478 321.723V319.76L740.969 282.789H728.7C724.283 282.789 720.52 279.026 720.52 274.609Z" fill="white"/>
<path d="M814.704 336.773C814.704 332.192 818.466 328.594 822.883 328.594C828.772 328.594 830.245 334.646 834.171 336.773C838.26 338.736 843.495 338.9 849.057 338.9C857.4 338.409 868.034 337.264 868.034 328.266C868.034 322.214 861.163 320.578 856.255 319.269C838.26 314.525 815.685 311.744 815.685 289.005C815.685 270.683 831.553 263.649 849.057 263.649H854.128C866.07 264.303 877.849 270.192 880.794 281.316C880.957 282.134 881.121 282.789 881.121 283.443C881.121 287.86 877.358 291.622 872.941 291.622C869.015 291.622 865.743 289.005 864.925 285.57C863.78 280.989 858.218 280.335 853.311 280.008H849.057C841.532 280.008 832.044 280.662 832.044 289.005C832.044 295.221 837.115 297.348 842.023 298.657C860.181 303.401 884.393 305.527 884.393 328.266C884.393 347.57 867.87 354.768 849.057 355.259H847.421C832.208 355.259 821.738 350.842 815.685 341.026C814.867 339.718 814.704 338.245 814.704 336.773Z" fill="white"/>
</svg>
