<svg width="1024" height="476" viewBox="0 0 1024 476" fill="none" xmlns="http://www.w3.org/2000/svg">
<rect width="1024" height="475.382" transform="translate(0 0.0234375)" fill="#171717"/>
<path d="M246.379 321.504C241.336 302.531 218.637 288.804 207.451 273.208C191.288 250.672 191.743 220.061 211.318 196.162C217.008 202.535 218.375 203.792 226.112 210.956C212.643 227.865 211.603 244.126 221.024 259.023C234.729 280.693 262.387 292.247 266.896 321.12C266.896 321.12 256.653 321.347 246.379 321.504Z" fill="white"/>
<path d="M290.34 249.422C305.134 261.258 320.473 273.188 319.913 291.981C319.09 319.619 297.543 330.222 268.261 330.679C264.729 330.734 225.015 330.907 225.015 330.907C223.232 341.418 223.763 350.571 226.832 358.555C226.832 358.555 276.081 358.693 275.958 358.693C321.183 358.693 357.671 337.214 357.671 291.981C357.671 265.051 340.186 248.74 315.832 233.717C306.272 239.408 298.306 243.732 290.34 249.422Z" fill="white"/>
<path d="M247.094 273.777C242.508 269.478 236.396 263.989 232.299 259.209C268.302 212.322 311.55 211.639 312.431 176.14C312.898 157.323 296.696 146.866 278.644 143.438C280.243 133.384 279.786 126.072 278.187 117.845C310.864 118.531 344.591 141.153 344.591 176.14C344.591 225.978 290.094 222.196 247.094 273.777Z" fill="white"/>
<path d="M186.839 331.163H171.697L171.707 141.612C171.707 141.612 217.738 141.612 240.252 141.612C242.538 133.614 242.11 125.415 239.531 117.713H126.005V120.5C142.001 132.927 144.916 143.01 144.916 161.763V314.372C144.916 331.217 140.63 344.527 126.005 355.62V358.407C126.005 358.407 168.373 358.361 187.205 358.406C185.485 348.376 185.315 340.925 186.839 331.163Z" fill="white"/>
<path d="M232.609 89.3932C242.684 99.4372 249.437 113.667 250.413 127.883C251.34 141.374 246.041 155.263 238.198 166.29C242.665 171.448 248.019 175.988 253.051 180C262.952 167.155 268.944 152.677 269.888 136.4C271.622 106.501 257.109 83.0397 232.451 67.3911C215.196 77.9273 204.607 89.8485 197.752 108.248C204.93 108.248 212.234 108.233 219.46 108.248C221.973 101.622 227.497 94.3539 232.609 89.3932Z" fill="white"/>
<path d="M245.481 368.094C242.223 374.753 237.799 381.772 232.478 386.936C222.402 376.892 215.65 362.206 214.674 347.99C213.747 334.5 216.106 318.669 224.333 305.187C219.098 299.724 214.318 295.4 209.31 290.847C199.484 306.615 196.143 323.197 195.199 339.473C193.539 368.094 208.603 393.744 232.635 408.482C248.646 398.706 261.067 385.899 267.096 368.141C259.918 368.141 252.739 368.141 245.513 368.125L245.481 368.094Z" fill="white"/>
<path d="M275.445 207.65C260.946 197.384 228.295 180.244 218.42 151.665H197.352C204.741 183.335 230.865 203.367 254.65 223.072C261.277 217.247 266.761 213.82 275.445 207.65Z" fill="white"/>
<path d="M423.382 195.472V128.777C423.382 125.665 425.827 123.22 428.94 123.22H447.948C454.395 123.22 460.953 123.331 466.622 126.443C473.402 130.334 477.293 137.781 477.293 145.34C477.293 150.898 475.181 156.456 470.624 160.457C475.848 164.57 478.849 170.906 478.96 177.687C478.96 184.578 475.959 191.248 470.401 195.472C464.176 200.363 455.951 201.029 447.948 201.029H428.94C425.938 201.029 423.382 198.584 423.382 195.472ZM434.498 189.914H447.948C457.618 189.914 467.845 187.913 467.845 177.687C467.622 169.127 460.064 166.015 451.171 166.015H434.498V189.914ZM434.498 154.899H451.171C458.73 154.899 466.288 152.899 466.288 145.118V144.339C465.399 135.558 457.618 134.335 447.948 134.335H434.498V154.899Z" fill="white"/>
<path d="M497.93 148.452C497.93 145.451 500.375 142.894 503.488 142.894H523.496C526.608 142.894 529.054 145.34 529.054 148.452V197.028C529.054 200.14 526.497 202.586 523.496 202.586C520.495 202.586 517.938 200.029 517.938 197.028V154.01H503.488C500.487 154.01 497.93 151.453 497.93 148.452ZM513.27 125.887V120.774C513.27 117.662 515.826 115.216 518.827 115.216H523.829C526.831 115.216 529.387 117.662 529.387 120.774V125.887C529.387 129 526.831 131.445 523.829 131.445H518.827C515.826 131.445 513.27 129 513.27 125.887Z" fill="white"/>
<path d="M558.917 148.119C558.917 145.118 561.473 142.561 564.475 142.561H573.034L573.256 131.334C573.256 128.111 575.702 125.776 578.814 125.776C581.926 125.776 584.372 128.333 584.372 131.334L584.149 142.561H600.712C603.713 142.561 606.27 145.118 606.27 148.119C606.27 151.12 603.713 153.677 600.712 153.677H583.927L583.594 179.02C583.594 186.468 583.594 191.47 591.264 191.47C593.709 191.359 596.154 190.803 598.266 189.803C599.044 189.469 599.823 189.247 600.712 189.247C603.713 189.247 606.27 191.803 606.27 194.805C606.27 200.474 598.822 202.586 591.93 202.586C588.596 202.586 585.261 202.03 583.149 201.252C575.035 198.139 572.478 190.692 572.478 180.132V178.798L572.811 153.677H564.475C561.473 153.677 558.917 151.12 558.917 148.119Z" fill="white"/>
<path d="M628.52 170.684C628.52 153.899 635.634 141.338 652.307 141.338C653.863 141.338 655.531 141.449 657.309 141.672C664.423 142.45 670.537 146.674 672.204 153.454V154.788C672.204 157.901 669.87 160.346 666.758 160.346C664.09 160.346 661.978 158.456 661.422 156.011C660.422 153.454 656.865 152.454 653.308 152.454C650.751 152.454 648.194 153.01 646.305 153.788C641.192 156.233 639.635 163.347 639.635 170.684C639.635 181.132 641.636 192.026 651.751 192.026C652.863 192.026 654.197 191.915 655.531 191.581C658.532 190.914 661.311 189.024 661.978 185.912C662.756 183.689 664.646 181.577 667.425 181.577C670.426 181.577 672.871 184.134 672.871 187.135V188.469C670.759 196.917 662.2 203.141 652.418 203.141C648.75 203.141 644.971 202.252 641.303 200.363C632.077 195.138 628.52 184.801 628.52 170.684Z" fill="white"/>
<path d="M692.714 171.906C692.714 154.344 702.385 140.671 720.503 140.671C738.066 140.671 748.293 154.344 748.293 171.906C748.293 189.247 738.288 202.919 720.503 202.919C702.607 202.919 692.714 189.469 692.714 171.906ZM703.83 171.906C703.83 182.911 709.054 191.803 720.503 191.803C731.952 191.803 737.177 182.911 737.177 171.906C737.177 160.791 731.73 151.787 720.503 151.787C709.165 151.787 703.83 160.902 703.83 171.906Z" fill="white"/>
<path d="M765.888 148.452C765.888 145.451 768.333 142.894 771.445 142.894H791.454C794.566 142.894 797.012 145.34 797.012 148.452V197.028C797.012 200.14 794.455 202.586 791.454 202.586C788.452 202.586 785.896 200.029 785.896 197.028V154.01H771.445C768.444 154.01 765.888 151.453 765.888 148.452ZM781.227 125.887V120.774C781.227 117.662 783.784 115.216 786.785 115.216H791.787C794.788 115.216 797.345 117.662 797.345 120.774V125.887C797.345 129 794.788 131.445 791.787 131.445H786.785C783.784 131.445 781.227 129 781.227 125.887Z" fill="white"/>
<path d="M826.874 197.028V147.118C826.874 144.117 829.431 141.672 832.432 141.672C835.434 141.672 837.99 144.117 837.99 147.118V148.119C842.659 144.006 848.661 141.227 856.22 141.227C872.893 141.227 879.341 152.787 879.341 169.35V197.028C879.341 200.029 876.673 202.586 873.783 202.586C870.781 202.586 868.225 200.14 868.225 197.028V169.35C868.225 159.346 866.335 152.343 856.22 152.343C846.772 152.343 840.769 160.235 837.99 167.349V197.028C837.99 200.029 835.434 202.586 832.432 202.586C829.431 202.586 826.874 200.029 826.874 197.028Z" fill="white"/>
<path d="M423.382 346.051V244.135C423.382 239.718 427.144 235.956 431.561 235.956C435.978 235.956 439.741 239.718 439.741 244.135V284.542L485.055 238.41C486.527 236.937 488.817 235.956 490.944 235.956C495.361 235.956 499.124 239.718 499.124 244.135C499.124 246.262 498.142 248.388 496.67 249.861L454.627 292.885L500.432 340.326C501.905 341.961 502.886 343.924 502.886 346.051C502.886 350.468 499.124 354.231 494.707 354.231C492.58 354.231 490.453 353.413 488.817 351.777L439.741 301.064V346.051C439.741 350.468 435.978 354.231 431.561 354.231C427.144 354.231 423.382 350.468 423.382 346.051Z" fill="white"/>
<path d="M521.97 346.542V273.09C521.97 268.673 525.732 265.075 530.149 265.075C534.566 265.075 538.329 268.673 538.329 273.09V274.563C545.199 268.51 554.033 264.42 565.157 264.42C589.696 264.42 599.184 281.433 599.184 305.808V346.542C599.184 350.959 595.258 354.721 591.004 354.721C586.588 354.721 582.825 351.122 582.825 346.542V305.808C582.825 291.085 580.044 280.779 565.157 280.779C551.252 280.779 542.418 292.394 538.329 302.864V346.542C538.329 350.959 534.566 354.721 530.149 354.721C525.732 354.721 521.97 350.959 521.97 346.542Z" fill="white"/>
<path d="M623.233 309.571C623.233 283.724 637.465 263.602 664.13 263.602C689.977 263.602 705.027 283.724 705.027 309.571C705.027 335.091 690.304 355.212 664.13 355.212C637.792 355.212 623.233 335.418 623.233 309.571ZM639.592 309.571C639.592 325.766 647.28 338.853 664.13 338.853C680.98 338.853 688.668 325.766 688.668 309.571C688.668 293.212 680.653 279.961 664.13 279.961C647.444 279.961 639.592 293.375 639.592 309.571Z" fill="white"/>
<path d="M720.52 274.563C720.52 270.146 724.283 266.383 728.7 266.383H741.296L741.623 249.861C741.623 245.117 745.222 241.681 749.803 241.681C754.383 241.681 757.982 245.444 757.982 249.861L757.655 266.383H782.03C786.447 266.383 790.209 270.146 790.209 274.563C790.209 278.98 786.447 282.742 782.03 282.742H757.328L756.837 320.04C756.837 331.001 756.837 338.362 768.125 338.362C771.724 338.199 775.323 337.381 778.431 335.909C779.576 335.418 780.721 335.091 782.03 335.091C786.447 335.091 790.209 338.853 790.209 343.27C790.209 351.613 779.249 354.721 769.106 354.721C764.199 354.721 759.291 353.903 756.183 352.758C744.241 348.178 740.478 337.217 740.478 321.676V319.713L740.969 282.742H728.7C724.283 282.742 720.52 278.98 720.52 274.563Z" fill="white"/>
<path d="M814.704 336.727C814.704 332.146 818.466 328.547 822.883 328.547C828.772 328.547 830.245 334.6 834.171 336.727C838.26 338.69 843.495 338.853 849.057 338.853C857.4 338.362 868.034 337.217 868.034 328.22C868.034 322.167 861.163 320.531 856.255 319.223C838.26 314.478 815.685 311.697 815.685 288.959C815.685 270.637 831.553 263.602 849.057 263.602H854.128C866.07 264.257 877.849 270.146 880.794 281.27C880.957 282.088 881.121 282.742 881.121 283.397C881.121 287.813 877.358 291.576 872.941 291.576C869.015 291.576 865.743 288.959 864.925 285.523C863.78 280.943 858.218 280.288 853.311 279.961H849.057C841.532 279.961 832.044 280.615 832.044 288.959C832.044 295.175 837.115 297.302 842.023 298.61C860.181 303.354 884.393 305.481 884.393 328.22C884.393 347.523 867.87 354.721 849.057 355.212H847.421C832.208 355.212 821.738 350.795 815.685 340.98C814.867 339.671 814.704 338.199 814.704 336.727Z" fill="white"/>
</svg>
