<svg width="1024" height="456" viewBox="0 0 1024 456" fill="none" xmlns="http://www.w3.org/2000/svg">
<rect width="1024" height="455.309" transform="translate(0 0.236328)" fill="#F7931A"/>
<path d="M202.259 191.049C193.834 181.799 190.483 174.062 189.108 169.226H201.315C207.571 183.303 223.665 197.751 238.965 204.929C236.675 206.558 234.24 207.973 231.691 209.155C229.183 210.379 227.694 211.089 226.827 211.492C223.77 209.851 214.63 204.31 202.25 191.068L202.259 191.049ZM240.936 157.813C240.928 160.573 240.641 163.325 240.079 166.027C268.768 173.063 270.721 195.601 244.364 209.114C228.734 217.13 222.821 218.597 214.186 227.279C215.12 228.857 216.229 230.325 217.49 231.656C218.866 233.173 220.997 235.749 222.532 237.615C230.526 228.163 247.344 221.494 261.539 215.118C308.449 194.033 280.791 146.23 239.726 147.894C240.562 151.133 240.969 154.468 240.936 157.813ZM232.034 272.295C232.621 272.212 233.125 272.134 233.556 272.056C229.5 250.486 219.993 245.118 209.721 231.046C202.731 218.001 205.82 207.601 207.374 203.897C206.169 202.783 204.496 201.211 202.901 199.621C201.223 197.943 199.875 196.522 198.895 195.468C188.462 209.32 191.808 228.136 200.293 239.201C208.763 250.041 216.908 252.741 220.69 272.918C223.17 272.882 228.693 272.753 232.034 272.295ZM142.951 298.348L182.077 298.261C181.461 294.921 181.145 291.532 181.133 288.136C181.063 284.709 181.293 281.283 181.82 277.896C179.529 277.204 177.929 275.728 177.929 272.212V170.033C178.538 162.534 183.47 163.859 200.893 163.859C210.06 163.859 210.12 164.088 214.832 164.056C215.36 161.42 215.621 158.737 215.611 156.048C215.608 153.459 215.328 150.878 214.777 148.348H209.689C197.056 148.389 156.17 148.348 141.997 148.348C141.997 148.348 159.489 154.371 159.489 163.749V282.191C159.489 289.415 142.951 298.348 142.951 298.348ZM258.996 222.457C256.245 223.566 254.169 224.556 252.812 225.248C273.746 237.097 277.944 269.595 245.515 276.127C236.384 278.776 217.66 278.68 206.137 278.602C205.848 279.633 205.257 282.516 205.362 288.498C205.467 294.365 206.343 297.459 206.586 298.215H235.188C290.678 299.384 319.743 247.043 270.354 217.415C268.556 218.327 261.973 221.26 258.996 222.457ZM201.361 143.031C204.051 136.004 210.432 130.334 210.432 130.334C222.349 139.579 226.364 164.932 213.961 178.307C215.336 180.191 216.848 181.972 218.485 183.633C219.789 184.901 221.176 186.08 222.638 187.162C247.183 159.935 231.636 130.71 210.432 117.376C210.432 117.376 195.727 126.3 189.108 143.045L201.361 143.031ZM219.645 303.661C216.867 310.568 210.592 316.271 210.592 316.271C198.702 305.655 197.79 290.212 200.485 274.5C201.521 265.254 204.61 258.943 207.127 254.987C206.267 253.916 205.337 252.902 204.344 251.952C202.891 250.541 200.618 248.143 198.968 246.383C179.542 278.538 184.03 314.034 210.427 330.416C210.427 330.416 225.7 322.353 233.043 303.661H219.645Z" fill="#171717"/>
<path d="M343.705 285.373V168.774C343.705 163.721 348.009 159.417 353.063 159.417C358.116 159.417 362.42 163.721 362.42 168.774V215.002L414.263 162.224C415.947 160.539 418.567 159.417 421 159.417C426.053 159.417 430.358 163.721 430.358 168.774C430.358 171.207 429.235 173.64 427.551 175.325L379.452 224.547L431.855 278.822C433.54 280.694 434.663 282.94 434.663 285.373C434.663 290.426 430.358 294.73 425.305 294.73C422.872 294.73 420.439 293.795 418.567 291.923L362.42 233.905V285.373C362.42 290.426 358.116 294.73 353.063 294.73C348.009 294.73 343.705 290.426 343.705 285.373Z" fill="#171717"/>
<path d="M456.495 285.934V201.901C456.495 196.848 460.8 192.73 465.853 192.73C470.906 192.73 475.211 196.848 475.211 201.901V203.585C483.072 196.661 493.178 191.982 505.905 191.982C533.978 191.982 544.833 211.446 544.833 239.332V285.934C544.833 290.987 540.341 295.292 535.475 295.292C530.422 295.292 526.117 291.174 526.117 285.934V239.332C526.117 222.488 522.936 210.697 505.905 210.697C489.996 210.697 479.89 223.985 475.211 235.963V285.934C475.211 290.987 470.906 295.292 465.853 295.292C460.8 295.292 456.495 290.987 456.495 285.934Z" fill="#171717"/>
<path d="M572.347 243.637C572.347 214.066 588.629 191.046 619.136 191.046C648.706 191.046 665.925 214.066 665.925 243.637C665.925 272.833 649.081 295.853 619.136 295.853C589.003 295.853 572.347 273.207 572.347 243.637ZM591.062 243.637C591.062 262.165 599.859 277.138 619.136 277.138C638.413 277.138 647.209 262.165 647.209 243.637C647.209 224.921 638.038 209.761 619.136 209.761C600.046 209.761 591.062 225.108 591.062 243.637Z" fill="#171717"/>
<path d="M683.65 203.585C683.65 198.532 687.954 194.228 693.007 194.228H707.418L707.793 175.325C707.793 169.897 711.91 165.967 717.151 165.967C722.391 165.967 726.508 170.272 726.508 175.325L726.134 194.228H754.02C759.074 194.228 763.378 198.532 763.378 203.585C763.378 208.639 759.074 212.943 754.02 212.943H725.76L725.198 255.615C725.198 268.154 725.198 276.576 738.112 276.576C742.229 276.389 746.347 275.453 749.903 273.769C751.213 273.207 752.523 272.833 754.02 272.833C759.074 272.833 763.378 277.138 763.378 282.191C763.378 291.736 750.839 295.292 739.235 295.292C733.62 295.292 728.006 294.356 724.45 293.046C710.787 287.806 706.483 275.266 706.483 257.486V255.24L707.044 212.943H693.007C687.954 212.943 683.65 208.639 683.65 203.585Z" fill="#171717"/>
<path d="M791.401 274.705C791.401 269.464 795.706 265.347 800.759 265.347C807.496 265.347 809.181 272.272 813.673 274.705C818.351 276.951 824.34 277.138 830.704 277.138C840.249 276.576 852.414 275.266 852.414 264.973C852.414 258.048 844.553 256.176 838.939 254.679C818.351 249.251 792.524 246.07 792.524 220.055C792.524 199.094 810.678 191.046 830.704 191.046H836.506C850.168 191.795 863.643 198.532 867.012 211.259C867.199 212.195 867.386 212.943 867.386 213.692C867.386 218.745 863.082 223.05 858.029 223.05C853.537 223.05 849.794 220.055 848.858 216.125C847.548 210.884 841.184 210.136 835.57 209.761H830.704C822.095 209.761 811.239 210.51 811.239 220.055C811.239 227.167 817.041 229.6 822.656 231.097C843.43 236.525 871.129 238.958 871.129 264.973C871.129 287.057 852.227 295.292 830.704 295.853H828.832C811.427 295.853 799.449 290.8 792.524 279.571C791.588 278.073 791.401 276.389 791.401 274.705Z" fill="#171717"/>
</svg>
