<svg width="1024" height="476" viewBox="0 0 1024 476" fill="none" xmlns="http://www.w3.org/2000/svg">
<rect width="1024" height="475.382" fill="#F7931A"/>
<path d="M246.379 321.48C241.336 302.508 218.637 288.781 207.451 273.185C191.288 250.649 191.743 220.037 211.318 196.138C217.008 202.511 218.375 203.768 226.112 210.933C212.643 227.841 211.603 244.102 221.024 258.999C234.729 280.67 262.387 292.224 266.896 321.096C266.896 321.096 256.653 321.324 246.379 321.48Z" fill="#171717"/>
<path d="M290.34 249.399C305.134 261.235 320.473 273.165 319.913 291.958C319.09 319.596 297.543 330.199 268.261 330.656C264.729 330.711 225.015 330.883 225.015 330.883C223.232 341.395 223.763 350.548 226.832 358.532C226.832 358.532 276.081 358.67 275.958 358.67C321.183 358.67 357.671 337.191 357.671 291.958C357.671 265.028 340.186 248.716 315.832 233.694C306.272 239.384 298.306 243.709 290.34 249.399Z" fill="#171717"/>
<path d="M247.094 273.753C242.508 269.454 236.396 263.966 232.299 259.186C268.302 212.298 311.55 211.616 312.431 176.117C312.898 157.3 296.696 146.842 278.644 143.415C280.243 133.36 279.786 126.048 278.187 117.822C310.864 118.507 344.591 141.13 344.591 176.117C344.591 225.955 290.094 222.173 247.094 273.753Z" fill="#171717"/>
<path d="M186.839 331.14H171.697L171.707 141.589C171.707 141.589 217.738 141.589 240.252 141.589C242.538 133.591 242.11 125.392 239.531 117.69H126.005V120.476C142.001 132.904 144.916 142.986 144.916 161.74V314.349C144.916 331.194 140.63 344.503 126.005 355.597V358.383C126.005 358.383 168.373 358.337 187.205 358.383C185.485 348.353 185.315 340.901 186.839 331.14Z" fill="#171717"/>
<path d="M232.609 89.3698C242.684 99.4138 249.437 113.644 250.413 127.86C251.34 141.351 246.041 155.239 238.198 166.266C242.665 171.425 248.019 175.965 253.051 179.977C262.952 167.132 268.944 152.653 269.888 136.377C271.622 106.477 257.109 83.0163 232.451 67.3677C215.196 77.9038 204.607 89.825 197.752 108.225C204.93 108.225 212.234 108.209 219.46 108.225C221.973 101.598 227.497 94.3304 232.609 89.3698Z" fill="#171717"/>
<path d="M245.481 368.07C242.223 374.73 237.799 381.748 232.478 386.912C222.402 376.868 215.65 362.183 214.674 347.967C213.747 334.476 216.106 318.646 224.333 305.163C219.098 299.701 214.318 295.376 209.31 290.824C199.484 306.591 196.143 323.173 195.199 339.45C193.539 368.07 208.603 393.721 232.635 408.459C248.646 398.683 261.067 385.876 267.096 368.118C259.918 368.118 252.739 368.118 245.513 368.102L245.481 368.07Z" fill="#171717"/>
<path d="M275.445 207.626C260.946 197.361 228.295 180.22 218.42 151.642H197.352C204.741 183.311 230.865 203.343 254.65 223.048C261.277 217.224 266.761 213.796 275.445 207.626Z" fill="#171717"/>
<path d="M423.382 195.448V128.754C423.382 125.642 425.827 123.196 428.94 123.196H447.948C454.395 123.196 460.953 123.307 466.622 126.42C473.402 130.31 477.293 137.758 477.293 145.316C477.293 150.874 475.181 156.432 470.624 160.434C475.848 164.547 478.849 170.882 478.96 177.663C478.96 184.555 475.959 191.224 470.401 195.448C464.176 200.339 455.951 201.006 447.948 201.006H428.94C425.938 201.006 423.382 198.561 423.382 195.448ZM434.498 189.89H447.948C457.618 189.89 467.845 187.89 467.845 177.663C467.622 169.104 460.064 165.992 451.171 165.992H434.498V189.89ZM434.498 154.876H451.171C458.73 154.876 466.288 152.875 466.288 145.094V144.316C465.399 135.535 457.618 134.312 447.948 134.312H434.498V154.876Z" fill="#171717"/>
<path d="M497.93 148.429C497.93 145.428 500.375 142.871 503.488 142.871H523.496C526.608 142.871 529.054 145.316 529.054 148.429V197.004C529.054 200.117 526.497 202.562 523.496 202.562C520.495 202.562 517.938 200.006 517.938 197.004V153.987H503.488C500.487 153.987 497.93 151.43 497.93 148.429ZM513.27 125.864V120.751C513.27 117.638 515.826 115.193 518.827 115.193H523.829C526.831 115.193 529.387 117.638 529.387 120.751V125.864C529.387 128.976 526.831 131.422 523.829 131.422H518.827C515.826 131.422 513.27 128.976 513.27 125.864Z" fill="#171717"/>
<path d="M558.917 148.095C558.917 145.094 561.473 142.537 564.475 142.537H573.034L573.256 131.311C573.256 128.087 575.702 125.753 578.814 125.753C581.926 125.753 584.372 128.309 584.372 131.311L584.149 142.537H600.712C603.713 142.537 606.27 145.094 606.27 148.095C606.27 151.097 603.713 153.653 600.712 153.653H583.927L583.594 178.997C583.594 186.444 583.594 191.447 591.264 191.447C593.709 191.335 596.154 190.78 598.266 189.779C599.044 189.446 599.823 189.223 600.712 189.223C603.713 189.223 606.27 191.78 606.27 194.781C606.27 200.45 598.822 202.562 591.93 202.562C588.596 202.562 585.261 202.006 583.149 201.228C575.035 198.116 572.478 190.668 572.478 180.109V178.775L572.811 153.653H564.475C561.473 153.653 558.917 151.097 558.917 148.095Z" fill="#171717"/>
<path d="M628.52 170.66C628.52 153.875 635.634 141.315 652.307 141.315C653.863 141.315 655.531 141.426 657.309 141.648C664.423 142.426 670.537 146.65 672.204 153.431V154.765C672.204 157.877 669.87 160.323 666.758 160.323C664.09 160.323 661.978 158.433 661.422 155.987C660.422 153.431 656.865 152.43 653.308 152.43C650.751 152.43 648.194 152.986 646.305 153.764C641.192 156.21 639.635 163.324 639.635 170.66C639.635 181.109 641.636 192.002 651.751 192.002C652.863 192.002 654.197 191.891 655.531 191.558C658.532 190.891 661.311 189.001 661.978 185.889C662.756 183.666 664.646 181.554 667.425 181.554C670.426 181.554 672.871 184.11 672.871 187.111V188.445C670.759 196.893 662.2 203.118 652.418 203.118C648.75 203.118 644.971 202.229 641.303 200.339C632.077 195.115 628.52 184.777 628.52 170.66Z" fill="#171717"/>
<path d="M692.714 171.883C692.714 154.32 702.385 140.648 720.503 140.648C738.066 140.648 748.293 154.32 748.293 171.883C748.293 189.223 738.288 202.896 720.503 202.896C702.607 202.896 692.714 189.446 692.714 171.883ZM703.83 171.883C703.83 182.887 709.054 191.78 720.503 191.78C731.952 191.78 737.177 182.887 737.177 171.883C737.177 160.767 731.73 151.764 720.503 151.764C709.165 151.764 703.83 160.878 703.83 171.883Z" fill="#171717"/>
<path d="M765.888 148.429C765.888 145.428 768.333 142.871 771.445 142.871H791.454C794.566 142.871 797.012 145.316 797.012 148.429V197.004C797.012 200.117 794.455 202.562 791.454 202.562C788.452 202.562 785.896 200.006 785.896 197.004V153.987H771.445C768.444 153.987 765.888 151.43 765.888 148.429ZM781.227 125.864V120.751C781.227 117.638 783.784 115.193 786.785 115.193H791.787C794.788 115.193 797.345 117.638 797.345 120.751V125.864C797.345 128.976 794.788 131.422 791.787 131.422H786.785C783.784 131.422 781.227 128.976 781.227 125.864Z" fill="#171717"/>
<path d="M826.874 197.004V147.095C826.874 144.094 829.431 141.648 832.432 141.648C835.434 141.648 837.99 144.094 837.99 147.095V148.095C842.659 143.983 848.661 141.204 856.22 141.204C872.893 141.204 879.341 152.764 879.341 169.326V197.004C879.341 200.006 876.673 202.562 873.783 202.562C870.781 202.562 868.225 200.117 868.225 197.004V169.326C868.225 159.322 866.335 152.319 856.22 152.319C846.772 152.319 840.769 160.211 837.99 167.325V197.004C837.99 200.006 835.434 202.562 832.432 202.562C829.431 202.562 826.874 200.006 826.874 197.004Z" fill="#171717"/>
<path d="M423.382 346.028V244.112C423.382 239.695 427.144 235.932 431.561 235.932C435.978 235.932 439.741 239.695 439.741 244.112V284.518L485.055 238.386C486.527 236.914 488.817 235.932 490.944 235.932C495.361 235.932 499.124 239.695 499.124 244.112C499.124 246.238 498.142 248.365 496.67 249.837L454.627 292.861L500.432 340.302C501.905 341.938 502.886 343.901 502.886 346.028C502.886 350.445 499.124 354.207 494.707 354.207C492.58 354.207 490.453 353.389 488.817 351.753L439.741 301.041V346.028C439.741 350.445 435.978 354.207 431.561 354.207C427.144 354.207 423.382 350.445 423.382 346.028Z" fill="#171717"/>
<path d="M521.97 346.518V273.067C521.97 268.65 525.732 265.051 530.149 265.051C534.566 265.051 538.329 268.65 538.329 273.067V274.539C545.199 268.486 554.033 264.397 565.157 264.397C589.696 264.397 599.184 281.41 599.184 305.785V346.518C599.184 350.935 595.258 354.698 591.004 354.698C586.588 354.698 582.825 351.099 582.825 346.518V305.785C582.825 291.062 580.044 280.756 565.157 280.756C551.252 280.756 542.418 292.37 538.329 302.84V346.518C538.329 350.935 534.566 354.698 530.149 354.698C525.732 354.698 521.97 350.935 521.97 346.518Z" fill="#171717"/>
<path d="M623.233 309.547C623.233 283.7 637.465 263.579 664.13 263.579C689.977 263.579 705.027 283.7 705.027 309.547C705.027 335.067 690.304 355.189 664.13 355.189C637.792 355.189 623.233 335.394 623.233 309.547ZM639.592 309.547C639.592 325.743 647.28 338.83 664.13 338.83C680.98 338.83 688.668 325.743 688.668 309.547C688.668 293.188 680.653 279.938 664.13 279.938C647.444 279.938 639.592 293.352 639.592 309.547Z" fill="#171717"/>
<path d="M720.52 274.539C720.52 270.122 724.283 266.36 728.7 266.36H741.296L741.623 249.837C741.623 245.093 745.222 241.658 749.803 241.658C754.383 241.658 757.982 245.42 757.982 249.837L757.655 266.36H782.03C786.447 266.36 790.209 270.122 790.209 274.539C790.209 278.956 786.447 282.719 782.03 282.719H757.328L756.837 320.017C756.837 330.978 756.837 338.339 768.125 338.339C771.724 338.175 775.323 337.357 778.431 335.885C779.576 335.394 780.721 335.067 782.03 335.067C786.447 335.067 790.209 338.83 790.209 343.247C790.209 351.59 779.249 354.698 769.106 354.698C764.199 354.698 759.291 353.88 756.183 352.735C744.241 348.154 740.478 337.194 740.478 321.653V319.69L740.969 282.719H728.7C724.283 282.719 720.52 278.956 720.52 274.539Z" fill="#171717"/>
<path d="M814.704 336.703C814.704 332.123 818.466 328.524 822.883 328.524C828.772 328.524 830.245 334.576 834.171 336.703C838.26 338.666 843.495 338.83 849.057 338.83C857.4 338.339 868.034 337.194 868.034 328.197C868.034 322.144 861.163 320.508 856.255 319.199C838.26 314.455 815.685 311.674 815.685 288.935C815.685 270.613 831.553 263.579 849.057 263.579H854.128C866.07 264.233 877.849 270.122 880.794 281.246C880.957 282.064 881.121 282.719 881.121 283.373C881.121 287.79 877.358 291.553 872.941 291.553C869.015 291.553 865.743 288.935 864.925 285.5C863.78 280.919 858.218 280.265 853.311 279.938H849.057C841.532 279.938 832.044 280.592 832.044 288.935C832.044 295.151 837.115 297.278 842.023 298.587C860.181 303.331 884.393 305.458 884.393 328.197C884.393 347.5 867.87 354.698 849.057 355.189H847.421C832.208 355.189 821.738 350.772 815.685 340.956C814.867 339.648 814.704 338.175 814.704 336.703Z" fill="#171717"/>
</svg>
