<svg width="1024" height="456" viewBox="0 0 1024 456" fill="none" xmlns="http://www.w3.org/2000/svg">
<path d="M240.776 311.256C235.734 292.29 213.043 278.567 201.862 262.977C185.704 240.448 186.159 209.848 205.727 185.957C211.415 192.328 212.781 193.584 220.516 200.747C207.052 217.649 206.012 233.904 215.43 248.796C229.13 270.459 256.779 282.009 261.286 310.871C261.286 310.871 251.047 311.099 240.776 311.256Z" fill="#171717"/>
<path d="M284.721 239.199C299.511 251.031 314.844 262.957 314.284 281.743C313.461 309.371 291.922 319.971 262.651 320.428C259.119 320.483 219.42 320.655 219.42 320.655C217.637 331.163 218.168 340.313 221.236 348.294C221.236 348.294 270.468 348.432 270.344 348.432C315.554 348.432 352.029 326.96 352.029 281.743C352.029 254.822 334.55 238.517 310.204 223.5C300.648 229.188 292.685 233.511 284.721 239.199Z" fill="#171717"/>
<path d="M241.49 263.545C236.907 259.248 230.796 253.761 226.701 248.983C262.692 202.112 305.924 201.429 306.805 165.943C307.272 147.132 291.075 136.679 273.029 133.252C274.628 123.201 274.172 115.891 272.573 107.668C305.238 108.353 338.953 130.968 338.953 165.943C338.953 215.763 284.476 211.983 241.49 263.545Z" fill="#171717"/>
<path d="M181.257 320.911H166.12L166.13 131.427C166.13 131.427 212.145 131.427 234.651 131.427C236.936 123.432 236.509 115.235 233.93 107.536H120.444V110.322C136.434 122.745 139.348 132.824 139.348 151.571V304.127C139.348 320.966 135.063 334.27 120.444 345.36V348.146C120.444 348.146 162.797 348.1 181.622 348.145C179.903 338.118 179.733 330.67 181.257 320.911Z" fill="#171717"/>
<path d="M227.01 79.2259C237.082 89.2664 243.832 103.492 244.808 117.703C245.735 131.189 240.438 145.072 232.597 156.096C237.063 161.252 242.416 165.791 247.445 169.801C257.343 156.96 263.333 142.487 264.277 126.217C266.01 96.3275 251.502 72.8746 226.853 57.2314C209.604 67.7639 199.018 79.681 192.165 98.0744C199.342 98.0744 206.643 98.0587 213.866 98.0744C216.379 91.45 221.9 84.1848 227.01 79.2259Z" fill="#171717"/>
<path d="M239.879 357.83C236.621 364.487 232.199 371.503 226.879 376.665C216.808 366.624 210.058 351.944 209.082 337.733C208.155 324.247 210.514 308.422 218.737 294.945C213.504 289.484 208.726 285.161 203.72 280.61C193.898 296.372 190.557 312.948 189.613 329.219C187.954 357.83 203.013 383.471 227.037 398.204C243.042 388.431 255.459 375.629 261.486 357.877C254.31 357.877 247.134 357.877 239.91 357.861L239.879 357.83Z" fill="#171717"/>
<path d="M269.831 197.441C255.338 187.179 222.698 170.045 212.826 141.476H191.766C199.152 173.135 225.267 193.16 249.044 212.858C255.669 207.035 261.151 203.609 269.831 197.441Z" fill="#171717"/>
<path d="M410.4 183.694V116.191C410.4 113.041 412.875 110.566 416.026 110.566H435.264C441.789 110.566 448.427 110.679 454.165 113.829C461.027 117.766 464.965 125.304 464.965 132.955C464.965 138.58 462.827 144.205 458.215 148.255C463.503 152.418 466.54 158.831 466.653 165.693C466.653 172.669 463.615 179.419 457.99 183.694C451.69 188.644 443.364 189.319 435.264 189.319H416.026C412.988 189.319 410.4 186.844 410.4 183.694ZM421.651 178.069H435.264C445.052 178.069 455.402 176.044 455.402 165.693C455.177 157.031 447.527 153.88 438.527 153.88H421.651V178.069ZM421.651 142.63H438.527C446.177 142.63 453.827 140.605 453.827 132.73V131.942C452.927 123.054 445.052 121.817 435.264 121.817H421.651V142.63Z" fill="#171717"/>
<path d="M485.852 136.105C485.852 133.067 488.327 130.479 491.477 130.479H511.728C514.878 130.479 517.353 132.955 517.353 136.105V185.269C517.353 188.419 514.766 190.894 511.728 190.894C508.691 190.894 506.103 188.307 506.103 185.269V141.73H491.477C488.44 141.73 485.852 139.142 485.852 136.105ZM501.378 113.266V108.091C501.378 104.941 503.965 102.466 507.003 102.466H512.066C515.103 102.466 517.691 104.941 517.691 108.091V113.266C517.691 116.416 515.103 118.891 512.066 118.891H507.003C503.965 118.891 501.378 116.416 501.378 113.266Z" fill="#171717"/>
<path d="M547.579 135.767C547.579 132.73 550.166 130.142 553.204 130.142H561.867L562.092 118.779C562.092 115.516 564.567 113.154 567.717 113.154C570.867 113.154 573.342 115.741 573.342 118.779L573.117 130.142H589.88C592.918 130.142 595.505 132.73 595.505 135.767C595.505 138.805 592.918 141.392 589.88 141.392H572.892L572.555 167.043C572.555 174.581 572.555 179.644 580.317 179.644C582.792 179.531 585.268 178.969 587.405 177.956C588.193 177.619 588.98 177.394 589.88 177.394C592.918 177.394 595.505 179.981 595.505 183.019C595.505 188.757 587.968 190.894 580.992 190.894C577.617 190.894 574.242 190.332 572.105 189.544C563.892 186.394 561.304 178.856 561.304 168.168V166.818L561.642 141.392H553.204C550.166 141.392 547.579 138.805 547.579 135.767Z" fill="#171717"/>
<path d="M618.025 158.606C618.025 141.617 625.225 128.904 642.101 128.904C643.676 128.904 645.364 129.017 647.164 129.242C654.364 130.029 660.552 134.305 662.239 141.167V142.517C662.239 145.668 659.877 148.143 656.727 148.143C654.027 148.143 651.889 146.23 651.326 143.755C650.314 141.167 646.714 140.155 643.114 140.155C640.526 140.155 637.938 140.717 636.026 141.505C630.851 143.98 629.276 151.18 629.276 158.606C629.276 169.181 631.301 180.206 641.539 180.206C642.664 180.206 644.014 180.094 645.364 179.756C648.401 179.081 651.214 177.169 651.889 174.019C652.677 171.769 654.589 169.631 657.402 169.631C660.439 169.631 662.914 172.219 662.914 175.256V176.606C660.777 185.157 652.114 191.457 642.214 191.457C638.501 191.457 634.676 190.557 630.963 188.644C621.625 183.357 618.025 172.894 618.025 158.606Z" fill="#171717"/>
<path d="M682.998 159.843C682.998 142.067 692.786 128.229 711.124 128.229C728.9 128.229 739.25 142.067 739.25 159.843C739.25 177.394 729.125 191.232 711.124 191.232C693.011 191.232 682.998 177.619 682.998 159.843ZM694.248 159.843C694.248 170.981 699.536 179.981 711.124 179.981C722.712 179.981 728 170.981 728 159.843C728 148.593 722.487 139.48 711.124 139.48C699.649 139.48 694.248 148.705 694.248 159.843Z" fill="#171717"/>
<path d="M757.058 136.105C757.058 133.067 759.533 130.479 762.684 130.479H782.934C786.085 130.479 788.56 132.955 788.56 136.105V185.269C788.56 188.419 785.972 190.894 782.934 190.894C779.897 190.894 777.309 188.307 777.309 185.269V141.73H762.684C759.646 141.73 757.058 139.142 757.058 136.105ZM772.584 113.266V108.091C772.584 104.941 775.172 102.466 778.209 102.466H783.272C786.31 102.466 788.897 104.941 788.897 108.091V113.266C788.897 116.416 786.31 118.891 783.272 118.891H778.209C775.172 118.891 772.584 116.416 772.584 113.266Z" fill="#171717"/>
<path d="M818.785 185.269V134.755C818.785 131.717 821.372 129.242 824.41 129.242C827.447 129.242 830.035 131.717 830.035 134.755V135.767C834.76 131.604 840.836 128.792 848.486 128.792C865.361 128.792 871.887 140.492 871.887 157.256V185.269C871.887 188.307 869.187 190.894 866.262 190.894C863.224 190.894 860.636 188.419 860.636 185.269V157.256C860.636 147.13 858.724 140.042 848.486 140.042C838.923 140.042 832.848 148.03 830.035 155.23V185.269C830.035 188.307 827.447 190.894 824.41 190.894C821.372 190.894 818.785 188.307 818.785 185.269Z" fill="#171717"/>
<path d="M410.4 337.115V233.964C410.4 229.493 414.209 225.685 418.679 225.685C423.149 225.685 426.958 229.493 426.958 233.964V274.86L472.821 228.169C474.311 226.679 476.629 225.685 478.782 225.685C483.252 225.685 487.06 229.493 487.06 233.964C487.06 236.116 486.067 238.269 484.577 239.759L442.025 283.304L488.385 331.32C489.875 332.976 490.869 334.963 490.869 337.115C490.869 341.586 487.06 345.394 482.59 345.394C480.437 345.394 478.285 344.566 476.629 342.91L426.958 291.583V337.115C426.958 341.586 423.149 345.394 418.679 345.394C414.209 345.394 410.4 341.586 410.4 337.115Z" fill="#171717"/>
<path d="M510.184 337.612V263.27C510.184 258.8 513.992 255.157 518.462 255.157C522.933 255.157 526.741 258.8 526.741 263.27V264.76C533.695 258.634 542.636 254.495 553.895 254.495C578.73 254.495 588.334 271.714 588.334 296.385V337.612C588.334 342.083 584.36 345.891 580.055 345.891C575.585 345.891 571.776 342.248 571.776 337.612V296.385C571.776 281.483 568.962 271.052 553.895 271.052C539.821 271.052 530.88 282.808 526.741 293.404V337.612C526.741 342.083 522.933 345.891 518.462 345.891C513.992 345.891 510.184 342.083 510.184 337.612Z" fill="#171717"/>
<path d="M612.674 300.193C612.674 274.032 627.079 253.667 654.067 253.667C680.228 253.667 695.46 274.032 695.46 300.193C695.46 326.022 680.559 346.387 654.067 346.387C627.41 346.387 612.674 326.353 612.674 300.193ZM629.231 300.193C629.231 316.584 637.013 329.83 654.067 329.83C671.121 329.83 678.903 316.584 678.903 300.193C678.903 283.636 670.79 270.224 654.067 270.224C637.179 270.224 629.231 283.801 629.231 300.193Z" fill="#171717"/>
<path d="M711.141 264.76C711.141 260.29 714.949 256.482 719.42 256.482H732.169L732.5 239.759C732.5 234.957 736.143 231.48 740.779 231.48C745.415 231.48 749.057 235.288 749.057 239.759L748.726 256.482H773.396C777.867 256.482 781.675 260.29 781.675 264.76C781.675 269.231 777.867 273.039 773.396 273.039H748.395L747.898 310.789C747.898 321.883 747.898 329.334 759.323 329.334C762.965 329.168 766.608 328.34 769.754 326.85C770.913 326.353 772.072 326.022 773.396 326.022C777.867 326.022 781.675 329.83 781.675 334.301C781.675 342.745 770.582 345.891 760.316 345.891C755.349 345.891 750.382 345.063 747.236 343.904C735.149 339.268 731.341 328.175 731.341 312.445V310.458L731.838 273.039H719.42C714.949 273.039 711.141 269.231 711.141 264.76Z" fill="#171717"/>
<path d="M806.466 327.678C806.466 323.042 810.274 319.399 814.745 319.399C820.705 319.399 822.196 325.525 826.169 327.678C830.309 329.665 835.607 329.83 841.236 329.83C849.681 329.334 860.443 328.175 860.443 319.068C860.443 312.942 853.489 311.286 848.522 309.962C830.309 305.16 807.46 302.345 807.46 279.331C807.46 260.787 823.52 253.667 841.236 253.667H846.369C858.456 254.329 870.377 260.29 873.357 271.549C873.523 272.377 873.689 273.039 873.689 273.701C873.689 278.172 869.88 281.98 865.41 281.98C861.436 281.98 858.125 279.331 857.297 275.854C856.138 271.218 850.508 270.555 845.541 270.224H841.236C833.62 270.224 824.017 270.887 824.017 279.331C824.017 285.622 829.15 287.775 834.117 289.099C852.495 293.901 877 296.054 877 319.068C877 338.606 860.277 345.891 841.236 346.387H839.581C824.182 346.387 813.586 341.917 807.46 331.983C806.632 330.658 806.466 329.168 806.466 327.678Z" fill="#171717"/>
</svg>
