<svg width="1024" height="457" viewBox="0 0 1024 457" fill="none" xmlns="http://www.w3.org/2000/svg">
<rect width="1024" height="455.309" transform="translate(0 0.852783)" fill="#F7931A"/>
<g clip-path="url(#clip0_264_1023)">
<circle cx="227.691" cy="228.544" r="227.691" fill="#F7931A"/>
<path d="M240.776 311.8C235.734 292.834 213.043 279.112 201.862 263.521C185.704 240.993 186.159 210.392 205.727 186.501C211.415 192.872 212.781 194.129 220.516 201.291C207.052 218.193 206.012 234.449 215.43 249.34C229.13 271.004 256.779 282.554 261.286 311.416C261.286 311.416 251.047 311.643 240.776 311.8Z" fill="#171717"/>
<path d="M284.721 239.744C299.511 251.575 314.844 263.501 314.284 282.288C313.461 309.916 291.922 320.515 262.651 320.972C259.119 321.027 219.42 321.2 219.42 321.2C217.637 331.707 218.168 340.857 221.236 348.839C221.236 348.839 270.468 348.976 270.344 348.976C315.554 348.976 352.029 327.505 352.029 282.288C352.029 255.367 334.55 239.061 310.204 224.044C300.648 229.732 292.685 234.055 284.721 239.744Z" fill="#171717"/>
<path d="M241.49 264.089C236.907 259.792 230.796 254.306 226.701 249.527C262.692 202.656 305.924 201.973 306.805 166.487C307.272 147.677 291.075 137.223 273.029 133.797C274.628 123.746 274.172 116.436 272.573 108.212C305.238 108.898 338.953 131.512 338.953 166.487C338.953 216.308 284.476 212.527 241.49 264.089Z" fill="#171717"/>
<path d="M181.257 321.456H166.12L166.13 131.971C166.13 131.971 212.145 131.971 234.651 131.971C236.936 123.976 236.509 115.78 233.93 108.081H120.444V110.866C136.434 123.289 139.348 133.368 139.348 152.115V304.671C139.348 321.51 135.063 334.815 120.444 345.905V348.69C120.444 348.69 162.797 348.644 181.622 348.69C179.903 338.663 179.733 331.214 181.257 321.456Z" fill="#171717"/>
<path d="M227.01 79.7698C237.082 89.8103 243.832 104.036 244.808 118.247C245.735 131.732 240.438 145.616 232.597 156.639C237.063 161.796 242.416 166.334 247.445 170.345C257.343 157.504 263.333 143.031 264.277 126.76C266.01 96.8714 251.502 73.4186 226.853 57.7754C209.604 68.3079 199.018 80.2249 192.165 98.6184C199.342 98.6184 206.643 98.6026 213.866 98.6184C216.379 91.9939 221.9 84.7288 227.01 79.7698Z" fill="#171717"/>
<path d="M239.879 358.374C236.621 365.031 232.199 372.047 226.879 377.209C216.808 367.168 210.058 352.488 209.082 338.277C208.155 324.791 210.514 308.966 218.737 295.489C213.504 290.028 208.726 285.705 203.72 281.154C193.898 296.916 190.557 313.492 189.613 329.763C187.954 358.374 203.013 384.015 227.037 398.748C243.042 388.975 255.459 376.173 261.486 358.421C254.31 358.421 247.134 358.421 239.91 358.405L239.879 358.374Z" fill="#171717"/>
<path d="M269.831 197.985C255.338 187.723 222.698 170.589 212.826 142.02H191.766C199.152 173.679 225.267 193.704 249.044 213.402C255.669 207.579 261.151 204.153 269.831 197.985Z" fill="#171717"/>
</g>
<path d="M410.4 184.238V116.736C410.4 113.585 412.875 111.11 416.026 111.11H435.264C441.789 111.11 448.427 111.223 454.165 114.373C461.027 118.311 464.965 125.848 464.965 133.499C464.965 139.124 462.827 144.749 458.215 148.799C463.503 152.962 466.54 159.375 466.653 166.238C466.653 173.213 463.615 179.963 457.99 184.238C451.69 189.188 443.364 189.863 435.264 189.863H416.026C412.988 189.863 410.4 187.388 410.4 184.238ZM421.651 178.613H435.264C445.052 178.613 455.402 176.588 455.402 166.238C455.177 157.575 447.527 154.425 438.527 154.425H421.651V178.613ZM421.651 143.174H438.527C446.177 143.174 453.827 141.149 453.827 133.274V132.486C452.927 123.598 445.052 122.361 435.264 122.361H421.651V143.174Z" fill="#171717"/>
<path d="M485.852 136.649C485.852 133.611 488.327 131.024 491.477 131.024H511.728C514.878 131.024 517.353 133.499 517.353 136.649V185.813C517.353 188.963 514.766 191.439 511.728 191.439C508.691 191.439 506.103 188.851 506.103 185.813V142.274H491.477C488.44 142.274 485.852 139.686 485.852 136.649ZM501.378 113.81V108.635C501.378 105.485 503.965 103.01 507.003 103.01H512.066C515.103 103.01 517.691 105.485 517.691 108.635V113.81C517.691 116.961 515.103 119.436 512.066 119.436H507.003C503.965 119.436 501.378 116.961 501.378 113.81Z" fill="#171717"/>
<path d="M547.579 136.311C547.579 133.274 550.166 130.686 553.204 130.686H561.867L562.092 119.323C562.092 116.061 564.567 113.698 567.717 113.698C570.867 113.698 573.342 116.286 573.342 119.323L573.117 130.686H589.88C592.918 130.686 595.505 133.274 595.505 136.311C595.505 139.349 592.918 141.937 589.88 141.937H572.892L572.555 167.588C572.555 175.125 572.555 180.188 580.317 180.188C582.792 180.076 585.268 179.513 587.405 178.501C588.193 178.163 588.98 177.938 589.88 177.938C592.918 177.938 595.505 180.526 595.505 183.563C595.505 189.301 587.968 191.439 580.992 191.439C577.617 191.439 574.242 190.876 572.105 190.088C563.892 186.938 561.304 179.401 561.304 168.713V167.363L561.642 141.937H553.204C550.166 141.937 547.579 139.349 547.579 136.311Z" fill="#171717"/>
<path d="M618.025 159.15C618.025 142.162 625.225 129.449 642.101 129.449C643.676 129.449 645.364 129.561 647.164 129.786C654.364 130.574 660.552 134.849 662.239 141.712V143.062C662.239 146.212 659.877 148.687 656.727 148.687C654.027 148.687 651.889 146.774 651.326 144.299C650.314 141.712 646.714 140.699 643.114 140.699C640.526 140.699 637.938 141.262 636.026 142.049C630.851 144.524 629.276 151.724 629.276 159.15C629.276 169.725 631.301 180.751 641.539 180.751C642.664 180.751 644.014 180.638 645.364 180.301C648.401 179.626 651.214 177.713 651.889 174.563C652.677 172.313 654.589 170.175 657.402 170.175C660.439 170.175 662.914 172.763 662.914 175.8V177.15C660.777 185.701 652.114 192.001 642.214 192.001C638.501 192.001 634.676 191.101 630.963 189.188C621.625 183.901 618.025 173.438 618.025 159.15Z" fill="#171717"/>
<path d="M682.998 160.387C682.998 142.612 692.786 128.774 711.124 128.774C728.9 128.774 739.25 142.612 739.25 160.387C739.25 177.938 729.125 191.776 711.124 191.776C693.011 191.776 682.998 178.163 682.998 160.387ZM694.248 160.387C694.248 171.525 699.536 180.526 711.124 180.526C722.712 180.526 728 171.525 728 160.387C728 149.137 722.487 140.024 711.124 140.024C699.649 140.024 694.248 149.249 694.248 160.387Z" fill="#171717"/>
<path d="M757.058 136.649C757.058 133.611 759.533 131.024 762.684 131.024H782.934C786.085 131.024 788.56 133.499 788.56 136.649V185.813C788.56 188.963 785.972 191.439 782.934 191.439C779.897 191.439 777.309 188.851 777.309 185.813V142.274H762.684C759.646 142.274 757.058 139.686 757.058 136.649ZM772.584 113.81V108.635C772.584 105.485 775.172 103.01 778.209 103.01H783.272C786.31 103.01 788.897 105.485 788.897 108.635V113.81C788.897 116.961 786.31 119.436 783.272 119.436H778.209C775.172 119.436 772.584 116.961 772.584 113.81Z" fill="#171717"/>
<path d="M818.785 185.813V135.299C818.785 132.261 821.372 129.786 824.41 129.786C827.447 129.786 830.035 132.261 830.035 135.299V136.311C834.76 132.149 840.836 129.336 848.486 129.336C865.361 129.336 871.887 141.037 871.887 157.8V185.813C871.887 188.851 869.187 191.439 866.262 191.439C863.224 191.439 860.636 188.963 860.636 185.813V157.8C860.636 147.674 858.724 140.587 848.486 140.587C838.923 140.587 832.848 148.574 830.035 155.775V185.813C830.035 188.851 827.447 191.439 824.41 191.439C821.372 191.439 818.785 188.851 818.785 185.813Z" fill="#171717"/>
<path d="M410.4 337.66V234.508C410.4 230.038 414.209 226.229 418.679 226.229C423.149 226.229 426.958 230.038 426.958 234.508V275.404L472.821 228.713C474.311 227.223 476.629 226.229 478.782 226.229C483.252 226.229 487.06 230.038 487.06 234.508C487.06 236.661 486.067 238.813 484.577 240.303L442.025 283.849L488.385 331.865C489.875 333.52 490.869 335.507 490.869 337.66C490.869 342.13 487.06 345.938 482.59 345.938C480.437 345.938 478.285 345.11 476.629 343.455L426.958 292.127V337.66C426.958 342.13 423.149 345.938 418.679 345.938C414.209 345.938 410.4 342.13 410.4 337.66Z" fill="#171717"/>
<path d="M510.184 338.156V263.814C510.184 259.344 513.992 255.701 518.462 255.701C522.933 255.701 526.741 259.344 526.741 263.814V265.305C533.695 259.178 542.636 255.039 553.895 255.039C578.73 255.039 588.334 272.259 588.334 296.929V338.156C588.334 342.627 584.36 346.435 580.055 346.435C575.585 346.435 571.776 342.792 571.776 338.156V296.929C571.776 282.027 568.962 271.596 553.895 271.596C539.821 271.596 530.88 283.352 526.741 293.949V338.156C526.741 342.627 522.933 346.435 518.462 346.435C513.992 346.435 510.184 342.627 510.184 338.156Z" fill="#171717"/>
<path d="M612.674 300.737C612.674 274.577 627.079 254.211 654.067 254.211C680.228 254.211 695.46 274.577 695.46 300.737C695.46 326.566 680.559 346.932 654.067 346.932C627.41 346.932 612.674 326.897 612.674 300.737ZM629.231 300.737C629.231 317.129 637.013 330.374 654.067 330.374C671.121 330.374 678.903 317.129 678.903 300.737C678.903 284.18 670.79 270.768 654.067 270.768C637.179 270.768 629.231 284.345 629.231 300.737Z" fill="#171717"/>
<path d="M711.141 265.305C711.141 260.834 714.949 257.026 719.42 257.026H732.169L732.5 240.303C732.5 235.502 736.143 232.024 740.779 232.024C745.415 232.024 749.057 235.833 749.057 240.303L748.726 257.026H773.396C777.867 257.026 781.675 260.834 781.675 265.305C781.675 269.775 777.867 273.583 773.396 273.583H748.395L747.898 311.334C747.898 322.427 747.898 329.878 759.323 329.878C762.965 329.712 766.608 328.884 769.754 327.394C770.913 326.897 772.072 326.566 773.396 326.566C777.867 326.566 781.675 330.374 781.675 334.845C781.675 343.289 770.582 346.435 760.316 346.435C755.349 346.435 750.382 345.607 747.236 344.448C735.149 339.812 731.341 328.719 731.341 312.989V311.002L731.838 273.583H719.42C714.949 273.583 711.141 269.775 711.141 265.305Z" fill="#171717"/>
<path d="M806.466 328.222C806.466 323.586 810.274 319.943 814.745 319.943C820.705 319.943 822.196 326.07 826.169 328.222C830.309 330.209 835.607 330.374 841.236 330.374C849.681 329.878 860.443 328.719 860.443 319.612C860.443 313.486 853.489 311.83 848.522 310.506C830.309 305.704 807.46 302.889 807.46 279.875C807.46 261.331 823.52 254.211 841.236 254.211H846.369C858.456 254.873 870.377 260.834 873.357 272.093C873.523 272.921 873.689 273.583 873.689 274.245C873.689 278.716 869.88 282.524 865.41 282.524C861.436 282.524 858.125 279.875 857.297 276.398C856.138 271.762 850.508 271.1 845.541 270.768H841.236C833.62 270.768 824.017 271.431 824.017 279.875C824.017 286.167 829.15 288.319 834.117 289.644C852.495 294.445 877 296.598 877 319.612C877 339.15 860.277 346.435 841.236 346.932H839.581C824.182 346.932 813.586 342.461 807.46 332.527C806.632 331.202 806.466 329.712 806.466 328.222Z" fill="#171717"/>
<defs>
<clipPath id="clip0_264_1023">
<rect width="455.382" height="455.382" fill="white" transform="translate(0 0.852783)"/>
</clipPath>
</defs>
</svg>
