<svg width="1024" height="456" viewBox="0 0 1024 456" fill="none" xmlns="http://www.w3.org/2000/svg">
<rect width="1024" height="455.309" fill="#F7931A"/>
<path d="M205.647 177.118C192.696 162.899 187.546 151.006 185.432 143.573H204.195C213.813 165.21 238.55 187.419 262.069 198.452C258.549 200.957 254.806 203.131 250.887 204.948C247.033 206.83 244.743 207.922 243.412 208.542C238.712 206.019 224.663 197.501 205.632 177.146L205.647 177.118ZM265.099 126.029C265.086 130.271 264.645 134.501 263.781 138.655C307.881 149.47 310.882 184.114 270.369 204.885C246.343 217.208 237.254 219.463 223.98 232.807C225.416 235.233 227.12 237.49 229.06 239.536C231.173 241.868 234.45 245.828 236.81 248.696C249.098 234.167 274.949 223.916 296.769 214.115C368.876 181.704 326.362 108.224 263.239 110.782C264.523 115.761 265.149 120.887 265.099 126.029ZM251.416 302.004C252.318 301.877 253.093 301.757 253.755 301.637C247.519 268.48 232.907 260.229 217.117 238.599C206.372 218.547 211.121 202.56 213.51 196.867C211.657 195.155 209.085 192.738 206.633 190.293C204.054 187.714 201.983 185.53 200.475 183.91C184.439 205.202 189.582 234.125 202.624 251.133C215.644 267.797 228.165 271.947 233.978 302.962C237.789 302.906 246.279 302.708 251.416 302.004ZM114.481 342.052L174.624 341.918C173.678 336.784 173.192 331.575 173.173 326.354C173.065 321.086 173.419 315.82 174.229 310.614C170.707 309.55 168.248 307.281 168.248 301.877V144.813C169.185 133.286 176.766 135.322 203.547 135.322C217.638 135.322 217.73 135.674 224.973 135.625C225.784 131.573 226.185 127.449 226.171 123.316C226.166 119.336 225.736 115.368 224.888 111.479H217.068C197.65 111.543 134.801 111.479 113.016 111.479C113.016 111.479 139.902 120.737 139.902 135.153V317.216C139.902 328.32 114.481 342.052 114.481 342.052ZM292.859 225.395C288.631 227.1 285.44 228.622 283.354 229.686C315.532 247.899 321.986 297.854 272.137 307.894C258.102 311.966 229.32 311.819 211.607 311.699C211.163 313.284 210.254 317.716 210.416 326.911C210.579 335.929 211.924 340.685 212.298 341.848H256.263C341.559 343.644 386.236 263.189 310.318 217.645C307.555 219.047 297.435 223.556 292.859 225.395ZM204.266 103.306C208.401 92.5051 218.209 83.7895 218.209 83.7895C236.528 98.0008 242.7 136.971 223.634 157.53C225.747 160.427 228.072 163.164 230.588 165.718C232.593 167.667 234.725 169.479 236.972 171.143C274.702 129.291 250.803 84.3672 218.209 63.8711C218.209 63.8711 195.606 77.5892 185.432 103.327L204.266 103.306ZM232.371 350.218C228.101 360.836 218.456 369.601 218.456 369.601C200.179 353.283 198.777 329.546 202.92 305.393C204.512 291.181 209.261 281.479 213.129 275.399C211.807 273.752 210.379 272.194 208.852 270.735C206.619 268.565 203.124 264.88 200.588 262.174C170.728 311.6 177.625 366.162 218.202 391.344C218.202 391.344 241.679 378.951 252.966 350.218H232.371Z" fill="#171717"/>
<path d="M410.4 185.046V120.319C410.4 117.298 412.774 114.925 415.794 114.925H434.242C440.499 114.925 446.864 115.032 452.366 118.053C458.946 121.829 462.722 129.057 462.722 136.393C462.722 141.787 460.672 147.181 456.249 151.064C461.32 155.056 464.232 161.205 464.34 167.786C464.34 174.474 461.427 180.947 456.033 185.046C449.992 189.793 442.009 190.44 434.242 190.44H415.794C412.882 190.44 410.4 188.067 410.4 185.046ZM421.188 179.652H434.242C443.627 179.652 453.552 177.711 453.552 167.786C453.336 159.479 446.001 156.458 437.37 156.458H421.188V179.652ZM421.188 145.67H437.37C444.706 145.67 452.042 143.728 452.042 136.177V135.422C451.179 126.899 443.627 125.713 434.242 125.713H421.188V145.67Z" fill="#171717"/>
<path d="M482.751 139.413C482.751 136.501 485.124 134.019 488.145 134.019H507.563C510.584 134.019 512.957 136.393 512.957 139.413V186.557C512.957 189.577 510.476 191.951 507.563 191.951C504.65 191.951 502.169 189.469 502.169 186.557V144.807H488.145C485.232 144.807 482.751 142.326 482.751 139.413ZM497.638 117.514V112.551C497.638 109.531 500.119 107.157 503.032 107.157H507.887C510.799 107.157 513.28 109.531 513.28 112.551V117.514C513.28 120.534 510.799 122.908 507.887 122.908H503.032C500.119 122.908 497.638 120.534 497.638 117.514Z" fill="#171717"/>
<path d="M541.939 139.09C541.939 136.177 544.421 133.696 547.333 133.696H555.64L555.856 122.8C555.856 119.671 558.229 117.406 561.25 117.406C564.27 117.406 566.644 119.887 566.644 122.8L566.428 133.696H582.502C585.415 133.696 587.896 136.177 587.896 139.09C587.896 142.002 585.415 144.484 582.502 144.484H566.212L565.889 169.08C565.889 176.308 565.889 181.163 573.332 181.163C575.706 181.055 578.079 180.515 580.129 179.545C580.884 179.221 581.639 179.005 582.502 179.005C585.415 179.005 587.896 181.486 587.896 184.399C587.896 189.901 580.668 191.951 573.98 191.951C570.743 191.951 567.507 191.411 565.457 190.656C557.582 187.635 555.101 180.408 555.101 170.159V168.864L555.424 144.484H547.333C544.421 144.484 541.939 142.002 541.939 139.09Z" fill="#171717"/>
<path d="M609.49 160.989C609.49 144.699 616.394 132.509 632.576 132.509C634.087 132.509 635.705 132.617 637.431 132.833C644.335 133.588 650.269 137.687 651.887 144.268V145.562C651.887 148.583 649.621 150.956 646.601 150.956C644.012 150.956 641.962 149.122 641.423 146.749C640.452 144.268 636.999 143.297 633.547 143.297C631.066 143.297 628.585 143.836 626.751 144.591C621.788 146.965 620.278 153.869 620.278 160.989C620.278 171.13 622.22 181.702 632.037 181.702C633.116 181.702 634.41 181.594 635.705 181.271C638.618 180.623 641.315 178.789 641.962 175.769C642.717 173.611 644.551 171.561 647.248 171.561C650.161 171.561 652.534 174.043 652.534 176.955V178.25C650.484 186.449 642.178 192.49 632.684 192.49C629.124 192.49 625.456 191.627 621.896 189.793C612.942 184.723 609.49 174.69 609.49 160.989Z" fill="#171717"/>
<path d="M671.792 162.176C671.792 145.131 681.177 131.862 698.762 131.862C715.807 131.862 725.732 145.131 725.732 162.176C725.732 179.005 716.023 192.274 698.762 192.274C681.393 192.274 671.792 179.221 671.792 162.176ZM682.58 162.176C682.58 172.856 687.65 181.486 698.762 181.486C709.873 181.486 714.944 172.856 714.944 162.176C714.944 151.388 709.658 142.65 698.762 142.65C687.758 142.65 682.58 151.496 682.58 162.176Z" fill="#171717"/>
<path d="M742.808 139.413C742.808 136.501 745.181 134.019 748.202 134.019H767.62C770.641 134.019 773.014 136.393 773.014 139.413V186.557C773.014 189.577 770.533 191.951 767.62 191.951C764.708 191.951 762.226 189.469 762.226 186.557V144.807H748.202C745.289 144.807 742.808 142.326 742.808 139.413ZM757.695 117.514V112.551C757.695 109.531 760.177 107.157 763.089 107.157H767.944C770.857 107.157 773.338 109.531 773.338 112.551V117.514C773.338 120.534 770.857 122.908 767.944 122.908H763.089C760.177 122.908 757.695 120.534 757.695 117.514Z" fill="#171717"/>
<path d="M801.997 186.557V138.119C801.997 135.206 804.478 132.833 807.391 132.833C810.304 132.833 812.785 135.206 812.785 138.119V139.09C817.316 135.098 823.141 132.401 830.477 132.401C846.659 132.401 852.916 143.621 852.916 159.695V186.557C852.916 189.469 850.327 191.951 847.522 191.951C844.609 191.951 842.128 189.577 842.128 186.557V159.695C842.128 149.985 840.294 143.189 830.477 143.189C821.307 143.189 815.482 150.849 812.785 157.753V186.557C812.785 189.469 810.304 191.951 807.391 191.951C804.478 191.951 801.997 189.469 801.997 186.557Z" fill="#171717"/>
<path d="M410.4 332.161V233.25C410.4 228.963 414.052 225.311 418.339 225.311C422.625 225.311 426.277 228.963 426.277 233.25V272.465L470.255 227.693C471.684 226.264 473.907 225.311 475.971 225.311C480.257 225.311 483.909 228.963 483.909 233.25C483.909 235.314 482.956 237.378 481.528 238.807L440.725 280.562L485.179 326.604C486.608 328.192 487.561 330.097 487.561 332.161C487.561 336.448 483.909 340.099 479.622 340.099C477.558 340.099 475.494 339.305 473.907 337.718L426.277 288.5V332.161C426.277 336.448 422.625 340.099 418.339 340.099C414.052 340.099 410.4 336.448 410.4 332.161Z" fill="#171717"/>
<path d="M506.082 332.637V261.351C506.082 257.065 509.733 253.572 514.02 253.572C518.307 253.572 521.958 257.065 521.958 261.351V262.78C528.626 256.906 537.2 252.937 547.996 252.937C571.811 252.937 581.019 269.448 581.019 293.104V332.637C581.019 336.924 577.209 340.576 573.081 340.576C568.794 340.576 565.143 337.083 565.143 332.637V293.104C565.143 278.816 562.444 268.813 547.996 268.813C534.501 268.813 525.927 280.086 521.958 290.247V332.637C521.958 336.924 518.307 340.576 514.02 340.576C509.733 340.576 506.082 336.924 506.082 332.637Z" fill="#171717"/>
<path d="M604.359 296.756C604.359 271.671 618.172 252.143 644.051 252.143C669.136 252.143 683.742 271.671 683.742 296.756C683.742 321.524 669.453 341.052 644.051 341.052C618.489 341.052 604.359 321.841 604.359 296.756ZM620.236 296.756C620.236 312.474 627.698 325.175 644.051 325.175C660.404 325.175 667.866 312.474 667.866 296.756C667.866 280.88 660.086 268.019 644.051 268.019C627.857 268.019 620.236 281.038 620.236 296.756Z" fill="#171717"/>
<path d="M698.778 262.78C698.778 258.494 702.43 254.842 706.717 254.842H718.942L719.259 238.807C719.259 234.202 722.752 230.868 727.198 230.868C731.643 230.868 735.136 234.52 735.136 238.807L734.818 254.842H758.475C762.761 254.842 766.413 258.494 766.413 262.78C766.413 267.067 762.761 270.718 758.475 270.718H734.501L734.025 306.917C734.025 317.554 734.024 324.699 744.979 324.699C748.472 324.54 751.965 323.746 754.982 322.317C756.093 321.841 757.204 321.524 758.475 321.524C762.761 321.524 766.413 325.175 766.413 329.462C766.413 337.559 755.775 340.576 745.932 340.576C741.169 340.576 736.406 339.782 733.389 338.67C721.8 334.225 718.148 323.588 718.148 308.505V306.6L718.624 270.718H706.717C702.43 270.718 698.778 267.067 698.778 262.78Z" fill="#171717"/>
<path d="M790.185 323.111C790.185 318.666 793.836 315.173 798.123 315.173C803.839 315.173 805.268 321.047 809.078 323.111C813.047 325.016 818.128 325.175 823.526 325.175C831.623 324.699 841.943 323.588 841.943 314.855C841.943 308.981 835.274 307.393 830.511 306.123C813.047 301.519 791.137 298.82 791.137 276.752C791.137 258.97 806.538 252.143 823.526 252.143H828.447C840.037 252.778 851.469 258.494 854.326 269.29C854.485 270.083 854.644 270.718 854.644 271.354C854.644 275.64 850.992 279.292 846.706 279.292C842.895 279.292 839.72 276.752 838.926 273.418C837.815 268.972 832.417 268.337 827.654 268.019H823.526C816.222 268.019 807.014 268.655 807.014 276.752C807.014 282.785 811.936 284.849 816.699 286.119C834.322 290.723 857.819 292.787 857.819 314.855C857.819 333.59 841.784 340.576 823.526 341.052H821.938C807.173 341.052 797.012 336.765 791.137 327.239C790.344 325.969 790.185 324.54 790.185 323.111Z" fill="#171717"/>
</svg>
