<svg width="1024" height="397" viewBox="0 0 1024 397" fill="none" xmlns="http://www.w3.org/2000/svg">
<path d="M212.504 255.591C209.052 242.607 193.518 233.213 185.864 222.54C174.802 207.117 175.114 186.168 188.51 169.812C192.404 174.174 193.339 175.034 198.634 179.937C189.417 191.509 188.705 202.637 195.152 212.831C204.531 227.662 223.459 235.569 226.544 255.328C226.544 255.328 219.535 255.483 212.504 255.591Z" fill="#171717"/>
<path d="M242.588 206.261C252.713 214.361 263.21 222.526 262.827 235.387C262.264 254.301 247.518 261.557 227.479 261.87C225.062 261.907 197.884 262.025 197.884 262.025C196.663 269.219 197.027 275.483 199.127 280.947C199.127 280.947 232.831 281.041 232.746 281.041C263.696 281.041 288.667 266.342 288.667 235.387C288.667 216.957 276.701 205.794 260.034 195.514C253.492 199.408 248.04 202.367 242.588 206.261Z" fill="#171717"/>
<path d="M212.993 222.928C209.855 219.987 205.672 216.231 202.868 212.959C227.507 180.872 257.104 180.405 257.707 156.111C258.026 143.234 246.938 136.077 234.584 133.731C235.679 126.85 235.366 121.846 234.271 116.217C256.634 116.686 279.715 132.167 279.715 156.111C279.715 190.218 242.42 187.629 212.993 222.928Z" fill="#171717"/>
<path d="M171.758 262.201H161.395L161.402 132.481C161.402 132.481 192.903 132.481 208.311 132.481C209.875 127.008 209.583 121.397 207.818 116.126H130.126V118.033C141.072 126.538 143.067 133.438 143.067 146.272V250.71C143.067 262.238 140.134 271.346 130.126 278.938V280.845C130.126 280.845 159.12 280.814 172.008 280.845C170.831 273.981 170.714 268.881 171.758 262.201Z" fill="#171717"/>
<path d="M203.08 96.7452C209.975 103.619 214.596 113.357 215.264 123.086C215.899 132.318 212.273 141.823 206.905 149.369C209.962 152.9 213.626 156.007 217.07 158.752C223.846 149.962 227.946 140.053 228.592 128.915C229.779 108.453 219.847 92.3972 202.972 81.688C191.164 88.8984 183.917 97.0567 179.226 109.649C184.138 109.649 189.137 109.638 194.082 109.649C195.802 105.114 199.582 100.14 203.08 96.7452Z" fill="#171717"/>
<path d="M211.89 287.475C209.659 292.032 206.632 296.835 202.991 300.369C196.095 293.495 191.474 283.445 190.806 273.717C190.172 264.484 191.787 253.651 197.416 244.424C193.834 240.686 190.563 237.726 187.136 234.611C180.412 245.401 178.124 256.749 177.478 267.888C176.342 287.475 186.652 305.029 203.098 315.115C214.055 308.424 222.556 299.66 226.682 287.507C221.769 287.507 216.856 287.507 211.911 287.496L211.89 287.475Z" fill="#171717"/>
<path d="M232.395 177.674C222.473 170.649 200.128 158.919 193.37 139.361H178.952C184.009 161.034 201.887 174.743 218.164 188.228C222.699 184.242 226.453 181.897 232.395 177.674Z" fill="#171717"/>
<path d="M347.641 262.677V140.646C347.641 135.357 352.147 130.852 357.435 130.852C362.724 130.852 367.229 135.357 367.229 140.646V189.028L421.487 133.79C423.25 132.028 425.992 130.852 428.538 130.852C433.827 130.852 438.332 135.357 438.332 140.646C438.332 143.193 437.157 145.739 435.394 147.502L385.054 199.017L439.899 255.822C441.662 257.78 442.837 260.131 442.837 262.677C442.837 267.966 438.332 272.471 433.044 272.471C430.497 272.471 427.951 271.492 425.992 269.533L367.229 208.811V262.677C367.229 267.966 362.724 272.471 357.435 272.471C352.147 272.471 347.641 267.966 347.641 262.677Z" fill="#171717"/>
<path d="M465.688 263.265V175.316C465.688 170.028 470.193 165.718 475.482 165.718C480.77 165.718 485.275 170.028 485.275 175.316V177.079C493.502 169.832 504.079 164.935 517.399 164.935C546.781 164.935 558.141 185.306 558.141 214.492V263.265C558.141 268.554 553.44 273.059 548.348 273.059C543.059 273.059 538.554 268.749 538.554 263.265V214.492C538.554 196.863 535.224 184.522 517.399 184.522C500.75 184.522 490.172 198.43 485.275 210.966V263.265C485.275 268.554 480.77 273.059 475.482 273.059C470.193 273.059 465.688 268.554 465.688 263.265Z" fill="#171717"/>
<path d="M586.937 218.997C586.937 188.048 603.978 163.955 635.906 163.955C666.855 163.955 684.875 188.048 684.875 218.997C684.875 249.553 667.246 273.646 635.906 273.646C604.37 273.646 586.937 249.945 586.937 218.997ZM606.525 218.997C606.525 238.389 615.731 254.059 635.906 254.059C656.081 254.059 665.288 238.389 665.288 218.997C665.288 199.409 655.69 183.543 635.906 183.543C615.927 183.543 606.525 199.605 606.525 218.997Z" fill="#171717"/>
<path d="M703.426 177.079C703.426 171.79 707.931 167.285 713.22 167.285H728.302L728.694 147.502C728.694 141.821 733.003 137.708 738.488 137.708C743.973 137.708 748.282 142.213 748.282 147.502L747.89 167.285H777.076C782.364 167.285 786.869 171.79 786.869 177.079C786.869 182.368 782.364 186.873 777.076 186.873H747.498L746.911 231.533C746.911 244.657 746.911 253.471 760.426 253.471C764.735 253.275 769.045 252.296 772.766 250.533C774.137 249.945 775.509 249.554 777.076 249.554C782.364 249.554 786.869 254.059 786.869 259.347C786.869 269.337 773.746 273.059 761.601 273.059C755.725 273.059 749.849 272.079 746.127 270.708C731.828 265.224 727.323 252.1 727.323 233.492V231.141L727.911 186.873H713.22C707.931 186.873 703.426 182.368 703.426 177.079Z" fill="#171717"/>
<path d="M816.198 251.512C816.198 246.028 820.703 241.718 825.992 241.718C833.043 241.718 834.806 248.966 839.507 251.512C844.404 253.863 850.672 254.059 857.332 254.059C867.322 253.471 880.054 252.1 880.054 241.327C880.054 234.079 871.827 232.12 865.951 230.553C844.404 224.873 817.373 221.543 817.373 194.316C817.373 172.378 836.373 163.955 857.332 163.955H863.404C877.703 164.739 891.806 171.791 895.332 185.11C895.528 186.089 895.724 186.873 895.724 187.657C895.724 192.945 891.219 197.45 885.93 197.45C881.229 197.45 877.312 194.316 876.332 190.203C874.961 184.718 868.301 183.935 862.425 183.543H857.332C848.322 183.543 836.961 184.327 836.961 194.316C836.961 201.76 843.033 204.306 848.909 205.873C870.652 211.553 899.641 214.1 899.641 241.327C899.641 264.44 879.858 273.059 857.332 273.646H855.373C837.157 273.646 824.621 268.358 817.373 256.605C816.394 255.038 816.198 253.275 816.198 251.512Z" fill="#171717"/>
</svg>
