<svg width="1024" height="456" viewBox="0 0 1024 456" fill="none" xmlns="http://www.w3.org/2000/svg">
<path d="M205.647 177.59C192.696 163.372 187.546 151.479 185.432 144.045H204.195C213.813 165.683 238.55 187.891 262.069 198.925C258.549 201.429 254.806 203.604 250.887 205.421C247.033 207.302 244.743 208.394 243.412 209.014C238.712 206.492 224.663 197.974 205.632 177.618L205.647 177.59ZM265.099 126.501C265.086 130.744 264.645 134.974 263.781 139.127C307.881 149.943 310.882 184.587 270.369 205.358C246.343 217.681 237.254 219.935 223.98 233.28C225.416 235.705 227.12 237.962 229.06 240.009C231.173 242.341 234.45 246.301 236.81 249.168C249.098 234.64 274.949 224.388 296.769 214.588C368.876 182.177 326.362 108.697 263.239 111.254C264.523 116.233 265.149 121.36 265.099 126.501ZM251.416 302.476C252.318 302.35 253.093 302.23 253.755 302.11C247.519 268.953 232.907 260.702 217.117 239.072C206.372 219.019 211.121 203.033 213.51 197.34C211.657 195.627 209.085 193.211 206.633 190.766C204.054 188.187 201.983 186.003 200.475 184.382C184.439 205.675 189.582 234.598 202.624 251.606C215.644 268.269 228.165 272.419 233.978 303.435C237.789 303.378 246.279 303.181 251.416 302.476ZM114.481 342.525L174.624 342.391C173.678 337.256 173.192 332.048 173.173 326.827C173.065 321.559 173.419 316.292 174.229 311.086C170.707 310.022 168.248 307.754 168.248 302.35V145.285C169.185 133.759 176.766 135.795 203.547 135.795C217.638 135.795 217.73 136.147 224.973 136.098C225.784 132.045 226.185 127.922 226.171 123.789C226.166 119.809 225.736 115.841 224.888 111.952H217.068C197.65 112.015 134.801 111.952 113.016 111.952C113.016 111.952 139.902 121.21 139.902 135.626V317.688C139.902 328.792 114.481 342.525 114.481 342.525ZM292.859 225.868C288.631 227.573 285.44 229.095 283.354 230.159C315.532 248.372 321.986 298.326 272.137 308.367C258.102 312.439 229.32 312.291 211.607 312.171C211.163 313.757 210.254 318.188 210.416 327.383C210.579 336.402 211.924 341.158 212.298 342.32H256.263C341.559 344.117 386.236 263.661 310.318 218.118C307.555 219.52 297.435 224.029 292.859 225.868ZM204.266 103.779C208.401 92.9777 218.209 84.2621 218.209 84.2621C236.528 98.4734 242.7 137.444 223.634 158.003C225.747 160.9 228.072 163.637 230.588 166.19C232.593 168.139 234.725 169.952 236.972 171.615C274.702 129.764 250.803 84.8399 218.209 64.3438C218.209 64.3438 195.606 78.0618 185.432 103.8L204.266 103.779ZM232.371 350.691C228.101 361.309 218.456 370.073 218.456 370.073C200.179 353.755 198.777 330.018 202.92 305.865C204.512 291.654 209.261 281.952 213.129 275.872C211.807 274.225 210.379 272.667 208.852 271.207C206.619 269.037 203.124 265.352 200.588 262.647C170.728 312.073 177.625 366.635 218.202 391.817C218.202 391.817 241.679 379.423 252.966 350.691H232.371Z" fill="#171717"/>
<path d="M410.4 185.519V120.791C410.4 117.771 412.774 115.397 415.794 115.397H434.242C440.499 115.397 446.864 115.505 452.366 118.526C458.946 122.302 462.722 129.529 462.722 136.865C462.722 142.259 460.672 147.653 456.249 151.537C461.32 155.528 464.232 161.678 464.34 168.258C464.34 174.947 461.427 181.42 456.033 185.519C449.992 190.266 442.009 190.913 434.242 190.913H415.794C412.882 190.913 410.4 188.54 410.4 185.519ZM421.188 180.125H434.242C443.627 180.125 453.552 178.183 453.552 168.258C453.336 159.952 446.001 156.931 437.37 156.931H421.188V180.125ZM421.188 146.143H437.37C444.706 146.143 452.042 144.201 452.042 136.65V135.894C451.179 127.372 443.627 126.185 434.242 126.185H421.188V146.143Z" fill="#171717"/>
<path d="M482.751 139.886C482.751 136.973 485.124 134.492 488.145 134.492H507.563C510.584 134.492 512.957 136.865 512.957 139.886V187.029C512.957 190.05 510.476 192.423 507.563 192.423C504.65 192.423 502.169 189.942 502.169 187.029V145.28H488.145C485.232 145.28 482.751 142.799 482.751 139.886ZM497.638 117.986V113.024C497.638 110.003 500.119 107.63 503.032 107.63H507.887C510.799 107.63 513.28 110.003 513.28 113.024V117.986C513.28 121.007 510.799 123.38 507.887 123.38H503.032C500.119 123.38 497.638 121.007 497.638 117.986Z" fill="#171717"/>
<path d="M541.939 139.562C541.939 136.65 544.421 134.168 547.333 134.168H555.64L555.856 123.272C555.856 120.144 558.229 117.878 561.25 117.878C564.27 117.878 566.644 120.36 566.644 123.272L566.428 134.168H582.502C585.415 134.168 587.896 136.65 587.896 139.562C587.896 142.475 585.415 144.956 582.502 144.956H566.212L565.889 169.553C565.889 176.781 565.889 181.635 573.332 181.635C575.706 181.527 578.079 180.988 580.129 180.017C580.884 179.694 581.639 179.478 582.502 179.478C585.415 179.478 587.896 181.959 587.896 184.872C587.896 190.374 580.668 192.423 573.98 192.423C570.743 192.423 567.507 191.884 565.457 191.129C557.582 188.108 555.101 180.88 555.101 170.632V169.337L555.424 144.956H547.333C544.421 144.956 541.939 142.475 541.939 139.562Z" fill="#171717"/>
<path d="M609.49 161.462C609.49 145.172 616.394 132.982 632.576 132.982C634.087 132.982 635.705 133.089 637.431 133.305C644.335 134.06 650.269 138.16 651.887 144.741V146.035C651.887 149.056 649.621 151.429 646.601 151.429C644.012 151.429 641.962 149.595 641.423 147.222C640.452 144.74 636.999 143.77 633.547 143.77C631.066 143.77 628.585 144.309 626.751 145.064C621.788 147.437 620.278 154.342 620.278 161.462C620.278 171.603 622.22 182.175 632.037 182.175C633.116 182.175 634.41 182.067 635.705 181.743C638.618 181.096 641.315 179.262 641.962 176.241C642.717 174.084 644.551 172.034 647.248 172.034C650.161 172.034 652.534 174.515 652.534 177.428V178.723C650.484 186.921 642.178 192.963 632.684 192.963C629.124 192.963 625.456 192.1 621.896 190.266C612.942 185.195 609.49 175.163 609.49 161.462Z" fill="#171717"/>
<path d="M671.792 162.649C671.792 145.604 681.177 132.334 698.762 132.334C715.807 132.334 725.732 145.604 725.732 162.649C725.732 179.478 716.023 192.747 698.762 192.747C681.393 192.747 671.792 179.694 671.792 162.649ZM682.58 162.649C682.58 173.329 687.65 181.959 698.762 181.959C709.873 181.959 714.944 173.329 714.944 162.649C714.944 151.861 709.658 143.122 698.762 143.122C687.758 143.122 682.58 151.968 682.58 162.649Z" fill="#171717"/>
<path d="M742.808 139.886C742.808 136.973 745.181 134.492 748.202 134.492H767.62C770.641 134.492 773.014 136.865 773.014 139.886V187.029C773.014 190.05 770.533 192.423 767.62 192.423C764.708 192.423 762.226 189.942 762.226 187.029V145.28H748.202C745.289 145.28 742.808 142.799 742.808 139.886ZM757.695 117.986V113.024C757.695 110.003 760.177 107.63 763.089 107.63H767.944C770.857 107.63 773.338 110.003 773.338 113.024V117.986C773.338 121.007 770.857 123.38 767.944 123.38H763.089C760.177 123.38 757.695 121.007 757.695 117.986Z" fill="#171717"/>
<path d="M801.997 187.029V138.591C801.997 135.679 804.478 133.305 807.391 133.305C810.304 133.305 812.785 135.679 812.785 138.591V139.562C817.316 135.571 823.141 132.874 830.477 132.874C846.659 132.874 852.916 144.093 852.916 160.167V187.029C852.916 189.942 850.327 192.423 847.522 192.423C844.609 192.423 842.128 190.05 842.128 187.029V160.167C842.128 150.458 840.294 143.662 830.477 143.662C821.307 143.662 815.482 151.321 812.785 158.225V187.029C812.785 189.942 810.304 192.423 807.391 192.423C804.478 192.423 801.997 189.942 801.997 187.029Z" fill="#171717"/>
<path d="M410.4 332.634V233.722C410.4 229.436 414.052 225.784 418.339 225.784C422.625 225.784 426.277 229.436 426.277 233.722V272.938L470.255 228.166C471.684 226.737 473.907 225.784 475.971 225.784C480.257 225.784 483.909 229.436 483.909 233.722C483.909 235.786 482.956 237.85 481.528 239.279L440.725 281.035L485.179 327.077C486.608 328.664 487.561 330.57 487.561 332.634C487.561 336.92 483.909 340.572 479.622 340.572C477.558 340.572 475.494 339.778 473.907 338.19L426.277 288.973V332.634C426.277 336.92 422.625 340.572 418.339 340.572C414.052 340.572 410.4 336.92 410.4 332.634Z" fill="#171717"/>
<path d="M506.082 333.11V261.824C506.082 257.537 509.733 254.044 514.02 254.044C518.307 254.044 521.958 257.537 521.958 261.824V263.253C528.626 257.379 537.2 253.409 547.996 253.409C571.811 253.409 581.019 269.921 581.019 293.577V333.11C581.019 337.397 577.209 341.048 573.081 341.048C568.794 341.048 565.143 337.555 565.143 333.11V293.577C565.143 279.288 562.444 269.286 547.996 269.286C534.501 269.286 525.927 280.558 521.958 290.719V333.11C521.958 337.397 518.307 341.048 514.02 341.048C509.733 341.048 506.082 337.397 506.082 333.11Z" fill="#171717"/>
<path d="M604.359 297.229C604.359 272.144 618.172 252.616 644.051 252.616C669.136 252.616 683.742 272.144 683.742 297.229C683.742 321.996 669.453 341.525 644.051 341.525C618.489 341.525 604.359 322.314 604.359 297.229ZM620.236 297.229C620.236 312.947 627.698 325.648 644.051 325.648C660.404 325.648 667.866 312.947 667.866 297.229C667.866 281.352 660.086 268.492 644.051 268.492C627.857 268.492 620.236 281.511 620.236 297.229Z" fill="#171717"/>
<path d="M698.778 263.253C698.778 258.966 702.43 255.315 706.717 255.315H718.942L719.259 239.279C719.259 234.675 722.752 231.341 727.198 231.341C731.643 231.341 735.136 234.993 735.136 239.279L734.818 255.315H758.475C762.761 255.315 766.413 258.966 766.413 263.253C766.413 267.54 762.761 271.191 758.475 271.191H734.501L734.025 307.39C734.025 318.027 734.024 325.172 744.979 325.172C748.472 325.013 751.965 324.219 754.982 322.79C756.093 322.314 757.204 321.996 758.475 321.996C762.761 321.996 766.413 325.648 766.413 329.935C766.413 338.032 755.775 341.048 745.932 341.048C741.169 341.048 736.406 340.254 733.389 339.143C721.8 334.698 718.148 324.06 718.148 308.977V307.072L718.624 271.191H706.717C702.43 271.191 698.778 267.54 698.778 263.253Z" fill="#171717"/>
<path d="M790.185 323.584C790.185 319.139 793.836 315.646 798.123 315.646C803.839 315.646 805.268 321.52 809.078 323.584C813.047 325.489 818.128 325.648 823.526 325.648C831.623 325.172 841.943 324.06 841.943 315.328C841.943 309.454 835.274 307.866 830.511 306.596C813.047 301.992 791.137 299.293 791.137 277.224C791.137 259.442 806.538 252.616 823.526 252.616H828.447C840.037 253.251 851.469 258.966 854.326 269.762C854.485 270.556 854.644 271.191 854.644 271.826C854.644 276.113 850.992 279.765 846.706 279.765C842.895 279.765 839.72 277.224 838.926 273.89C837.815 269.445 832.417 268.81 827.654 268.492H823.526C816.222 268.492 807.014 269.127 807.014 277.224C807.014 283.257 811.936 285.321 816.699 286.591C834.322 291.196 857.819 293.26 857.819 315.328C857.819 334.062 841.784 341.048 823.526 341.525H821.938C807.173 341.525 797.012 337.238 791.137 327.712C790.344 326.442 790.185 325.013 790.185 323.584Z" fill="#171717"/>
</svg>
