<svg width="1024" height="456" viewBox="0 0 1024 456" fill="none" xmlns="http://www.w3.org/2000/svg">
<path d="M202.259 190.995C193.834 181.745 190.483 174.008 189.108 169.172H201.315C207.571 183.248 223.665 197.696 238.965 204.874C236.675 206.503 234.24 207.918 231.691 209.1C229.183 210.324 227.694 211.034 226.827 211.438C223.77 209.797 214.63 204.255 202.25 191.013L202.259 190.995ZM240.936 157.758C240.928 160.518 240.641 163.27 240.079 165.972C268.768 173.008 270.721 195.546 244.364 209.059C228.734 217.076 222.821 218.542 214.186 227.224C215.12 228.802 216.229 230.27 217.49 231.601C218.866 233.119 220.997 235.695 222.532 237.56C230.526 228.109 247.344 221.439 261.539 215.063C308.449 193.979 280.791 146.175 239.726 147.839C240.562 151.078 240.969 154.413 240.936 157.758ZM232.034 272.24C232.621 272.158 233.125 272.08 233.556 272.002C229.5 250.431 219.993 245.064 209.721 230.992C202.731 217.947 205.82 207.546 207.374 203.843C206.169 202.729 204.496 201.157 202.901 199.566C201.223 197.888 199.875 196.468 198.895 195.413C188.462 209.265 191.808 228.081 200.293 239.146C208.763 249.986 216.908 252.686 220.69 272.864C223.17 272.827 228.693 272.698 232.034 272.24ZM142.951 298.294L182.077 298.207C181.461 294.866 181.145 291.478 181.133 288.081C181.063 284.654 181.293 281.228 181.82 277.841C179.529 277.149 177.929 275.673 177.929 272.158V169.978C178.538 162.48 183.47 163.804 200.893 163.804C210.06 163.804 210.12 164.033 214.832 164.001C215.36 161.365 215.621 158.682 215.611 155.994C215.608 153.404 215.328 150.823 214.777 148.293H209.689C197.056 148.334 156.17 148.293 141.997 148.293C141.997 148.293 159.489 154.316 159.489 163.694V282.136C159.489 289.36 142.951 298.294 142.951 298.294ZM258.996 222.402C256.245 223.511 254.169 224.501 252.812 225.193C273.746 237.042 277.944 269.54 245.515 276.072C236.384 278.721 217.66 278.625 206.137 278.547C205.848 279.579 205.257 282.462 205.362 288.443C205.467 294.31 206.343 297.404 206.586 298.161H235.188C290.678 299.33 319.743 246.989 270.354 217.36C268.556 218.272 261.973 221.206 258.996 222.402ZM201.361 142.976C204.051 135.949 210.432 130.279 210.432 130.279C222.349 139.525 226.364 164.877 213.961 178.252C215.336 180.137 216.848 181.917 218.485 183.578C219.789 184.846 221.176 186.025 222.638 187.108C247.183 159.881 231.636 130.655 210.432 117.321C210.432 117.321 195.727 126.246 189.108 142.99L201.361 142.976ZM219.645 303.606C216.867 310.514 210.592 316.216 210.592 316.216C198.702 305.6 197.79 290.158 200.485 274.445C201.521 265.2 204.61 258.888 207.127 254.932C206.267 253.861 205.337 252.847 204.344 251.898C202.891 250.486 200.618 248.089 198.968 246.329C179.542 278.483 184.03 313.979 210.427 330.361C210.427 330.361 225.7 322.298 233.043 303.606H219.645Z" fill="white"/>
<path d="M343.705 285.317V168.719C343.705 163.666 348.009 159.361 353.063 159.361C358.116 159.361 362.42 163.666 362.42 168.719V214.947L414.263 162.169C415.947 160.484 418.567 159.361 421 159.361C426.053 159.361 430.358 163.666 430.358 168.719C430.358 171.152 429.235 173.585 427.551 175.27L379.452 224.492L431.855 278.767C433.54 280.638 434.663 282.884 434.663 285.317C434.663 290.371 430.358 294.675 425.305 294.675C422.872 294.675 420.439 293.739 418.567 291.868L362.42 233.849V285.317C362.42 290.371 358.116 294.675 353.063 294.675C348.009 294.675 343.705 290.371 343.705 285.317Z" fill="white"/>
<path d="M456.495 285.879V201.846C456.495 196.793 460.8 192.675 465.853 192.675C470.906 192.675 475.211 196.793 475.211 201.846V203.53C483.072 196.605 493.178 191.926 505.905 191.926C533.978 191.926 544.833 211.391 544.833 239.277V285.879C544.833 290.932 540.341 295.237 535.475 295.237C530.422 295.237 526.117 291.119 526.117 285.879V239.277C526.117 222.433 522.936 210.642 505.905 210.642C489.996 210.642 479.89 223.93 475.211 235.908V285.879C475.211 290.932 470.906 295.237 465.853 295.237C460.8 295.237 456.495 290.932 456.495 285.879Z" fill="white"/>
<path d="M572.347 243.582C572.347 214.011 588.629 190.991 619.136 190.991C648.706 190.991 665.925 214.011 665.925 243.582C665.925 272.778 649.081 295.798 619.136 295.798C589.003 295.798 572.347 273.152 572.347 243.582ZM591.062 243.582C591.062 262.11 599.859 277.082 619.136 277.082C638.413 277.082 647.209 262.11 647.209 243.582C647.209 224.866 638.038 209.706 619.136 209.706C600.046 209.706 591.062 225.053 591.062 243.582Z" fill="white"/>
<path d="M683.65 203.53C683.65 198.477 687.954 194.172 693.007 194.172H707.418L707.793 175.27C707.793 169.842 711.91 165.912 717.151 165.912C722.391 165.912 726.508 170.216 726.508 175.27L726.134 194.172H754.02C759.074 194.172 763.378 198.477 763.378 203.53C763.378 208.583 759.074 212.888 754.02 212.888H725.76L725.198 255.56C725.198 268.099 725.198 276.521 738.112 276.521C742.229 276.334 746.347 275.398 749.903 273.714C751.213 273.152 752.523 272.778 754.02 272.778C759.074 272.778 763.378 277.082 763.378 282.136C763.378 291.681 750.839 295.237 739.235 295.237C733.62 295.237 728.006 294.301 724.45 292.991C710.787 287.75 706.483 275.211 706.483 257.431V255.185L707.044 212.888H693.007C687.954 212.888 683.65 208.583 683.65 203.53Z" fill="white"/>
<path d="M791.401 274.649C791.401 269.409 795.706 265.292 800.759 265.292C807.496 265.292 809.181 272.216 813.673 274.649C818.351 276.895 824.34 277.082 830.704 277.082C840.249 276.521 852.414 275.211 852.414 264.917C852.414 257.993 844.553 256.121 838.939 254.624C818.351 249.196 792.524 246.015 792.524 220C792.524 199.038 810.678 190.991 830.704 190.991H836.506C850.168 191.739 863.643 198.477 867.012 211.204C867.199 212.139 867.386 212.888 867.386 213.637C867.386 218.69 863.082 222.994 858.029 222.994C853.537 222.994 849.794 220 848.858 216.07C847.548 210.829 841.184 210.081 835.57 209.706H830.704C822.095 209.706 811.239 210.455 811.239 220C811.239 227.112 817.041 229.545 822.656 231.042C843.43 236.47 871.129 238.903 871.129 264.917C871.129 287.002 852.227 295.237 830.704 295.798H828.832C811.427 295.798 799.449 290.745 792.524 279.516C791.588 278.018 791.401 276.334 791.401 274.649Z" fill="white"/>
</svg>
