<svg width="462" height="245" viewBox="0 0 462 245" fill="none" xmlns="http://www.w3.org/2000/svg">
<path d="M0 80.2553V13.5611C0 10.4488 2.44543 8.0033 5.55783 8.0033H24.5657C31.0128 8.0033 37.571 8.11446 43.24 11.2269C50.0206 15.1173 53.9111 22.5649 53.9111 30.1235C53.9111 35.6814 51.7991 41.2392 47.2417 45.2409C52.4661 49.3537 55.4673 55.6896 55.5784 62.4702C55.5784 69.3619 52.5772 76.0313 47.0193 80.2553C40.7946 85.1462 32.569 85.8132 24.5657 85.8132H5.55783C2.55659 85.8132 0 83.3677 0 80.2553ZM11.1157 74.6974H24.5657C34.2363 74.6974 44.4628 72.6966 44.4628 62.4702C44.2404 53.9111 36.6818 50.7987 27.7892 50.7987H11.1157V74.6974ZM11.1157 39.683H27.7892C35.3479 39.683 42.9066 37.6822 42.9066 29.9012V29.1231C42.0173 20.3417 34.2363 19.119 24.5657 19.119H11.1157V39.683Z" fill="#171717"/>
<path d="M74.548 33.2359C74.548 30.2347 76.9935 27.6781 80.1059 27.6781H100.114C103.227 27.6781 105.672 30.1235 105.672 33.2359V81.8115C105.672 84.9239 103.115 87.3693 100.114 87.3693C97.1129 87.3693 94.5563 84.8127 94.5563 81.8115V38.7938H80.1059C77.1047 38.7938 74.548 36.2372 74.548 33.2359ZM89.8877 10.6711V5.55785C89.8877 2.44545 92.4443 0 95.4456 0H100.448C103.449 0 106.005 2.44545 106.005 5.55785V10.6711C106.005 13.7835 103.449 16.2289 100.448 16.2289H95.4456C92.4443 16.2289 89.8877 13.7835 89.8877 10.6711Z" fill="#171717"/>
<path d="M135.535 32.9025C135.535 29.9012 138.092 27.3446 141.093 27.3446H149.652L149.874 16.1178C149.874 12.8942 152.32 10.5599 155.432 10.5599C158.544 10.5599 160.99 13.1165 160.99 16.1178L160.768 27.3446H177.33C180.331 27.3446 182.888 29.9012 182.888 32.9025C182.888 35.9037 180.331 38.4603 177.33 38.4603H160.545L160.212 63.8041C160.212 71.2516 160.212 76.2537 167.882 76.2537C170.327 76.1425 172.773 75.5867 174.885 74.5863C175.663 74.2528 176.441 74.0305 177.33 74.0305C180.331 74.0305 182.888 76.5871 182.888 79.5884C182.888 85.2574 175.44 87.3693 168.549 87.3693C165.214 87.3693 161.879 86.8136 159.767 86.0355C151.653 82.9231 149.096 75.4755 149.096 64.9156V63.5818L149.43 38.4603H141.093C138.092 38.4603 135.535 35.9037 135.535 32.9025Z" fill="#171717"/>
<path d="M205.138 55.4673C205.138 38.6826 212.252 26.1219 228.925 26.1219C230.482 26.1219 232.149 26.233 233.927 26.4553C241.042 27.2334 247.155 31.4574 248.822 38.238V39.5719C248.822 42.6843 246.488 45.1297 243.376 45.1297C240.708 45.1297 238.596 43.24 238.04 40.7946C237.04 38.238 233.483 37.2376 229.926 37.2376C227.369 37.2376 224.813 37.7934 222.923 38.5714C217.81 41.0169 216.254 48.131 216.254 55.4673C216.254 65.9161 218.254 76.8094 228.37 76.8094C229.481 76.8094 230.815 76.6983 232.149 76.3648C235.15 75.6979 237.929 73.8082 238.596 70.6958C239.374 68.4727 241.264 66.3607 244.043 66.3607C247.044 66.3607 249.489 68.9173 249.489 71.9185V73.2524C247.377 81.7003 238.818 87.9251 229.037 87.9251C225.368 87.9251 221.589 87.0359 217.921 85.1462C208.695 79.9218 205.138 69.5842 205.138 55.4673Z" fill="#171717"/>
<path d="M269.332 56.69C269.332 39.1272 279.003 25.4549 297.121 25.4549C314.684 25.4549 324.911 39.1272 324.911 56.69C324.911 74.0305 314.907 87.7028 297.121 87.7028C279.225 87.7028 269.332 74.2528 269.332 56.69ZM280.448 56.69C280.448 67.6946 285.672 76.5871 297.121 76.5871C308.571 76.5871 313.795 67.6946 313.795 56.69C313.795 45.5743 308.348 36.5706 297.121 36.5706C285.783 36.5706 280.448 45.6855 280.448 56.69Z" fill="#171717"/>
<path d="M342.506 33.2359C342.506 30.2347 344.951 27.6781 348.064 27.6781H368.072C371.184 27.6781 373.63 30.1235 373.63 33.2359V81.8115C373.63 84.9239 371.073 87.3693 368.072 87.3693C365.071 87.3693 362.514 84.8127 362.514 81.8115V38.7938H348.064C345.062 38.7938 342.506 36.2372 342.506 33.2359ZM357.845 10.6711V5.55785C357.845 2.44545 360.402 0 363.403 0H368.405C371.407 0 373.963 2.44545 373.963 5.55785V10.6711C373.963 13.7835 371.407 16.2289 368.405 16.2289H363.403C360.402 16.2289 357.845 13.7835 357.845 10.6711Z" fill="#171717"/>
<path d="M403.493 81.8115V31.902C403.493 28.9008 406.049 26.4553 409.05 26.4553C412.052 26.4553 414.608 28.9008 414.608 31.902V32.9025C419.277 28.7896 425.279 26.0107 432.838 26.0107C449.512 26.0107 455.959 37.571 455.959 54.1334V81.8115C455.959 84.8127 453.291 87.3693 450.401 87.3693C447.4 87.3693 444.843 84.9239 444.843 81.8115V54.1334C444.843 44.1293 442.953 37.1264 432.838 37.1264C423.39 37.1264 417.387 45.0186 414.608 52.1326V81.8115C414.608 84.8127 412.052 87.3693 409.05 87.3693C406.049 87.3693 403.493 84.8127 403.493 81.8115Z" fill="#171717"/>
<path d="M0 230.835V128.919C0 124.502 3.76253 120.739 8.17944 120.739C12.5963 120.739 16.3589 124.502 16.3589 128.919V169.325L61.6731 123.193C63.1454 121.721 65.4356 120.739 67.5623 120.739C71.9792 120.739 75.7418 124.502 75.7418 128.919C75.7418 131.045 74.7602 133.172 73.2879 134.644L31.2455 177.668L77.0505 225.109C78.5228 226.745 79.5043 228.708 79.5043 230.835C79.5043 235.252 75.7418 239.014 71.3248 239.014C69.1982 239.014 67.0715 238.196 65.4356 236.56L16.3589 185.848V230.835C16.3589 235.252 12.5963 239.014 8.17944 239.014C3.76253 239.014 0 235.252 0 230.835Z" fill="#171717"/>
<path d="M98.588 231.326V157.874C98.588 153.457 102.351 149.858 106.767 149.858C111.184 149.858 114.947 153.457 114.947 157.874V159.346C121.818 153.294 130.651 149.204 141.775 149.204C166.314 149.204 175.802 166.217 175.802 190.592V231.326C175.802 235.743 171.876 239.505 167.623 239.505C163.206 239.505 159.443 235.906 159.443 231.326V190.592C159.443 175.869 156.662 165.563 141.775 165.563C127.87 165.563 119.037 177.178 114.947 187.647V231.326C114.947 235.743 111.184 239.505 106.767 239.505C102.351 239.505 98.588 235.743 98.588 231.326Z" fill="#171717"/>
<path d="M199.851 194.354C199.851 168.507 214.083 148.386 240.748 148.386C266.595 148.386 281.646 168.507 281.646 194.354C281.646 219.874 266.922 239.996 240.748 239.996C214.41 239.996 199.851 220.202 199.851 194.354ZM216.21 194.354C216.21 210.55 223.899 223.637 240.748 223.637C257.598 223.637 265.287 210.55 265.287 194.354C265.287 177.996 257.271 164.745 240.748 164.745C224.062 164.745 216.21 178.159 216.21 194.354Z" fill="#171717"/>
<path d="M297.139 159.346C297.139 154.929 300.901 151.167 305.318 151.167H317.914L318.242 134.644C318.242 129.9 321.841 126.465 326.421 126.465C331.002 126.465 334.6 130.228 334.6 134.644L334.273 151.167H358.648C363.065 151.167 366.828 154.929 366.828 159.346C366.828 163.763 363.065 167.526 358.648 167.526H333.946L333.455 204.824C333.455 215.785 333.455 223.146 344.743 223.146C348.342 222.983 351.941 222.165 355.049 220.692C356.194 220.202 357.339 219.874 358.648 219.874C363.065 219.874 366.828 223.637 366.828 228.054C366.828 236.397 355.867 239.505 345.725 239.505C340.817 239.505 335.909 238.687 332.801 237.542C320.859 232.961 317.097 222.001 317.097 206.46V204.497L317.587 167.526H305.318C300.901 167.526 297.139 163.763 297.139 159.346Z" fill="#171717"/>
<path d="M391.322 221.51C391.322 216.93 395.084 213.331 399.501 213.331C405.39 213.331 406.863 219.384 410.789 221.51C414.879 223.473 420.113 223.637 425.675 223.637C434.018 223.146 444.652 222.001 444.652 213.004C444.652 206.951 437.781 205.315 432.873 204.006C414.879 199.262 392.303 196.481 392.303 173.742C392.303 155.42 408.171 148.386 425.675 148.386H430.747C442.689 149.04 454.467 154.93 457.412 166.054C457.575 166.872 457.739 167.526 457.739 168.18C457.739 172.597 453.976 176.36 449.559 176.36C445.633 176.36 442.362 173.742 441.544 170.307C440.398 165.726 434.836 165.072 429.929 164.745H425.675C418.15 164.745 408.662 165.399 408.662 173.742C408.662 179.959 413.733 182.085 418.641 183.394C436.8 188.138 461.011 190.265 461.011 213.004C461.011 232.307 444.488 239.505 425.675 239.996H424.04C408.826 239.996 398.356 235.579 392.303 225.764C391.485 224.455 391.322 222.983 391.322 221.51Z" fill="#171717"/>
</svg>
