<svg width="462" height="246" viewBox="0 0 462 246" fill="none" xmlns="http://www.w3.org/2000/svg">
<path d="M0 80.9335V14.2394C0 11.127 2.44543 8.68152 5.55783 8.68152H24.5657C31.0128 8.68152 37.571 8.79268 43.24 11.9051C50.0206 15.7956 53.9111 23.2431 53.9111 30.8017C53.9111 36.3596 51.7991 41.9174 47.2417 45.9191C52.4661 50.0319 55.4673 56.3678 55.5784 63.1484C55.5784 70.0401 52.5772 76.7096 47.0193 80.9335C40.7946 85.8244 32.569 86.4914 24.5657 86.4914H5.55783C2.55659 86.4914 0 84.0459 0 80.9335ZM11.1157 75.3757H24.5657C34.2363 75.3757 44.4628 73.3749 44.4628 63.1484C44.2404 54.5893 36.6818 51.4769 27.7892 51.4769H11.1157V75.3757ZM11.1157 40.3612H27.7892C35.3479 40.3612 42.9066 38.3604 42.9066 30.5794V29.8013C42.0173 21.0199 34.2363 19.7972 24.5657 19.7972H11.1157V40.3612Z" fill="white"/>
<path d="M74.548 33.9141C74.548 30.9129 76.9935 28.3563 80.1059 28.3563H100.114C103.227 28.3563 105.672 30.8017 105.672 33.9141V82.4897C105.672 85.6021 103.115 88.0476 100.114 88.0476C97.1129 88.0476 94.5563 85.491 94.5563 82.4897V39.472H80.1059C77.1047 39.472 74.548 36.9154 74.548 33.9141ZM89.8877 11.3493V6.23607C89.8877 3.12367 92.4443 0.678223 95.4456 0.678223H100.448C103.449 0.678223 106.005 3.12367 106.005 6.23607V11.3493C106.005 14.4617 103.449 16.9071 100.448 16.9071H95.4456C92.4443 16.9071 89.8877 14.4617 89.8877 11.3493Z" fill="white"/>
<path d="M135.535 33.5807C135.535 30.5794 138.092 28.0228 141.093 28.0228H149.652L149.874 16.796C149.874 13.5724 152.32 11.2381 155.432 11.2381C158.544 11.2381 160.99 13.7947 160.99 16.796L160.768 28.0228H177.33C180.331 28.0228 182.888 30.5794 182.888 33.5807C182.888 36.5819 180.331 39.1385 177.33 39.1385H160.545L160.212 64.4823C160.212 71.9298 160.212 76.9319 167.882 76.9319C170.327 76.8207 172.773 76.2649 174.885 75.2645C175.663 74.931 176.441 74.7087 177.33 74.7087C180.331 74.7087 182.888 77.2653 182.888 80.2666C182.888 85.9356 175.44 88.0476 168.549 88.0476C165.214 88.0476 161.879 87.4918 159.767 86.7137C151.653 83.6013 149.096 76.1538 149.096 65.5939V64.26L149.43 39.1385H141.093C138.092 39.1385 135.535 36.5819 135.535 33.5807Z" fill="white"/>
<path d="M205.138 56.1455C205.138 39.3608 212.252 26.8001 228.925 26.8001C230.482 26.8001 232.149 26.9113 233.927 27.1336C241.042 27.9117 247.155 32.1356 248.822 38.9162V40.2501C248.822 43.3625 246.488 45.8079 243.376 45.8079C240.708 45.8079 238.596 43.9183 238.04 41.4728C237.04 38.9162 233.483 37.9158 229.926 37.9158C227.369 37.9158 224.813 38.4716 222.923 39.2497C217.81 41.6951 216.254 48.8092 216.254 56.1455C216.254 66.5943 218.254 77.4877 228.37 77.4877C229.481 77.4877 230.815 77.3765 232.149 77.043C235.15 76.3761 237.929 74.4864 238.596 71.374C239.374 69.1509 241.264 67.0389 244.043 67.0389C247.044 67.0389 249.489 69.5955 249.489 72.5967V73.9306C247.377 82.3786 238.818 88.6034 229.037 88.6034C225.368 88.6034 221.589 87.7141 217.921 85.8244C208.695 80.6001 205.138 70.2625 205.138 56.1455Z" fill="white"/>
<path d="M269.332 57.3682C269.332 39.8055 279.003 26.1332 297.121 26.1332C314.684 26.1332 324.911 39.8055 324.911 57.3682C324.911 74.7087 314.907 88.381 297.121 88.381C279.225 88.381 269.332 74.931 269.332 57.3682ZM280.448 57.3682C280.448 68.3728 285.672 77.2654 297.121 77.2654C308.571 77.2654 313.795 68.3728 313.795 57.3682C313.795 46.2526 308.348 37.2489 297.121 37.2489C285.783 37.2489 280.448 46.3637 280.448 57.3682Z" fill="white"/>
<path d="M342.506 33.9141C342.506 30.9129 344.951 28.3563 348.064 28.3563H368.072C371.184 28.3563 373.63 30.8017 373.63 33.9141V82.4897C373.63 85.6021 371.073 88.0476 368.072 88.0476C365.071 88.0476 362.514 85.491 362.514 82.4897V39.472H348.064C345.062 39.472 342.506 36.9154 342.506 33.9141ZM357.845 11.3493V6.23607C357.845 3.12367 360.402 0.678223 363.403 0.678223H368.405C371.407 0.678223 373.963 3.12367 373.963 6.23607V11.3493C373.963 14.4617 371.407 16.9071 368.405 16.9071H363.403C360.402 16.9071 357.845 14.4617 357.845 11.3493Z" fill="white"/>
<path d="M403.493 82.4897V32.5803C403.493 29.579 406.049 27.1336 409.05 27.1336C412.052 27.1336 414.608 29.579 414.608 32.5803V33.5807C419.277 29.4679 425.279 26.6889 432.838 26.6889C449.512 26.6889 455.959 38.2493 455.959 54.8116V82.4897C455.959 85.491 453.291 88.0476 450.401 88.0476C447.4 88.0476 444.843 85.6021 444.843 82.4897V54.8116C444.843 44.8075 442.953 37.8046 432.838 37.8046C423.39 37.8046 417.387 45.6968 414.608 52.8108V82.4897C414.608 85.491 412.052 88.0476 409.05 88.0476C406.049 88.0476 403.493 85.491 403.493 82.4897Z" fill="white"/>
<path d="M0 231.513V129.597C0 125.18 3.76253 121.418 8.17944 121.418C12.5963 121.418 16.3589 125.18 16.3589 129.597V170.004L61.6731 123.871C63.1454 122.399 65.4356 121.418 67.5623 121.418C71.9792 121.418 75.7418 125.18 75.7418 129.597C75.7418 131.724 74.7602 133.85 73.2879 135.323L31.2455 178.347L77.0505 225.787C78.5228 227.423 79.5043 229.386 79.5043 231.513C79.5043 235.93 75.7418 239.693 71.3248 239.693C69.1982 239.693 67.0715 238.875 65.4356 237.239L16.3589 186.526V231.513C16.3589 235.93 12.5963 239.693 8.17944 239.693C3.76253 239.693 0 235.93 0 231.513Z" fill="white"/>
<path d="M98.588 232.004V158.552C98.588 154.135 102.351 150.536 106.767 150.536C111.184 150.536 114.947 154.135 114.947 158.552V160.025C121.818 153.972 130.651 149.882 141.775 149.882C166.314 149.882 175.802 166.895 175.802 191.27V232.004C175.802 236.421 171.876 240.183 167.623 240.183C163.206 240.183 159.443 236.584 159.443 232.004V191.27C159.443 176.547 156.662 166.241 141.775 166.241C127.87 166.241 119.037 177.856 114.947 188.326V232.004C114.947 236.421 111.184 240.183 106.767 240.183C102.351 240.183 98.588 236.421 98.588 232.004Z" fill="white"/>
<path d="M199.851 195.033C199.851 169.186 214.083 149.064 240.748 149.064C266.595 149.064 281.646 169.186 281.646 195.033C281.646 220.553 266.922 240.674 240.748 240.674C214.41 240.674 199.851 220.88 199.851 195.033ZM216.21 195.033C216.21 211.228 223.899 224.315 240.748 224.315C257.598 224.315 265.287 211.228 265.287 195.033C265.287 178.674 257.271 165.423 240.748 165.423C224.062 165.423 216.21 178.837 216.21 195.033Z" fill="white"/>
<path d="M297.139 160.025C297.139 155.608 300.901 151.845 305.318 151.845H317.914L318.242 135.323C318.242 130.579 321.841 127.143 326.421 127.143C331.002 127.143 334.6 130.906 334.6 135.323L334.273 151.845H358.648C363.065 151.845 366.828 155.608 366.828 160.025C366.828 164.442 363.065 168.204 358.648 168.204H333.946L333.455 205.502C333.455 216.463 333.455 223.824 344.743 223.824C348.342 223.661 351.941 222.843 355.049 221.37C356.194 220.88 357.339 220.553 358.648 220.553C363.065 220.553 366.828 224.315 366.828 228.732C366.828 237.075 355.867 240.183 345.725 240.183C340.817 240.183 335.909 239.365 332.801 238.22C320.859 233.64 317.097 222.679 317.097 207.138V205.175L317.587 168.204H305.318C300.901 168.204 297.139 164.442 297.139 160.025Z" fill="white"/>
<path d="M391.322 222.189C391.322 217.608 395.084 214.009 399.501 214.009C405.39 214.009 406.863 220.062 410.789 222.189C414.879 224.152 420.113 224.315 425.675 224.315C434.018 223.824 444.652 222.679 444.652 213.682C444.652 207.629 437.781 205.993 432.873 204.684C414.879 199.94 392.303 197.159 392.303 174.42C392.303 156.098 408.171 149.064 425.675 149.064H430.747C442.689 149.719 454.467 155.608 457.412 166.732C457.575 167.55 457.739 168.204 457.739 168.858C457.739 173.275 453.976 177.038 449.559 177.038C445.633 177.038 442.362 174.42 441.544 170.985C440.398 166.405 434.836 165.75 429.929 165.423H425.675C418.15 165.423 408.662 166.077 408.662 174.42C408.662 180.637 413.733 182.763 418.641 184.072C436.8 188.816 461.011 190.943 461.011 213.682C461.011 232.985 444.488 240.183 425.675 240.674H424.04C408.826 240.674 398.356 236.257 392.303 226.442C391.485 225.133 391.322 223.661 391.322 222.189Z" fill="white"/>
</svg>
