<svg width="1024" height="1024" viewBox="0 0 1024 1024" fill="none" xmlns="http://www.w3.org/2000/svg">
<rect x="21" y="21" width="982" height="982" rx="479" fill="#171717"/>
<rect x="21" y="21" width="982" height="982" rx="479" stroke="#2C3134" stroke-width="42"/>
<path d="M547.532 708.414C536.19 665.751 485.148 634.884 459.996 599.814C423.65 549.137 424.674 480.303 468.69 426.562C481.486 440.893 484.559 443.72 501.959 459.83C471.67 497.851 469.332 534.417 490.517 567.915C521.335 616.645 583.529 642.626 593.666 707.55C593.666 707.55 570.635 708.062 547.532 708.414Z" fill="white"/>
<path d="M646.384 546.327C679.652 572.942 714.144 599.769 712.885 642.028C711.034 704.176 662.582 728.019 596.737 729.047C588.794 729.17 499.492 729.558 499.492 729.558C495.481 753.195 496.675 773.777 503.576 791.731C503.576 791.731 614.322 792.041 614.043 792.041C715.74 792.041 797.79 743.742 797.79 642.028C797.79 581.471 758.472 544.792 703.707 511.012C682.211 523.807 664.297 533.532 646.384 546.327Z" fill="white"/>
<path d="M549.138 601.092C538.827 591.426 525.083 579.084 515.87 568.336C596.829 462.901 694.078 461.366 696.06 381.541C697.111 339.228 660.677 315.713 620.084 308.005C623.681 285.396 622.653 268.953 619.056 250.455C692.535 251.997 768.376 302.867 768.376 381.541C768.376 493.61 645.832 485.105 549.138 601.092Z" fill="white"/>
<path d="M413.647 730.134H379.597L379.619 303.899C379.619 303.899 483.127 303.899 533.755 303.899C538.893 285.914 537.933 267.477 532.133 250.158H276.851V256.424C312.82 284.369 319.375 307.041 319.375 349.212V692.378C319.375 730.257 309.737 760.184 276.851 785.131V791.397C276.851 791.397 372.122 791.293 414.468 791.396C410.602 768.841 410.218 752.086 413.647 730.134Z" fill="white"/>
<path d="M516.567 186.475C539.223 209.061 554.407 241.06 556.602 273.027C558.687 303.363 546.772 334.594 529.134 359.389C539.18 370.989 551.219 381.198 562.534 390.22C584.799 361.335 598.272 328.778 600.395 292.178C604.294 224.944 571.658 172.188 516.213 137C477.412 160.692 453.6 187.499 438.184 228.874C454.327 228.874 470.75 228.839 486.999 228.874C492.651 213.973 505.072 197.63 516.567 186.475Z" fill="white"/>
<path d="M545.513 813.18C538.185 828.154 528.237 843.937 516.272 855.548C493.616 832.963 478.432 799.94 476.237 767.973C474.152 737.637 479.458 702.04 497.956 671.723C486.185 659.439 475.436 649.715 464.176 639.478C442.081 674.933 434.566 712.222 432.444 748.822C428.711 813.18 462.585 870.859 516.626 904C552.628 882.016 580.559 853.218 594.118 813.286C577.975 813.286 561.832 813.286 545.584 813.251L545.513 813.18Z" fill="white"/>
<path d="M612.89 452.395C580.287 429.311 506.866 390.767 484.66 326.504H437.287C453.901 397.719 512.645 442.763 566.131 487.073C581.032 473.976 593.364 466.268 612.89 452.395Z" fill="white"/>
</svg>
