<svg width="567" height="567" viewBox="0 0 567 567" fill="none" xmlns="http://www.w3.org/2000/svg">
<rect width="566.468" height="566.468" transform="translate(0 0.404297)" fill="#171717"/>
<path d="M302.89 392.293C296.616 368.692 268.38 351.616 254.466 332.216C234.36 304.182 234.926 266.104 259.276 236.375C266.354 244.302 268.054 245.866 277.679 254.778C260.924 275.811 259.631 296.039 271.35 314.57C288.398 341.527 322.803 355.899 328.411 391.815C328.411 391.815 315.67 392.098 302.89 392.293Z" fill="white"/>
<path d="M357.574 302.628C375.978 317.351 395.058 332.191 394.362 355.569C393.338 389.949 366.535 403.138 330.11 403.707C325.716 403.775 276.315 403.99 276.315 403.99C274.096 417.065 274.757 428.451 278.574 438.383C278.574 438.383 339.838 438.554 339.684 438.554C395.941 438.554 441.331 411.836 441.331 355.569C441.331 322.069 419.58 301.779 389.285 283.092C377.393 290.17 367.484 295.55 357.574 302.628Z" fill="white"/>
<path d="M303.779 332.923C298.075 327.576 290.471 320.748 285.375 314.802C330.161 256.477 383.958 255.628 385.055 211.469C385.636 188.062 365.481 175.054 343.025 170.79C345.015 158.283 344.446 149.187 342.457 138.954C383.105 139.806 425.059 167.947 425.059 211.469C425.059 273.465 357.269 268.76 303.779 332.923Z" fill="white"/>
<path d="M228.826 404.308H209.99L210.002 168.518C210.002 168.518 267.262 168.518 295.269 168.518C298.111 158.569 297.58 148.37 294.372 138.79H153.152V142.256C173.049 157.715 176.676 170.257 176.676 193.585V383.422C176.676 404.376 171.344 420.932 153.152 434.732V438.198C153.152 438.198 205.855 438.141 229.28 438.197C227.141 425.72 226.929 416.452 228.826 404.308Z" fill="white"/>
<path d="M285.76 103.561C298.294 116.055 306.693 133.757 307.907 151.44C309.061 168.222 302.47 185.498 292.713 199.215C298.27 205.632 304.93 211.28 311.189 216.27C323.506 200.292 330.959 182.282 332.134 162.035C334.291 124.842 316.237 95.6574 285.565 76.1914C264.101 89.2977 250.928 104.127 242.4 127.015C251.33 127.015 260.415 126.996 269.404 127.015C272.531 118.772 279.401 109.731 285.76 103.561Z" fill="white"/>
<path d="M301.773 450.248C297.719 458.532 292.217 467.263 285.597 473.686C273.064 461.192 264.665 442.924 263.45 425.24C262.297 408.459 265.232 388.767 275.465 371.996C268.953 365.2 263.008 359.821 256.779 354.158C244.556 373.772 240.399 394.399 239.224 414.646C237.159 450.248 255.898 482.156 285.793 500.489C305.709 488.328 321.161 472.397 328.661 450.307C319.731 450.307 310.801 450.307 301.812 450.287L301.773 450.248Z" fill="white"/>
<path d="M339.046 250.665C321.01 237.895 280.394 216.573 268.11 181.023H241.904C251.094 220.419 283.591 245.337 313.179 269.849C321.422 262.604 328.244 258.34 339.046 250.665Z" fill="white"/>
</svg>
