<svg width="567" height="567" viewBox="0 0 567 567" fill="none" xmlns="http://www.w3.org/2000/svg">
<rect x="11.617" y="12.0853" width="543.234" height="543.234" rx="264.979" fill="#171717"/>
<rect x="11.617" y="12.0853" width="543.234" height="543.234" rx="264.979" stroke="#2C3134" stroke-width="23.234"/>
<path d="M302.89 392.357C296.616 368.756 268.38 351.68 254.466 332.28C234.36 304.246 234.926 266.167 259.276 236.438C266.354 244.366 268.054 245.93 277.679 254.842C260.924 275.875 259.631 296.103 271.35 314.634C288.398 341.591 322.803 355.963 328.411 391.879C328.411 391.879 315.67 392.162 302.89 392.357Z" fill="white"/>
<path d="M357.574 302.692C375.978 317.415 395.058 332.255 394.362 355.633C393.338 390.013 366.535 403.202 330.11 403.771C325.716 403.839 276.315 404.054 276.315 404.054C274.096 417.129 274.757 428.515 278.574 438.447C278.574 438.447 339.838 438.618 339.684 438.618C395.941 438.618 441.331 411.9 441.331 355.633C441.331 322.133 419.58 301.843 389.285 283.156C377.393 290.234 367.484 295.614 357.574 302.692Z" fill="white"/>
<path d="M303.779 332.987C298.075 327.64 290.471 320.812 285.375 314.866C330.161 256.541 383.958 255.692 385.055 211.533C385.636 188.126 365.481 175.118 343.025 170.854C345.015 158.347 344.446 149.251 342.457 139.018C383.105 139.87 425.059 168.011 425.059 211.533C425.059 273.529 357.269 268.824 303.779 332.987Z" fill="white"/>
<path d="M228.826 404.372H209.99L210.002 168.582C210.002 168.582 267.262 168.582 295.269 168.582C298.111 158.633 297.58 148.434 294.372 138.854H153.152V142.32C173.049 157.778 176.676 170.321 176.676 193.649V383.486C176.676 404.44 171.344 420.996 153.152 434.796V438.262C153.152 438.262 205.855 438.205 229.28 438.261C227.141 425.784 226.929 416.515 228.826 404.372Z" fill="white"/>
<path d="M285.76 103.625C298.294 116.119 306.693 133.82 307.907 151.504C309.061 168.286 302.47 185.562 292.713 199.279C298.27 205.696 304.93 211.344 311.189 216.334C323.506 200.356 330.959 182.345 332.134 162.099C334.291 124.906 316.237 95.7213 285.565 76.2554C264.101 89.3617 250.928 104.191 242.4 127.079C251.33 127.079 260.415 127.06 269.404 127.079C272.531 118.836 279.401 109.795 285.76 103.625Z" fill="white"/>
<path d="M301.773 450.312C297.719 458.596 292.217 467.327 285.597 473.75C273.064 461.256 264.665 442.988 263.45 425.304C262.297 408.523 265.232 388.831 275.465 372.06C268.953 365.264 263.008 359.885 256.779 354.222C244.556 373.836 240.399 394.463 239.224 414.71C237.159 450.312 255.898 482.22 285.793 500.553C305.709 488.392 321.161 472.461 328.661 450.371C319.731 450.371 310.801 450.371 301.812 450.351L301.773 450.312Z" fill="white"/>
<path d="M339.046 250.729C321.01 237.959 280.394 216.637 268.11 181.087H241.904C251.094 220.483 283.591 245.401 313.179 269.913C321.422 262.668 328.244 258.404 339.046 250.729Z" fill="white"/>
</svg>
