<svg width="1024" height="1024" viewBox="0 0 1024 1024" fill="none" xmlns="http://www.w3.org/2000/svg">
<rect width="1024" height="1024" fill="#171717"/>
<path d="M539.681 696.414C528.339 653.751 477.297 622.884 452.145 587.814C415.799 537.137 416.823 468.303 460.839 414.562C473.635 428.893 476.708 431.72 494.107 447.83C463.819 485.851 461.481 522.417 482.666 555.915C513.484 604.645 575.678 630.626 585.815 695.55C585.815 695.55 562.783 696.062 539.681 696.414Z" fill="white"/>
<path d="M638.533 534.327C671.801 560.942 706.293 587.769 705.034 630.028C703.183 692.176 654.731 716.019 588.886 717.047C580.943 717.17 491.641 717.558 491.641 717.558C487.63 741.195 488.824 761.777 495.725 779.731C495.725 779.731 606.471 780.041 606.192 780.041C707.889 780.041 789.939 731.742 789.939 630.028C789.939 569.471 750.621 532.792 695.856 499.012C674.36 511.807 656.446 521.532 638.533 534.327Z" fill="white"/>
<path d="M541.287 589.092C530.976 579.426 517.232 567.084 508.019 556.336C588.978 450.901 686.227 449.366 688.209 369.541C689.26 327.228 652.826 303.713 612.233 296.005C615.829 273.396 614.802 256.953 611.205 238.455C684.684 239.997 760.525 290.867 760.525 369.541C760.525 481.61 637.981 473.105 541.287 589.092Z" fill="white"/>
<path d="M405.796 718.134H371.746L371.768 291.899C371.768 291.899 475.276 291.899 525.904 291.899C531.042 273.914 530.082 255.477 524.282 238.158H269V244.424C304.969 272.369 311.524 295.041 311.524 337.212V680.378C311.524 718.257 301.886 748.184 269 773.131V779.397C269 779.397 364.271 779.293 406.617 779.396C402.75 756.841 402.367 740.086 405.796 718.134Z" fill="white"/>
<path d="M508.715 174.475C531.372 197.061 546.556 229.06 548.75 261.027C550.836 291.363 538.921 322.594 521.283 347.389C531.329 358.989 543.368 369.198 554.683 378.22C576.948 349.335 590.421 316.778 592.544 280.178C596.443 212.944 563.807 160.188 508.362 125C469.561 148.692 445.749 175.499 430.333 216.874C446.476 216.874 462.899 216.839 479.148 216.874C484.8 201.973 497.221 185.63 508.715 174.475Z" fill="white"/>
<path d="M537.662 801.18C530.334 816.154 520.386 831.937 508.421 843.548C485.765 820.963 470.581 787.94 468.386 755.973C466.301 725.637 471.607 690.04 490.105 659.723C478.333 647.439 467.585 637.715 456.325 627.478C434.23 662.933 426.715 700.222 424.592 736.822C420.86 801.18 454.734 858.859 508.775 892C544.777 870.016 572.708 841.218 586.267 801.286C570.124 801.286 553.981 801.286 537.733 801.251L537.662 801.18Z" fill="white"/>
<path d="M605.039 440.395C572.436 417.311 499.015 378.767 476.809 314.504H429.436C446.05 385.719 504.794 430.763 558.28 475.073C573.181 461.976 585.513 454.268 605.039 440.395Z" fill="white"/>
</svg>
