<svg width="1024" height="1024" viewBox="0 0 1024 1024" fill="none" xmlns="http://www.w3.org/2000/svg">
<rect x="21" y="21" width="982" height="982" rx="479" fill="#F7931A"/>
<rect x="21" y="21" width="982" height="982" rx="479" stroke="#D27A0F" stroke-width="42"/>
<path d="M540.532 700.414C529.19 657.751 478.148 626.884 452.996 591.814C416.65 541.137 417.674 472.303 461.69 418.562C474.486 432.893 477.559 435.72 494.959 451.83C464.67 489.851 462.332 526.417 483.517 559.915C514.335 608.645 576.529 634.626 586.666 699.55C586.666 699.55 563.635 700.062 540.532 700.414Z" fill="#171717"/>
<path d="M639.384 538.328C672.652 564.942 707.144 591.769 705.885 634.028C704.034 696.176 655.582 720.019 589.737 721.047C581.794 721.171 492.492 721.559 492.492 721.559C488.481 745.195 489.675 765.777 496.576 783.731C496.576 783.731 607.322 784.041 607.043 784.041C708.74 784.041 790.79 735.742 790.79 634.028C790.79 573.471 751.472 536.792 696.707 503.012C675.211 515.808 657.297 525.532 639.384 538.328Z" fill="#171717"/>
<path d="M542.138 593.092C531.827 583.426 518.083 571.084 508.87 560.336C589.829 454.901 687.078 453.366 689.06 373.541C690.111 331.228 653.677 307.713 613.084 300.005C616.681 277.396 615.653 260.953 612.056 242.455C685.535 243.997 761.376 294.867 761.376 373.541C761.376 485.61 638.832 477.105 542.138 593.092Z" fill="#171717"/>
<path d="M406.647 722.134H372.597L372.619 295.899C372.619 295.899 476.127 295.899 526.755 295.899C531.893 277.914 530.933 259.477 525.133 242.158H269.851V248.424C305.82 276.369 312.375 299.041 312.375 341.212V684.378C312.375 722.257 302.737 752.184 269.851 777.131V783.397C269.851 783.397 365.122 783.293 407.468 783.396C403.602 760.841 403.218 744.086 406.647 722.134Z" fill="#171717"/>
<path d="M509.567 178.475C532.223 201.061 547.407 233.06 549.602 265.027C551.687 295.363 539.772 326.594 522.134 351.389C532.18 362.989 544.219 373.198 555.534 382.22C577.799 353.335 591.272 320.778 593.395 284.178C597.294 216.944 564.658 164.188 509.213 129C470.412 152.692 446.6 179.499 431.184 220.874C447.327 220.874 463.75 220.839 479.999 220.874C485.651 205.973 498.072 189.63 509.567 178.475Z" fill="#171717"/>
<path d="M538.513 805.18C531.185 820.154 521.237 835.937 509.272 847.548C486.616 824.963 471.432 791.94 469.237 759.973C467.152 729.637 472.458 694.04 490.956 663.723C479.185 651.439 468.436 641.715 457.176 631.478C435.081 666.933 427.566 704.222 425.444 740.822C421.711 805.18 455.585 862.859 509.626 896C545.628 874.016 573.559 845.218 587.118 805.286C570.975 805.286 554.832 805.286 538.584 805.251L538.513 805.18Z" fill="#171717"/>
<path d="M605.89 444.395C573.287 421.311 499.866 382.767 477.66 318.504H430.287C446.901 389.719 505.645 434.763 559.131 479.073C574.032 465.976 586.364 458.268 605.89 444.395Z" fill="#171717"/>
</svg>
