<svg width="1024" height="1024" viewBox="0 0 1024 1024" fill="none" xmlns="http://www.w3.org/2000/svg">
<path d="M541.448 693.215C530.11 650.567 479.086 621.756 453.942 586.699C417.61 536.04 418.633 465.183 462.634 411.461C475.425 425.787 478.497 428.612 495.891 444.718C465.613 482.725 463.275 520.302 484.453 553.788C515.26 602.501 577.543 626.646 587.677 691.547C587.677 691.547 564.563 693.215 541.448 693.215Z" fill="#171717"/>
<path d="M640.265 531.184C673.522 557.79 708.002 584.607 706.743 626.852C704.893 688.978 656.609 712.148 590.787 713.175C582.846 713.299 493.682 714.661 493.682 714.661C489.673 738.29 490.866 758.864 497.765 776.812C497.765 776.812 608.214 776.812 607.936 776.812C709.597 776.812 791.618 728.53 791.618 626.852C791.618 566.316 752.314 529.65 697.569 495.881C676.08 508.672 658.173 518.393 640.265 531.184Z" fill="#171717"/>
<path d="M543.054 585.93C532.746 576.267 519.007 563.93 509.797 553.185C590.728 447.787 687.943 446.253 689.925 366.455C690.975 324.158 654.554 300.65 613.975 292.946C617.57 270.344 616.543 253.907 612.947 235.416C686.401 236.957 762.215 287.809 762.215 366.455C762.215 478.486 639.714 469.984 543.054 585.93Z" fill="#171717"/>
<path d="M407.609 714.928H374.595L374.617 288.84C374.617 288.84 477.066 288.84 527.675 288.84C532.812 270.862 531.852 252.431 526.054 235.119H271.885V241.382C307.841 269.317 311.324 297.099 311.324 339.254V672.068C311.324 709.933 304.759 744.967 271.885 769.905V776.168C271.885 776.168 366.099 776.065 408.43 776.167C404.565 753.62 404.182 736.871 407.609 714.928Z" fill="#171717"/>
<path d="M510.493 171.458C533.142 194.036 547.297 226.024 549.491 257.979C551.576 288.305 540.688 319.525 523.056 344.312C533.099 355.908 545.134 366.113 556.444 375.132C578.702 346.257 592.171 313.711 594.293 277.124C598.191 209.914 565.566 157.176 510.139 122C471.353 145.684 447.548 172.481 432.139 213.842C448.276 213.842 464.693 213.807 480.936 213.842C486.587 198.946 499.002 182.609 510.493 171.458Z" fill="#171717"/>
<path d="M539.485 798.417C532.16 813.386 522.216 829.163 510.254 840.771C487.606 818.193 473.451 785.182 471.257 753.226C469.172 722.901 473.131 687.951 491.623 657.645C485.459 651.481 469.636 638.126 457.822 626.311C435.734 661.754 428.577 697.494 426.455 734.081C422.724 798.417 456.587 856.076 510.608 889.206C546.598 867.23 574.519 838.441 588.073 798.523C571.936 798.523 555.799 798.523 539.556 798.488L539.485 798.417Z" fill="#171717"/>
<path d="M606.783 437.284C574.192 414.209 500.796 375.679 478.598 311.438H431.241C447.85 382.627 506.573 427.656 560.04 471.951C574.936 458.858 587.264 451.153 606.783 437.284Z" fill="#171717"/>
</svg>
