<svg width="1024" height="1024" viewBox="0 0 1024 1024" fill="none" xmlns="http://www.w3.org/2000/svg">
<rect width="1024" height="1024" rx="512" fill="#F7931A"/>
<path d="M469.644 398.653C440.524 366.681 428.942 339.937 424.189 323.222H466.38C488.007 371.878 543.634 421.817 596.519 446.628C588.605 452.259 580.188 457.149 571.376 461.235C562.709 465.465 557.56 467.921 554.566 469.315C543.998 463.643 512.406 444.489 469.612 398.717L469.644 398.653ZM603.332 283.772C603.304 293.311 602.312 302.824 600.369 312.163C699.534 336.483 706.283 414.386 615.183 461.093C561.156 488.803 540.718 493.873 510.869 523.881C514.1 529.335 517.932 534.41 522.292 539.011C527.045 544.255 534.413 553.159 539.72 559.608C567.351 526.938 625.481 503.886 674.549 481.848C836.692 408.967 741.092 243.735 599.149 249.486C602.039 260.682 603.445 272.209 603.332 283.772ZM572.564 679.48C574.592 679.195 576.335 678.926 577.824 678.656C563.802 604.096 530.943 585.544 495.437 536.904C471.276 491.813 481.955 455.864 487.326 443.063C483.159 439.213 477.376 433.778 471.862 428.281C466.064 422.482 461.406 417.57 458.015 413.926C421.955 461.806 433.521 526.843 462.847 565.09C492.126 602.56 520.28 611.892 533.351 681.635C541.922 681.508 561.014 681.064 572.564 679.48ZM264.645 769.535L399.885 769.234C397.757 757.688 396.665 745.975 396.621 734.235C396.38 722.39 397.175 710.547 398.998 698.841C391.076 696.448 385.547 691.347 385.547 679.195V326.011C387.654 300.091 404.702 304.669 464.923 304.669C496.61 304.669 496.816 305.462 513.103 305.351C514.927 296.238 515.829 286.965 515.796 277.672C515.785 268.722 514.819 259.799 512.913 251.055H495.327C451.662 251.197 310.337 251.055 261.349 251.055C261.349 251.055 321.808 271.873 321.808 304.289V713.686C321.808 738.656 264.645 769.535 264.645 769.535ZM665.756 507.213C656.249 511.047 649.072 514.47 644.383 516.862C716.74 557.817 731.253 670.148 619.16 692.725C587.599 701.883 522.878 701.55 483.048 701.281C482.05 704.846 480.006 714.811 480.37 735.487C480.735 755.767 483.761 766.461 484.6 769.075H583.464C775.266 773.115 875.73 592.198 705.016 489.785C698.801 492.938 676.046 503.078 665.756 507.213ZM466.539 232.676C475.839 208.388 497.893 188.79 497.893 188.79C539.086 220.746 552.965 308.377 510.093 354.608C514.844 361.122 520.071 367.276 525.73 373.018C530.237 377.401 535.033 381.477 540.085 385.218C624.927 291.107 571.185 190.089 497.893 144C497.893 144 447.067 174.847 424.189 232.724L466.539 232.676ZM529.739 787.897C520.138 811.774 498.448 831.483 498.448 831.483C457.35 794.789 454.197 741.412 463.513 687.101C467.093 655.144 477.772 633.328 486.47 619.655C483.498 615.952 480.285 612.448 476.853 609.166C471.831 604.287 463.972 596 458.268 589.917C391.124 701.059 406.634 823.751 497.877 880.376C497.877 880.376 550.668 852.507 576.049 787.897H529.739Z" fill="#171717"/>
</svg>
