<svg width="1024" height="1024" viewBox="0 0 1024 1024" fill="none" xmlns="http://www.w3.org/2000/svg">
<g clip-path="url(#clip0_264_964)">
<circle cx="512" cy="512" r="493" fill="#F7931A" stroke="#D27A0F" stroke-width="38"/>
<path d="M541.448 699.355C530.11 656.707 479.086 627.896 453.942 592.839C417.61 542.18 418.633 471.323 462.634 417.601C475.425 431.926 478.497 434.752 495.891 450.857C465.613 488.865 463.275 526.441 484.453 559.928C515.26 608.641 577.543 632.785 587.677 697.686C587.677 697.686 564.563 699.355 541.448 699.355Z" fill="#171717"/>
<path d="M640.777 537.324C674.034 563.93 708.002 590.747 706.743 632.992C704.893 695.118 656.609 718.287 590.787 719.315C582.846 719.439 494.705 720.801 494.705 720.801C490.696 744.429 491.723 762.921 498.788 782.952C498.788 782.952 608.214 782.952 607.936 782.952C709.597 782.952 791.618 734.67 791.618 632.992C791.618 572.456 753.338 536.813 698.592 503.044C677.103 516.347 656.882 527.661 640.777 537.324Z" fill="#171717"/>
<path d="M543.565 591.558C533.258 581.895 519.426 569.558 510.217 558.813C591.148 453.415 687.943 452.392 689.925 372.595C690.975 330.297 654.554 306.79 613.975 299.085C617.57 276.484 616.543 260.047 612.947 241.555C686.401 243.096 762.215 293.949 762.215 372.595C762.215 484.625 640.225 475.612 543.565 591.558Z" fill="#171717"/>
<path d="M407.609 721.067H374.595L374.617 294.98C374.617 294.98 476.042 294.98 526.652 294.98C531.789 277.002 530.829 258.571 525.031 241.258H271.885V247.522C307.841 275.457 311.324 303.238 311.324 345.394V678.208C311.324 716.073 304.759 751.107 271.885 776.044V782.308C271.885 782.308 366.099 782.205 408.43 782.307C404.565 759.76 404.182 743.011 407.609 721.067Z" fill="#171717"/>
<path d="M510.493 178.621C533.142 201.199 547.297 232.163 549.491 264.119C551.576 294.444 540.688 325.664 523.056 350.452C533.099 362.047 545.134 372.252 556.444 381.271C578.702 352.397 592.171 319.851 594.292 283.264C598.191 216.053 568.484 158.72 510.139 122C471.353 145.684 447.548 178.621 432.139 219.982C448.276 219.982 464.693 219.946 480.936 219.982C486.587 205.086 499.002 189.772 510.493 178.621Z" fill="#171717"/>
<path d="M539.485 804.557C532.16 819.526 522.216 833.256 510.254 844.864C487.606 822.286 473.451 791.321 471.257 759.366C469.172 729.041 473.131 694.09 491.623 663.784C485.459 657.62 469.636 644.265 457.822 632.451C435.734 667.894 428.577 703.634 426.455 740.221C422.557 807.431 452.264 864.765 510.608 901.485C546.598 879.509 574.519 844.581 588.073 804.663C571.936 804.663 555.799 804.663 539.556 804.627L539.485 804.557Z" fill="#171717"/>
<path d="M606.783 443.424C574.192 420.348 500.796 381.818 478.598 317.577H431.241C447.85 388.767 506.573 433.796 560.04 478.09C574.936 464.998 587.264 457.293 606.783 443.424Z" fill="#171717"/>
</g>
<defs>
<clipPath id="clip0_264_964">
<rect width="1024" height="1024" fill="white"/>
</clipPath>
</defs>
</svg>
