<svg width="1007" height="526" viewBox="0 0 1007 526" fill="none" xmlns="http://www.w3.org/2000/svg">
<path d="M0 175.146V29.5954C0 22.803 5.33683 17.4661 12.1292 17.4661H53.6113C67.6812 17.4661 81.9937 17.7087 94.3655 24.5011C109.163 32.9916 117.654 49.2447 117.654 65.7405C117.654 77.8698 113.045 89.9991 103.099 98.7321C114.5 107.708 121.05 121.535 121.292 136.333C121.292 151.373 114.743 165.928 102.613 175.146C89.0286 185.82 71.0774 187.276 53.6113 187.276H12.1292C5.57942 187.276 0 181.939 0 175.146ZM24.2585 163.017H53.6113C74.7162 163.017 97.034 158.651 97.034 136.333C96.5488 117.654 80.053 110.861 60.6462 110.861H24.2585V163.017ZM24.2585 86.6029H60.6462C77.142 86.6029 93.6378 82.2363 93.6378 65.2554V63.5573C91.6971 44.3931 74.7162 41.7246 53.6113 41.7246H24.2585V86.6029Z" fill="#171717"/>
<path d="M162.691 72.5329C162.691 65.9831 168.028 60.4037 174.82 60.4037H218.486C225.278 60.4037 230.615 65.7405 230.615 72.5329V178.543C230.615 185.335 225.036 190.672 218.486 190.672C211.936 190.672 206.356 185.092 206.356 178.543V84.6622H174.82C168.271 84.6622 162.691 79.0827 162.691 72.5329ZM196.168 23.2882V12.1292C196.168 5.33687 201.747 0 208.297 0H219.214C225.763 0 231.343 5.33687 231.343 12.1292V23.2882C231.343 30.0805 225.763 35.4174 219.214 35.4174H208.297C201.747 35.4174 196.168 30.0805 196.168 23.2882Z" fill="#171717"/>
<path d="M295.787 71.8052C295.787 65.2554 301.366 59.6759 307.916 59.6759H326.595L327.08 35.1748C327.08 28.1399 332.417 23.0456 339.21 23.0456C346.002 23.0456 351.339 28.625 351.339 35.1748L350.854 59.6759H386.999C393.549 59.6759 399.128 65.2554 399.128 71.8052C399.128 78.355 393.549 83.9344 386.999 83.9344H350.369L349.641 139.244C349.641 155.497 349.641 166.413 366.379 166.413C371.716 166.171 377.053 164.958 381.662 162.775C383.36 162.047 385.058 161.562 386.999 161.562C393.549 161.562 399.128 167.141 399.128 173.691C399.128 186.063 382.875 190.672 367.835 190.672C360.557 190.672 353.28 189.459 348.671 187.761C330.962 180.968 325.382 164.715 325.382 141.67V138.759L326.11 83.9344H307.916C301.366 83.9344 295.787 78.355 295.787 71.8052Z" fill="#171717"/>
<path d="M447.686 121.05C447.686 84.4196 463.211 57.0075 499.599 57.0075C502.995 57.0075 506.634 57.2501 510.515 57.7352C526.041 59.4333 539.383 68.6516 543.022 83.4493V86.3603C543.022 93.1527 537.927 98.4895 531.135 98.4895C525.313 98.4895 520.704 94.3656 519.491 89.0287C517.308 83.4493 509.545 81.266 501.782 81.266C496.203 81.266 490.623 82.4789 486.499 84.177C475.34 89.5139 471.944 105.039 471.944 121.05C471.944 143.853 476.311 167.626 498.386 167.626C500.812 167.626 503.723 167.384 506.634 166.656C513.184 165.2 519.248 161.076 520.704 154.284C522.402 149.432 526.526 144.823 532.59 144.823C539.14 144.823 544.477 150.403 544.477 156.953V159.864C539.868 178.3 521.189 191.885 499.841 191.885C491.836 191.885 483.588 189.944 475.583 185.82C455.448 174.419 447.686 151.858 447.686 121.05Z" fill="#171717"/>
<path d="M587.781 123.718C587.781 85.3899 608.886 55.552 648.428 55.552C686.756 55.552 709.074 85.3899 709.074 123.718C709.074 161.562 687.241 191.4 648.428 191.4C609.372 191.4 587.781 162.047 587.781 123.718ZM612.04 123.718C612.04 147.734 623.441 167.141 648.428 167.141C673.414 167.141 684.816 147.734 684.816 123.718C684.816 99.4599 672.929 79.8105 648.428 79.8105C623.684 79.8105 612.04 99.7024 612.04 123.718Z" fill="#171717"/>
<path d="M747.473 72.5329C747.473 65.9831 752.81 60.4037 759.602 60.4037H803.267C810.06 60.4037 815.396 65.7405 815.396 72.5329V178.543C815.396 185.335 809.817 190.672 803.267 190.672C796.717 190.672 791.138 185.092 791.138 178.543V84.6622H759.602C753.052 84.6622 747.473 79.0827 747.473 72.5329ZM780.949 23.2882V12.1292C780.949 5.33687 786.529 0 793.079 0H803.995C810.545 0 816.124 5.33687 816.124 12.1292V23.2882C816.124 30.0805 810.545 35.4174 803.995 35.4174H793.079C786.529 35.4174 780.949 30.0805 780.949 23.2882Z" fill="#171717"/>
<path d="M880.568 178.543V69.6219C880.568 63.0721 886.148 57.7352 892.698 57.7352C899.247 57.7352 904.827 63.0721 904.827 69.6219V71.8052C915.016 62.8295 928.115 56.7649 944.611 56.7649C980.999 56.7649 995.069 81.9937 995.069 118.139V178.543C995.069 185.092 989.247 190.672 982.939 190.672C976.39 190.672 970.81 185.335 970.81 178.543V118.139C970.81 96.3063 966.686 81.0234 944.611 81.0234C923.991 81.0234 910.892 98.2469 904.827 113.772V178.543C904.827 185.092 899.247 190.672 892.698 190.672C886.148 190.672 880.568 185.092 880.568 178.543Z" fill="#171717"/>
<path d="M0 505.957V283.539C0 273.9 8.21122 265.689 17.8505 265.689C27.4898 265.689 35.7011 273.9 35.7011 283.539V371.721L134.593 271.044C137.806 267.831 142.804 265.689 147.446 265.689C157.085 265.689 165.296 273.9 165.296 283.539C165.296 288.181 163.154 292.822 159.941 296.035L68.1891 389.929L168.152 493.462C171.365 497.032 173.507 501.316 173.507 505.957C173.507 515.597 165.296 523.808 155.657 523.808C151.016 523.808 146.375 522.023 142.804 518.453L35.7011 407.779V505.957C35.7011 515.597 27.4898 523.808 17.8505 523.808C8.21122 523.808 0 515.597 0 505.957Z" fill="#171717"/>
<path d="M215.155 507.029V346.73C215.155 337.091 223.366 329.237 233.006 329.237C242.645 329.237 250.856 337.091 250.856 346.73V349.944C265.851 336.734 285.129 327.809 309.406 327.809C362.958 327.809 383.664 364.938 383.664 418.133V507.029C383.664 516.668 375.096 524.879 365.814 524.879C356.174 524.879 347.963 517.025 347.963 507.029V418.133C347.963 386.002 341.894 363.51 309.406 363.51C279.06 363.51 259.781 388.858 250.856 411.706V507.029C250.856 516.668 242.645 524.879 233.006 524.879C223.366 524.879 215.155 516.668 215.155 507.029Z" fill="#171717"/>
<path d="M436.148 426.344C436.148 369.936 467.208 326.024 525.401 326.024C581.808 326.024 614.654 369.936 614.654 426.344C614.654 482.038 582.522 525.95 525.401 525.95C467.922 525.95 436.148 482.752 436.148 426.344ZM471.849 426.344C471.849 461.688 488.628 490.249 525.401 490.249C562.173 490.249 578.952 461.688 578.952 426.344C578.952 390.643 561.459 361.725 525.401 361.725C488.986 361.725 471.849 391 471.849 426.344Z" fill="#171717"/>
<path d="M648.465 349.944C648.465 340.304 656.676 332.093 666.316 332.093H693.805L694.52 296.035C694.52 285.682 702.374 278.184 712.37 278.184C722.366 278.184 730.221 286.396 730.221 296.035L729.507 332.093H782.701C792.341 332.093 800.552 340.304 800.552 349.944C800.552 359.583 792.341 367.794 782.701 367.794H728.793L727.722 449.193C727.722 473.112 727.721 489.178 752.355 489.178C760.209 488.821 768.064 487.036 774.847 483.823C777.346 482.752 779.845 482.038 782.701 482.038C792.341 482.038 800.552 490.249 800.552 499.888C800.552 518.096 776.632 524.879 754.497 524.879C743.787 524.879 733.077 523.094 726.293 520.595C700.232 510.599 692.021 486.679 692.021 452.763V448.479L693.091 367.794H666.316C656.676 367.794 648.465 359.583 648.465 349.944Z" fill="#171717"/>
<path d="M854.007 485.608C854.007 475.612 862.218 467.757 871.858 467.757C884.71 467.757 887.923 480.967 896.491 485.608C905.417 489.892 916.841 490.249 928.979 490.249C947.187 489.178 970.393 486.679 970.393 467.043C970.393 453.834 955.398 450.264 944.688 447.408C905.417 437.054 856.149 430.985 856.149 381.361C856.149 341.375 890.779 326.024 928.979 326.024H940.047C966.108 327.452 991.813 340.304 998.24 364.581C998.597 366.366 998.954 367.794 998.954 369.222C998.954 378.861 990.742 387.073 981.103 387.073C972.535 387.073 965.395 381.361 963.609 373.863C961.11 363.867 948.972 362.439 938.262 361.725H928.979C912.557 361.725 891.85 363.153 891.85 381.361C891.85 394.927 902.918 399.568 913.628 402.424C953.256 412.777 1006.09 417.419 1006.09 467.043C1006.09 509.171 970.036 524.879 928.979 525.95H925.409C892.207 525.95 869.358 516.311 856.149 494.89C854.364 492.034 854.007 488.821 854.007 485.608Z" fill="#171717"/>
</svg>
