<svg xmlns="http://www.w3.org/2000/svg" version="1.1" xmlns:xlink="http://www.w3.org/1999/xlink" width="1024" height="1024"><svg width="1024" height="1024" viewBox="0 0 1024 1024" fill="none" xmlns="http://www.w3.org/2000/svg">
<rect width="1024" height="1024" fill="#F7931A"></rect>
<path d="M462.429 398.277C433.309 366.305 421.727 339.561 416.974 322.846H459.166C480.792 371.502 536.419 421.441 589.304 446.252C581.39 451.883 572.973 456.773 564.161 460.859C555.494 465.09 550.345 467.545 547.351 468.939C536.783 463.267 505.191 444.113 462.398 398.341L462.429 398.277ZM596.117 283.396C596.089 292.935 595.097 302.448 593.154 311.787C692.319 336.107 699.068 414.01 607.968 460.717C553.942 488.427 533.503 493.497 503.654 523.505C506.885 528.959 510.717 534.034 515.077 538.635C519.83 543.879 527.198 552.784 532.505 559.232C560.136 526.562 618.266 503.51 667.334 481.472C829.477 408.591 733.877 243.359 591.934 249.11C594.824 260.306 596.23 271.833 596.117 283.396ZM565.349 679.104C567.377 678.819 569.12 678.55 570.609 678.28C556.588 603.721 523.728 585.168 488.223 536.528C464.061 491.437 474.74 455.488 480.111 442.687C475.944 438.837 470.161 433.402 464.647 427.905C458.849 422.106 454.191 417.194 450.8 413.55C414.74 461.43 426.306 526.467 455.632 564.714C484.911 602.184 513.065 611.516 526.136 681.259C534.708 681.132 553.799 680.688 565.349 679.104ZM257.43 769.159L392.67 768.858C390.542 757.312 389.45 745.599 389.406 733.859C389.165 722.015 389.96 710.171 391.783 698.465C383.861 696.073 378.332 690.971 378.332 678.819V325.635C380.439 299.715 397.487 304.293 457.708 304.293C489.395 304.293 489.601 305.086 505.888 304.975C507.712 295.862 508.615 286.589 508.582 277.296C508.57 268.346 507.604 259.423 505.698 250.679H488.112C444.447 250.821 303.123 250.679 254.134 250.679C254.134 250.679 314.593 271.497 314.593 303.913V713.31C314.593 738.28 257.43 769.159 257.43 769.159ZM658.541 506.837C649.035 510.671 641.857 514.094 637.168 516.486C709.525 557.442 724.038 669.772 611.945 692.349C580.384 701.507 515.664 701.174 475.833 700.905C474.835 704.47 472.791 714.435 473.155 735.111C473.52 755.391 476.546 766.085 477.386 768.699H576.249C768.051 772.739 868.515 591.822 697.801 489.409C691.586 492.562 668.831 502.702 658.541 506.837ZM459.324 232.3C468.624 208.012 490.678 188.414 490.678 188.414C531.872 220.37 545.751 308.001 502.878 354.232C507.629 360.746 512.856 366.9 518.515 372.642C523.022 377.025 527.818 381.101 532.87 384.842C617.712 290.731 563.971 189.713 490.678 143.624C490.678 143.624 439.852 174.471 416.974 232.348L459.324 232.3ZM522.524 787.521C512.923 811.398 491.233 831.107 491.233 831.107C450.135 794.413 446.982 741.036 456.298 686.725C459.879 654.768 470.557 632.952 479.255 619.279C476.283 615.576 473.07 612.072 469.638 608.79C464.616 603.911 456.757 595.624 451.054 589.541C383.909 700.683 399.42 823.375 490.663 880C490.663 880 543.453 852.131 568.835 787.521H522.524Z" fill="#171717"></path>
</svg><style>@media (prefers-color-scheme: light) { :root { filter: none; } }
@media (prefers-color-scheme: dark) { :root { filter: none; } }
</style></svg>